<svg id="Слой_1" data-name="Слой 1" xmlns="http://www.w3.org/2000/svg" viewBox="0 0 1277.47 798.9">
  <defs>
    <style>
      .cls-1{fill:none;stroke-width:14px}.cls-1,.cls-2{stroke:#ccc}.cls-1,.cls-2,.cls-3{stroke-miterlimit:10}.cls-2,.cls-3{fill:#ccc;stroke-width:.25px}.cls-3{fill:#e6e6e6;stroke:#e6e6e6}
    </style>
  </defs>
  <path class="cls-1" d="M1164.3 426.3a44.93 44.93 0 0 0 61.9 5 41.64 41.64 0 0 0 5.2-59.9 44.93 44.93 0 0 0-61.9-5 41.47 41.47 0 0 0-5.2 59.9z" transform="translate(-.26 .1)"/>
  <path class="cls-2" d="M1200.9 402.4a4.52 4.52 0 0 1-6.2-.5l-12.9-14.8a4.18 4.18 0 0 1 .5-6 4.52 4.52 0 0 1 6.2.5l12.9 14.8a4.11 4.11 0 0 1-.5 6z" transform="translate(-.26 .1)"/>
  <path class="cls-2" d="M1211.9 371.2l-9.4 29.9a4.22 4.22 0 0 1-5.3 2.7 4.11 4.11 0 0 1-2.8-5.1l9.4-29.9a4.22 4.22 0 0 1 5.3-2.7 4.07 4.07 0 0 1 2.8 5.1z" transform="translate(-.26 .1)"/>
  <path class="cls-3" d="M1176.7 417.8l-6.6 5.4a1.37 1.37 0 0 1-1.8-.1 1.24 1.24 0 0 1 .1-1.7l6.6-5.4a1.37 1.37 0 0 1 1.8.1 1.16 1.16 0 0 1-.1 1.7zM1226.7 376.8l-6.6 5.4a1.37 1.37 0 0 1-1.8-.1 1.24 1.24 0 0 1 .1-1.7l6.6-5.4a1.37 1.37 0 0 1 1.8.1 1.08 1.08 0 0 1-.1 1.7zM1216.4 418.3l5.6 6.4a1.24 1.24 0 0 1-.1 1.7 1.37 1.37 0 0 1-1.8-.1l-5.6-6.4a1.24 1.24 0 0 1 .1-1.7 1.26 1.26 0 0 1 1.8.1zM1175 370.9l5.6 6.4a1.24 1.24 0 0 1-.1 1.7 1.37 1.37 0 0 1-1.8-.1l-5.6-6.4a1.24 1.24 0 0 1 .1-1.7 1.26 1.26 0 0 1 1.8.1z" transform="translate(-.26 .1)"/>
  <path class="cls-2" d="M1205.1 394.5a8 8 0 0 1-1 11.5 8.61 8.61 0 0 1-11.9-1 7.94 7.94 0 0 1 1-11.5 8.8 8.8 0 0 1 11.9 1zM1156.2 379.2a9.4 9.4 0 0 1-1.2 13.6 10.37 10.37 0 0 1-14.1-1.1 9.4 9.4 0 0 1 1.2-13.6 10.18 10.18 0 0 1 14.1 1.1zM1198.6 344.4a9.4 9.4 0 0 1-1.2 13.6 10.37 10.37 0 0 1-14.1-1.1 9.41 9.41 0 0 1 1.2-13.6 10.27 10.27 0 0 1 14.1 1.1z" transform="translate(-.26 .1)"/>
  <path class="cls-2" d="M1173.74 359l-12.9 10.5-3.5-4.1 12.8-10.5 3.6 4.1z"/>
  <path class="cls-1" d="M544.2 71.2c-2.9 23.6 13.9 45.7 37.6 49.4a41.56 41.56 0 0 0 48.1-36.1c2.9-23.6-13.9-45.7-37.6-49.4a41.56 41.56 0 0 0-48.1 36.1z" transform="translate(-.26 .1)"/>
  <path class="cls-2" d="M586.5 82.6a4.54 4.54 0 0 1-3.8-5l2.4-19.5a4.13 4.13 0 0 1 4.8-3.6 4.54 4.54 0 0 1 3.8 5L591.3 79a4.17 4.17 0 0 1-4.8 3.6z" transform="translate(-.26 .1)"/>
  <path class="cls-2" d="M617 69.9l-28.6 12.9a4.33 4.33 0 0 1-5.6-2.1 4.1 4.1 0 0 1 1.9-5.5l28.6-12.9a4.33 4.33 0 0 1 5.6 2.1 4 4 0 0 1-1.9 5.5z" transform="translate(-.26 .1)"/>
  <path class="cls-3" d="M558.9 74.8l-8.4-1.3a1.24 1.24 0 0 1-1.1-1.4 1.17 1.17 0 0 1 1.4-1l8.4 1.3a1.24 1.24 0 0 1 1.1 1.4 1.31 1.31 0 0 1-1.4 1zM622.8 84.7l-8.4-1.3a1.24 1.24 0 0 1-1.1-1.4 1.17 1.17 0 0 1 1.4-1l8.4 1.3a1.24 1.24 0 0 1 1.1 1.4 1.22 1.22 0 0 1-1.4 1zM585 104.7l-1 8.4a1.17 1.17 0 0 1-1.4 1 1.24 1.24 0 0 1-1.1-1.4l1-8.4a1.17 1.17 0 0 1 1.4-1 1.3 1.3 0 0 1 1.1 1.4zM592.6 42.3l-1 8.4a1.17 1.17 0 0 1-1.4 1 1.24 1.24 0 0 1-1.1-1.4l1-8.4a1.17 1.17 0 0 1 1.4-1 1.24 1.24 0 0 1 1.1 1.4z" transform="translate(-.26 .1)"/>
  <path class="cls-2" d="M595.1 80.5a8 8 0 0 1-9.2 6.9 8.58 8.58 0 0 1-7.2-9.5 8 8 0 0 1 9.2-6.9 8.58 8.58 0 0 1 7.2 9.5zM573.9 33.8A9.41 9.41 0 0 1 563 42a10.11 10.11 0 0 1-8.5-11.2 9.41 9.41 0 0 1 10.9-8.2 10.13 10.13 0 0 1 8.5 11.2zM628.1 42.2a9.41 9.41 0 0 1-10.9 8.2 10.11 10.11 0 0 1-8.5-11.2 9.41 9.41 0 0 1 10.9-8.2 10.15 10.15 0 0 1 8.5 11.2z" transform="translate(-.26 .1)"/>
  <path class="cls-2" d="M600.64 33.6l-16.4-2.6.6-5.3 16.5 2.5-.7 5.4z"/>
  <path class="cls-1" d="M582.2 184.9a33.78 33.78 0 0 0-47.1.5 31.92 31.92 0 0 0 .2 46 33.78 33.78 0 0 0 47.1-.5 31.92 31.92 0 0 0-.2-46z" transform="translate(-.26 .1)"/>
  <path class="cls-2" d="M556.1 205.7a3.32 3.32 0 0 1 4.7 0l10.8 10.4a3.2 3.2 0 0 1 0 4.6 3.32 3.32 0 0 1-4.7 0l-10.8-10.4a3.2 3.2 0 0 1 0-4.6z" transform="translate(-.26 .1)"/>
  <path class="cls-2" d="M550 230.2l5.1-23.5a3.34 3.34 0 0 1 3.8-2.5 3.16 3.16 0 0 1 2.5 3.7l-5.1 23.5a3.34 3.34 0 0 1-3.8 2.5 3.08 3.08 0 0 1-2.5-3.7z" transform="translate(-.26 .1)"/>
  <path class="cls-3" d="M573.4 192.3l4.6-4.6a.85.85 0 0 1 1.3 0 .85.85 0 0 1 0 1.3l-4.6 4.6a.85.85 0 0 1-1.3 0 .85.85 0 0 1 0-1.3zM538.4 226.9l4.6-4.6a.85.85 0 0 1 1.3 0 .85.85 0 0 1 0 1.3l-4.6 4.6a.85.85 0 0 1-1.3 0 .85.85 0 0 1 0-1.3zM543.3 194.6l-4.7-4.5a.85.85 0 0 1 0-1.3.85.85 0 0 1 1.3 0l4.7 4.5a.85.85 0 0 1 0 1.3 1 1 0 0 1-1.3 0zM577.9 227.9l-4.7-4.5a.85.85 0 0 1 0-1.3.85.85 0 0 1 1.3 0l4.7 4.5a.85.85 0 0 1 0 1.3 1 1 0 0 1-1.3 0z" transform="translate(-.26 .1)"/>
  <path class="cls-2" d="M553.5 211.9a6.1 6.1 0 0 1 0-8.8 6.43 6.43 0 0 1 9-.1 6.1 6.1 0 0 1 0 8.8 6.43 6.43 0 0 1-9 .1zM591.6 220.3a7.25 7.25 0 0 1 0-10.5 7.67 7.67 0 0 1 10.7-.1 7.25 7.25 0 0 1 0 10.5 7.77 7.77 0 0 1-10.7.1zM561.9 249.7a7.25 7.25 0 0 1 0-10.5 7.67 7.67 0 0 1 10.7-.1 7.25 7.25 0 0 1 0 10.5 7.77 7.77 0 0 1-10.7.1z" transform="translate(-.26 .1)"/>
  <path class="cls-2" d="M579.24 237.1l9-9 2.9 2.9-9 8.9-2.9-2.8z"/>
  <path class="cls-1" d="M531.7 423.3a61.54 61.54 0 0 0 85.6 7 58.93 58.93 0 0 0 7.1-84.1 61.54 61.54 0 0 0-85.6-7 58.94 58.94 0 0 0-7.1 84.1z" transform="translate(-.26 .1)"/>
  <path class="cls-2" d="M582.5 389.8a6.24 6.24 0 0 1-8.6-.7L556 368.4a5.91 5.91 0 0 1 .7-8.4 6.24 6.24 0 0 1 8.6.7l17.9 20.7a5.82 5.82 0 0 1-.7 8.4z" transform="translate(-.26 .1)"/>
  <path class="cls-2" d="M597.6 346.1l-13.1 42a5.91 5.91 0 0 1-7.4 3.8 5.72 5.72 0 0 1-3.9-7.2l13.1-42a5.91 5.91 0 0 1 7.4-3.8 5.72 5.72 0 0 1 3.9 7.2z" transform="translate(-.26 .1)"/>
  <path class="cls-3" d="M549 411.4l-9.1 7.6a1.86 1.86 0 0 1-2.5-.2 1.73 1.73 0 0 1 .2-2.4l9.1-7.6a1.86 1.86 0 0 1 2.5.2 1.73 1.73 0 0 1-.2 2.4zM618.2 353.9l-9.1 7.6a1.86 1.86 0 0 1-2.5-.2 1.73 1.73 0 0 1 .2-2.4l9.1-7.6a1.86 1.86 0 0 1 2.5.2 1.73 1.73 0 0 1-.2 2.4zM603.9 412.1l7.7 9a1.73 1.73 0 0 1-.2 2.4 1.86 1.86 0 0 1-2.5-.2l-7.7-9a1.73 1.73 0 0 1 .2-2.4 1.84 1.84 0 0 1 2.5.2zM546.6 345.7l7.7 9a1.73 1.73 0 0 1-.2 2.4 1.86 1.86 0 0 1-2.5-.2l-7.7-9a1.73 1.73 0 0 1 .2-2.4 1.75 1.75 0 0 1 2.5.2z" transform="translate(-.26 .1)"/>
  <path class="cls-2" d="M588.3 378.8a11.25 11.25 0 0 1-1.4 16.1 11.77 11.77 0 0 1-16.4-1.3 11.34 11.34 0 0 1 1.4-16.1 11.78 11.78 0 0 1 16.4 1.3zM523.3 348.8a13.42 13.42 0 0 1-1.6 19.1 14.09 14.09 0 0 1-19.5-1.6 13.42 13.42 0 0 1 1.6-19.1 14.08 14.08 0 0 1 19.5 1.6zM579.2 308.5a13.42 13.42 0 0 1-1.6 19.1 14.09 14.09 0 0 1-19.5-1.6 13.42 13.42 0 0 1 1.6-19.1 14.08 14.08 0 0 1 19.5 1.6z" transform="translate(-.26 .1)"/>
  <path class="cls-2" d="M544.94 328.9l-17.8 14.8-4.9-5.7 17.8-14.8 4.9 5.7z"/>
  <path class="cls-1" d="M659.5 271.2c-9.5 21.8.3 47.8 21.9 58.1a41.59 41.59 0 0 0 56.4-20.9c9.5-21.8-.3-47.8-21.9-58.1a41.61 41.61 0 0 0-56.4 20.9z" transform="translate(-.26 .1)"/>
  <path class="cls-2" d="M696.8 294.2a4.48 4.48 0 0 1-2.2-5.8l7.9-18a4.24 4.24 0 0 1 5.7-2.1 4.48 4.48 0 0 1 2.2 5.8l-7.9 18a4.24 4.24 0 0 1-5.7 2.1z" transform="translate(-.26 .1)"/>
  <path class="cls-2" d="M729.6 290.8l-31.1 4.2a4.18 4.18 0 0 1-4.7-3.6 4.18 4.18 0 0 1 3.5-4.8l31.1-4.2a4.18 4.18 0 0 1 4.7 3.6 4.15 4.15 0 0 1-3.5 4.8z" transform="translate(-.26 .1)"/>
  <path class="cls-3" d="M672.5 278.8l-7.7-3.7a1.29 1.29 0 0 1-.6-1.7 1.2 1.2 0 0 1 1.6-.6l7.7 3.7a1.29 1.29 0 0 1 .6 1.7 1.08 1.08 0 0 1-1.6.6zM730.9 306.6l-7.7-3.7a1.29 1.29 0 0 1-.6-1.7 1.2 1.2 0 0 1 1.6-.6l7.7 3.7a1.29 1.29 0 0 1 .6 1.7 1.14 1.14 0 0 1-1.6.6zM689 315l-3.4 7.8a1.2 1.2 0 0 1-1.6.6 1.29 1.29 0 0 1-.6-1.7l3.4-7.8a1.2 1.2 0 0 1 1.6-.6 1.32 1.32 0 0 1 .6 1.7zM714.2 257.3l-3.4 7.8a1.2 1.2 0 0 1-1.6.6 1.29 1.29 0 0 1-.6-1.7l3.4-7.8a1.2 1.2 0 0 1 1.6-.6 1.35 1.35 0 0 1 .6 1.7z" transform="translate(-.26 .1)"/>
  <path class="cls-2" d="M705.7 294.6a7.93 7.93 0 0 1-10.8 4 8.67 8.67 0 0 1-4.2-11.1 8 8 0 0 1 10.8-4 8.64 8.64 0 0 1 4.2 11.1zM698.7 243.8a9.46 9.46 0 0 1-12.8 4.8 10.26 10.26 0 0 1-5-13.2 9.46 9.46 0 0 1 12.8-4.8 10.17 10.17 0 0 1 5 13.2zM748.2 267.3a9.46 9.46 0 0 1-12.8 4.8 10.26 10.26 0 0 1-5-13.2 9.43 9.43 0 0 1 12.8-4.8 10.2 10.2 0 0 1 5 13.2z" transform="translate(-.26 .1)"/>
  <path class="cls-2" d="M724.34 251.4l-15-7.2 2.2-4.9 15 7.1-2.2 5z"/>
  <path class="cls-1" d="M785.1 440.5c13.2-12.9 13.6-34.4 1-48a32.53 32.53 0 0 0-46.8-1.2c-13.2 12.9-13.6 34.4-1 48a32.53 32.53 0 0 0 46.8 1.2z" transform="translate(-.26 .1)"/>
  <path class="cls-2" d="M764.8 413.2a3.44 3.44 0 0 1-.1 4.8l-10.9 10.6a3.32 3.32 0 0 1-4.7-.1 3.44 3.44 0 0 1 .1-4.8l10.9-10.6a3.32 3.32 0 0 1 4.7.1z" transform="translate(-.26 .1)"/>
  <path class="cls-2" d="M740.1 406.3l23.7 5.9a3.35 3.35 0 0 1 2.4 4 3.14 3.14 0 0 1-3.9 2.4l-23.7-5.9a3.35 3.35 0 0 1-2.4-4 3.14 3.14 0 0 1 3.9-2.4z" transform="translate(-.26 .1)"/>
  <path class="cls-3" d="M777.9 431.3l4.5 4.8a1.06 1.06 0 0 1 0 1.4.85.85 0 0 1-1.3 0l-4.5-4.8a1.06 1.06 0 0 1 0-1.4.85.85 0 0 1 1.3 0zM743.7 394.5l4.5 4.8a1.06 1.06 0 0 1 0 1.4.85.85 0 0 1-1.3 0l-4.5-4.8a1.06 1.06 0 0 1 0-1.4.85.85 0 0 1 1.3 0zM776.5 400.6l4.7-4.6a.85.85 0 0 1 1.3 0 1.06 1.06 0 0 1 0 1.4l-4.7 4.6a.85.85 0 0 1-1.3 0 1 1 0 0 1 0-1.4zM741.6 434.7l4.7-4.6a.85.85 0 0 1 1.3 0 1.06 1.06 0 0 1 0 1.4l-4.7 4.6a.85.85 0 0 1-1.3 0 1 1 0 0 1 0-1.4z" transform="translate(-.26 .1)"/>
  <path class="cls-2" d="M758.5 410.4a6.25 6.25 0 0 1 9 .2 6.58 6.58 0 0 1-.2 9.2 6.25 6.25 0 0 1-9-.2 6.68 6.68 0 0 1 .2-9.2zM748.9 448.9a7.37 7.37 0 0 1 10.6.3 7.82 7.82 0 0 1-.2 10.9 7.37 7.37 0 0 1-10.6-.3 7.82 7.82 0 0 1 .2-10.9zM719.9 417.8a7.37 7.37 0 0 1 10.6.3 7.82 7.82 0 0 1-.2 10.9 7.37 7.37 0 0 1-10.6-.3 7.82 7.82 0 0 1 .2-10.9z" transform="translate(-.26 .1)"/>
  <path class="cls-2" d="M732.04 436.2l8.7 9.4-2.9 3-8.8-9.5 3-2.9z"/>
  <path class="cls-1" d="M839.9 294.2c16.3 2.1 31.8-9 34.5-24.9s-8.3-30.4-24.7-32.6-31.8 9-34.5 24.9 8.4 30.5 24.7 32.6z" transform="translate(-.26 .1)"/>
  <path class="cls-2" d="M848.1 265.9a3.13 3.13 0 0 1-3.5 2.5l-13.5-1.8a2.93 2.93 0 0 1-2.5-3.3 3.13 3.13 0 0 1 3.5-2.5l13.5 1.8a2.85 2.85 0 0 1 2.5 3.3z" transform="translate(-.26 .1)"/>
  <path class="cls-2" d="M839.6 245.3l8.7 19.3a2.87 2.87 0 0 1-1.5 3.7 2.82 2.82 0 0 1-3.8-1.4l-8.7-19.3a2.87 2.87 0 0 1 1.5-3.7 2.91 2.91 0 0 1 3.8 1.4z" transform="translate(-.26 .1)"/>
  <path class="cls-3" d="M842.5 284.4l-1 5.7a.82.82 0 0 1-1 .7.78.78 0 0 1-.7-.9l1-5.7a.82.82 0 0 1 1-.7.78.78 0 0 1 .7.9zM849.9 241.6l-1 5.7a.82.82 0 0 1-1 .7.78.78 0 0 1-.7-.9l1-5.7a.82.82 0 0 1 1-.7.7.7 0 0 1 .7.9zM863.5 267.1l5.8.8a.78.78 0 0 1 .7.9.82.82 0 0 1-1 .7l-5.8-.8a.78.78 0 0 1-.7-.9c0-.4.5-.7 1-.7zM820.2 261.5l5.8.8a.78.78 0 0 1 .7.9.82.82 0 0 1-1 .7l-5.8-.8a.78.78 0 0 1-.7-.9.87.87 0 0 1 1-.7z" transform="translate(-.26 .1)"/>
  <path class="cls-2" d="M846.7 260.1a5.31 5.31 0 0 1 4.7 6.2 6 6 0 0 1-6.6 4.8 5.31 5.31 0 0 1-4.7-6.2 6.05 6.05 0 0 1 6.6-4.8zM814.2 274a6.41 6.41 0 0 1 5.6 7.4 7.14 7.14 0 0 1-7.9 5.7 6.41 6.41 0 0 1-5.6-7.4 7.12 7.12 0 0 1 7.9-5.7zM820.4 237.7a6.41 6.41 0 0 1 5.6 7.4 7.14 7.14 0 0 1-7.9 5.7 6.41 6.41 0 0 1-5.6-7.4 7.1 7.1 0 0 1 7.9-5.7z" transform="translate(-.26 .1)"/>
  <path class="cls-2" d="M813.94 256l-1.9 11-3.7-.5 1.9-11 3.7.5z"/>
  <path class="cls-1" d="M865.8 81.5a44.78 44.78 0 0 0 60.8 12.4A41.74 41.74 0 0 0 939 35c-13.3-19.7-40.6-25.3-60.8-12.4s-25.8 39.2-12.4 58.9z" transform="translate(-.26 .1)"/>
  <path class="cls-2" d="M905.1 62.2A4.55 4.55 0 0 1 899 61l-11-16.2a4.21 4.21 0 0 1 1.2-5.9 4.55 4.55 0 0 1 6.1 1.2l11 16.2a4.13 4.13 0 0 1-1.2 5.9z" transform="translate(-.26 .1)"/>
  <path class="cls-2" d="M919.7 32.6l-13 28.6a4.3 4.3 0 0 1-5.6 2.1 4.23 4.23 0 0 1-2.2-5.5l13-28.6a4.3 4.3 0 0 1 5.6-2.1 4.21 4.21 0 0 1 2.2 5.5z" transform="translate(-.26 .1)"/>
  <path class="cls-3" d="M879.1 74.6l-7.2 4.6a1.17 1.17 0 0 1-1.7-.4 1.19 1.19 0 0 1 .4-1.7l7.2-4.6a1.17 1.17 0 0 1 1.7.4 1.2 1.2 0 0 1-.4 1.7zM933.8 40l-7.2 4.6a1.17 1.17 0 0 1-1.7-.4 1.19 1.19 0 0 1 .4-1.7l7.2-4.6a1.17 1.17 0 0 1 1.7.4 1.3 1.3 0 0 1-.4 1.7zM918.5 79.9l4.8 7a1.19 1.19 0 0 1-.4 1.7 1.17 1.17 0 0 1-1.7-.4l-4.8-7a1.19 1.19 0 0 1 .4-1.7 1.28 1.28 0 0 1 1.7.4zM883.2 27.9l4.8 7a1.19 1.19 0 0 1-.4 1.7 1.17 1.17 0 0 1-1.7-.4l-4.8-7a1.19 1.19 0 0 1 .4-1.7 1.2 1.2 0 0 1 1.7.4z" transform="translate(-.26 .1)"/>
  <path class="cls-2" d="M910.2 54.9a8 8 0 0 1-2.4 11.3 8.6 8.6 0 0 1-11.7-2.4 8 8 0 0 1 2.4-11.3 8.79 8.79 0 0 1 11.7 2.4zM863.4 33.8a9.5 9.5 0 0 1-2.8 13.4 10.25 10.25 0 0 1-13.8-2.8 9.52 9.52 0 0 1 2.8-13.4 10.06 10.06 0 0 1 13.8 2.8zM909.7 4.4a9.5 9.5 0 0 1-2.8 13.4 10.25 10.25 0 0 1-13.8-2.8 9.5 9.5 0 0 1 2.8-13.4 10.15 10.15 0 0 1 13.8 2.8z" transform="translate(-.26 .1)"/>
  <path class="cls-2" d="M883.34 15.9l-14.1 8.9-3-4.5 14-8.9 3.1 4.5z"/>
  <path class="cls-1" d="M976.6 147.4c-23.8-1-44.5 17.5-46.3 41.3a41.66 41.66 0 0 0 39.8 45.1c23.8 1 44.5-17.5 46.3-41.3a41.55 41.55 0 0 0-39.8-45.1z" transform="translate(-.26 .1)"/>
  <path class="cls-2" d="M968.6 190.4a4.42 4.42 0 0 1 4.6-4.1l19.6.9a4.13 4.13 0 0 1 4 4.5 4.42 4.42 0 0 1-4.6 4.1l-19.6-.9a4.08 4.08 0 0 1-4-4.5z" transform="translate(-.26 .1)"/>
  <path class="cls-2" d="M983.5 219.8l-15.1-27.5a4.26 4.26 0 0 1 1.7-5.7 4.11 4.11 0 0 1 5.7 1.5l15.1 27.5a4.26 4.26 0 0 1-1.7 5.7 4.11 4.11 0 0 1-5.7-1.5z" transform="translate(-.26 .1)"/>
  <path class="cls-3" d="M974.1 162.3l.6-8.5a1.3 1.3 0 0 1 1.3-1.2 1.11 1.11 0 0 1 1.1 1.3l-.6 8.5a1.3 1.3 0 0 1-1.3 1.2 1.3 1.3 0 0 1-1.1-1.3zM969.2 226.8l.6-8.5a1.3 1.3 0 0 1 1.3-1.2 1.11 1.11 0 0 1 1.1 1.3l-.6 8.5a1.3 1.3 0 0 1-1.3 1.2 1.38 1.38 0 0 1-1.1-1.3zM946.3 190.7l-8.5-.4a1.11 1.11 0 0 1-1.1-1.3 1.3 1.3 0 0 1 1.3-1.2l8.5.4a1.11 1.11 0 0 1 1.1 1.3 1.31 1.31 0 0 1-1.3 1.2zM1009.2 193.4l-8.5-.4a1.11 1.11 0 0 1-1.1-1.3 1.3 1.3 0 0 1 1.3-1.2l8.5.4a1.11 1.11 0 0 1 1.1 1.3 1.24 1.24 0 0 1-1.3 1.2z" transform="translate(-.26 .1)"/>
  <path class="cls-2" d="M971.3 198.9a7.89 7.89 0 0 1-7.6-8.6 8.67 8.67 0 0 1 8.9-7.9 7.89 7.89 0 0 1 7.6 8.6 8.61 8.61 0 0 1-8.9 7.9zM1016.2 174a9.49 9.49 0 0 1-9.1-10.3 10.23 10.23 0 0 1 10.5-9.4 9.49 9.49 0 0 1 9.1 10.3 10 10 0 0 1-10.5 9.4zM1012.1 228.7a9.49 9.49 0 0 1-9.1-10.3 10.15 10.15 0 0 1 10.5-9.4 9.49 9.49 0 0 1 9.1 10.3 10.23 10.23 0 0 1-10.5 9.4z" transform="translate(-.26 .1)"/>
  <path class="cls-2" d="M1018.34 201l1.3-16.5 5.4.2-1.3 16.6-5.4-.3z"/>
  <path class="cls-1" d="M1060.1 349.9c18.1 2.3 35.1-9.8 38.2-27.2s-9.2-33.3-27.2-35.6-35.1 9.8-38.2 27.2 9.2 33.3 27.2 35.6z" transform="translate(-.26 .1)"/>
  <path class="cls-2" d="M1069.2 318.9a3.37 3.37 0 0 1-3.8 2.7l-14.9-1.9a3.05 3.05 0 0 1-2.7-3.6 3.37 3.37 0 0 1 3.8-2.7l14.9 1.9a3.1 3.1 0 0 1 2.7 3.6z" transform="translate(-.26 .1)"/>
  <path class="cls-2" d="M1059.8 296.4l9.6 21.1a3.16 3.16 0 0 1-1.7 4.1 3.15 3.15 0 0 1-4.2-1.5l-9.6-21.1a3.16 3.16 0 0 1 1.7-4.1 3.15 3.15 0 0 1 4.2 1.5z" transform="translate(-.26 .1)"/>
  <path class="cls-3" d="M1063 339.1l-1.1 6.2a1.08 1.08 0 0 1-1.1.8.89.89 0 0 1-.8-1l1.1-6.2a1.08 1.08 0 0 1 1.1-.8.89.89 0 0 1 .8 1zM1071.2 292.3l-1.1 6.2a1.08 1.08 0 0 1-1.1.8.89.89 0 0 1-.8-1l1.1-6.2a1.08 1.08 0 0 1 1.1-.8.85.85 0 0 1 .8 1zM1086.2 320.2l6.4.8a.89.89 0 0 1 .8 1 1.08 1.08 0 0 1-1.1.8l-6.4-.8a.89.89 0 0 1-.8-1 .89.89 0 0 1 1.1-.8zM1038.4 314l6.4.8a.89.89 0 0 1 .8 1 1.08 1.08 0 0 1-1.1.8l-6.4-.8a.89.89 0 0 1-.8-1 1.08 1.08 0 0 1 1.1-.8z" transform="translate(-.26 .1)"/>
  <path class="cls-2" d="M1067.7 312.5a5.81 5.81 0 0 1 5.2 6.8 6.56 6.56 0 0 1-7.3 5.2 5.92 5.92 0 0 1-5.2-6.8 6.52 6.52 0 0 1 7.3-5.2zM1029.9 323.4a7 7 0 0 1 6.2 8.1 7.89 7.89 0 0 1-8.7 6.2 7 7 0 0 1-6.2-8.1 7.83 7.83 0 0 1 8.7-6.2zM1038.6 288a7 7 0 0 1 6.2 8.1 7.89 7.89 0 0 1-8.7 6.2 7 7 0 0 1-6.2-8.1 7.8 7.8 0 0 1 8.7-6.2z" transform="translate(-.26 .1)"/>
  <path class="cls-2" d="M1031.54 308l-2.1 12-4.1-.5 2.1-12 4.1.5z"/>
  <path class="cls-1" d="M1142.6 139.9c29.9 4.1 59.7-17 66.5-47.3s-11.8-58.2-41.7-62.3-59.7 17-66.5 47.3 11.8 58.1 41.7 62.3z" transform="translate(-.26 .1)"/>
  <path class="cls-2" d="M1161 85.8a6.12 6.12 0 0 1-6.7 4.7l-24.6-3.4a5 5 0 0 1-4.2-6.3 6.12 6.12 0 0 1 6.7-4.7l24.6 3.4a5.12 5.12 0 0 1 4.2 6.3z" transform="translate(-.26 .1)"/>
  <path class="cls-2" d="M1147.7 46.5l13.9 36.9a5.81 5.81 0 0 1-3.2 7.1 5 5 0 0 1-6.9-2.6L1137.6 51a5.81 5.81 0 0 1 3.2-7.1 5 5 0 0 1 6.9 2.6z" transform="translate(-.26 .1)"/>
  <path class="cls-3" d="M1148.5 121.1l-2.4 10.8a1.82 1.82 0 0 1-1.9 1.4 1.4 1.4 0 0 1-1.2-1.8l2.4-10.8a1.82 1.82 0 0 1 1.9-1.4 1.48 1.48 0 0 1 1.2 1.8zM1167.1 39.4l-2.4 10.8a1.82 1.82 0 0 1-1.9 1.4 1.4 1.4 0 0 1-1.2-1.8L1164 39a1.82 1.82 0 0 1 1.9-1.4 1.4 1.4 0 0 1 1.2 1.8zM1189.1 88.2l10.7 1.5a1.4 1.4 0 0 1 1.2 1.8 1.82 1.82 0 0 1-1.9 1.4l-10.7-1.5a1.4 1.4 0 0 1-1.2-1.8 1.82 1.82 0 0 1 1.9-1.4zM1110.2 77.2l10.7 1.5a1.4 1.4 0 0 1 1.2 1.8 1.82 1.82 0 0 1-1.9 1.4l-10.7-1.5a1.4 1.4 0 0 1-1.2-1.8 1.69 1.69 0 0 1 1.9-1.4z" transform="translate(-.26 .1)"/>
  <path class="cls-2" d="M1159.1 74.7a9.58 9.58 0 0 1 8 11.9 11.79 11.79 0 0 1-12.8 9.1c-5.8-.8-9.3-6.1-8-11.9s7.1-9.9 12.8-9.1zM1097.5 101.1c6.8.9 11 7.3 9.5 14.2s-8.3 11.7-15.1 10.8-11-7.3-9.5-14.2 8.4-11.7 15.1-10.8zM1113.3 31.8c6.8.9 11 7.3 9.5 14.2a14 14 0 0 1-15.1 10.8c-6.8-.9-11-7.3-9.5-14.2a13.78 13.78 0 0 1 15.1-10.8z" transform="translate(-.26 .1)"/>
  <path class="cls-2" d="M1099.44 66.6l-4.8 21-6.7-1 4.7-21 6.8 1z"/>
  <path class="cls-1" d="M1270.6 234.3c1.8-23.7-16.1-45-39.9-47.5a41.67 41.67 0 0 0-46.3 38.4c-1.8 23.7 16.1 45 39.9 47.5a41.67 41.67 0 0 0 46.3-38.4z" transform="translate(-.26 .1)"/>
  <path class="cls-2" d="M1227.8 225a4.52 4.52 0 0 1 4 4.8l-1.4 19.6a4.25 4.25 0 0 1-4.6 3.9 4.52 4.52 0 0 1-4-4.8l1.4-19.6a4.08 4.08 0 0 1 4.6-3.9z" transform="translate(-.26 .1)"/>
  <path class="cls-2" d="M1197.9 239.1l27.9-14.3a4.33 4.33 0 0 1 5.7 1.9 4.09 4.09 0 0 1-1.7 5.6l-27.9 14.3a4.33 4.33 0 0 1-5.7-1.9 4.09 4.09 0 0 1 1.7-5.6z" transform="translate(-.26 .1)"/>
  <path class="cls-3" d="M1255.8 231.4l8.5.9a1.24 1.24 0 0 1 1.1 1.4 1.11 1.11 0 0 1-1.3 1.1l-8.5-.9a1.24 1.24 0 0 1-1.1-1.4 1.11 1.11 0 0 1 1.3-1.1zM1191.4 224.6l8.5.9a1.24 1.24 0 0 1 1.1 1.4 1.16 1.16 0 0 1-1.3 1.1l-8.5-.9a1.24 1.24 0 0 1-1.1-1.4 1.21 1.21 0 0 1 1.3-1.1zM1228.2 202.8l.6-8.5a1.16 1.16 0 0 1 1.3-1.1 1.24 1.24 0 0 1 1.1 1.4l-.6 8.5a1.11 1.11 0 0 1-1.3 1.1 1.5 1.5 0 0 1-1.1-1.4zM1223.6 265.5l.6-8.5a1.16 1.16 0 0 1 1.3-1.1 1.24 1.24 0 0 1 1.1 1.4l-.6 8.5a1.11 1.11 0 0 1-1.3 1.1 1.32 1.32 0 0 1-1.1-1.4z" transform="translate(-.26 .1)"/>
  <path class="cls-2" d="M1219.2 227.5a8 8 0 0 1 8.9-7.4 8.68 8.68 0 0 1 7.7 9.1 8 8 0 0 1-8.9 7.4 8.61 8.61 0 0 1-7.7-9.1zM1242.7 273.1a9.4 9.4 0 0 1 10.5-8.7 10.24 10.24 0 0 1 9.1 10.8 9.4 9.4 0 0 1-10.5 8.7 10.18 10.18 0 0 1-9.1-10.8zM1188.2 267.4a9.4 9.4 0 0 1 10.5-8.7 10.24 10.24 0 0 1 9.1 10.8 9.4 9.4 0 0 1-10.5 8.7 10.24 10.24 0 0 1-9.1-10.8z" transform="translate(-.26 .1)"/>
  <path class="cls-2" d="M1215.54 274.8l16.5 1.8-.4 5.3-16.5-1.7.4-5.4z"/>
  <path class="cls-1" d="M737.5 173.5a44.88 44.88 0 0 0 49-38.1 41.65 41.65 0 0 0-36.7-47.7 44.88 44.88 0 0 0-49 38.1 41.61 41.61 0 0 0 36.7 47.7z" transform="translate(-.26 .1)"/>
  <path class="cls-2" d="M748.4 131.1a4.44 4.44 0 0 1-4.9 3.8l-19.5-2.2a4.22 4.22 0 0 1-3.7-4.8 4.44 4.44 0 0 1 4.9-3.8l19.5 2.2a4.2 4.2 0 0 1 3.7 4.8z" transform="translate(-.26 .1)"/>
  <path class="cls-2" d="M735.5 100.8l13.2 28.4a4.24 4.24 0 0 1-2.1 5.6 4.16 4.16 0 0 1-5.6-1.9l-13.2-28.4a4.24 4.24 0 0 1 2.1-5.6 4.16 4.16 0 0 1 5.6 1.9z" transform="translate(-.26 .1)"/>
  <path class="cls-3" d="M740.9 158.8l-1.2 8.4a1.24 1.24 0 0 1-1.4 1.1 1.32 1.32 0 0 1-1.1-1.4l1.2-8.4a1.24 1.24 0 0 1 1.4-1.1 1.28 1.28 0 0 1 1.1 1.4zM750.2 94.8l-1.2 8.4a1.24 1.24 0 0 1-1.4 1.1 1.32 1.32 0 0 1-1.1-1.4l1.2-8.4a1.24 1.24 0 0 1 1.4-1.1 1.37 1.37 0 0 1 1.1 1.4zM770.6 132.4l8.4.9a1.32 1.32 0 0 1 1.1 1.4 1.24 1.24 0 0 1-1.4 1.1l-8.4-.9a1.32 1.32 0 0 1-1.1-1.4 1.24 1.24 0 0 1 1.4-1.1zM708.1 125.4l8.4.9a1.32 1.32 0 0 1 1.1 1.4 1.24 1.24 0 0 1-1.4 1.1l-8.4-.9a1.32 1.32 0 0 1-1.1-1.4 1.32 1.32 0 0 1 1.4-1.1z" transform="translate(-.26 .1)"/>
  <path class="cls-2" d="M746.2 122.5a7.93 7.93 0 0 1 7 9.1 8.7 8.7 0 0 1-9.4 7.3 7.93 7.93 0 0 1-7-9.1 8.7 8.7 0 0 1 9.4-7.3zM699.7 144.3a9.41 9.41 0 0 1 8.3 10.8 10.25 10.25 0 0 1-11.1 8.7 9.41 9.41 0 0 1-8.3-10.8 10.17 10.17 0 0 1 11.1-8.7zM707.5 90a9.41 9.41 0 0 1 8.3 10.8 10.25 10.25 0 0 1-11.1 8.7 9.41 9.41 0 0 1-8.3-10.8 10.25 10.25 0 0 1 11.1-8.7z" transform="translate(-.26 .1)"/>
  <path class="cls-2" d="M698.94 117.4l-2.4 16.4-5.4-.6 2.4-16.4 5.4.6z"/>
  <path class="cls-1" d="M960.9 390.9c1.2-23.8-17.1-44.6-41-46.6a41.63 41.63 0 0 0-45.4 39.5c-1.2 23.8 17.1 44.6 41 46.6s44.2-15.7 45.4-39.5z" transform="translate(-.26 .1)"/>
  <path class="cls-2" d="M917.9 382.6a4.52 4.52 0 0 1 4.1 4.7l-1 19.6a4.22 4.22 0 0 1-4.6 4 4.52 4.52 0 0 1-4.1-4.7l1-19.6a4.28 4.28 0 0 1 4.6-4z" transform="translate(-.26 .1)"/>
  <path class="cls-2" d="M888.4 397.3l27.6-14.9a4.26 4.26 0 0 1 5.7 1.7 4.22 4.22 0 0 1-1.6 5.7l-27.6 14.9a4.26 4.26 0 0 1-5.7-1.7 4.22 4.22 0 0 1 1.6-5.7z" transform="translate(-.26 .1)"/>
  <path class="cls-3" d="M946 388.4l8.5.7a1.38 1.38 0 0 1 1.2 1.3 1.11 1.11 0 0 1-1.3 1.1l-8.5-.7a1.38 1.38 0 0 1-1.2-1.3 1.21 1.21 0 0 1 1.3-1.1zM881.6 383l8.5.7a1.38 1.38 0 0 1 1.2 1.3 1.11 1.11 0 0 1-1.3 1.1l-8.5-.7a1.38 1.38 0 0 1-1.2-1.3 1.11 1.11 0 0 1 1.3-1.1zM917.9 360.4l.4-8.5a1.11 1.11 0 0 1 1.3-1.1 1.38 1.38 0 0 1 1.2 1.3l-.4 8.5a1.11 1.11 0 0 1-1.3 1.1c-.7-.1-1.3-.7-1.2-1.3zM914.6 423.2l.4-8.5a1.11 1.11 0 0 1 1.3-1.1 1.38 1.38 0 0 1 1.2 1.3l-.4 8.5a1.11 1.11 0 0 1-1.3 1.1 1.24 1.24 0 0 1-1.2-1.3z" transform="translate(-.26 .1)"/>
  <path class="cls-2" d="M909.5 385.3a8 8 0 0 1 8.7-7.6 8.66 8.66 0 0 1 7.9 8.9 8 8 0 0 1-8.7 7.6 8.52 8.52 0 0 1-7.9-8.9zM933.9 430.4a9.52 9.52 0 0 1 10.3-9 10.16 10.16 0 0 1 9.3 10.6 9.52 9.52 0 0 1-10.3 9 10.3 10.3 0 0 1-9.3-10.6zM879.3 425.8a9.52 9.52 0 0 1 10.3-9 10.16 10.16 0 0 1 9.3 10.6 9.52 9.52 0 0 1-10.3 9 10.16 10.16 0 0 1-9.3-10.6z" transform="translate(-.26 .1)"/>
  <path class="cls-2" d="M906.74 432.7l16.6 1.3-.3 5.4-16.5-1.4.2-5.3z"/>
  <path class="cls-1" d="M405.1 169.2a41.15 41.15 0 0 0 4.3-57.7 40.28 40.28 0 0 0-57.2-4.3 41.15 41.15 0 0 0-4.3 57.7 40.37 40.37 0 0 0 57.2 4.3z" transform="translate(-.26 .1)"/>
  <path class="cls-2" d="M382 135.2a4.12 4.12 0 0 1-.4 5.8l-14 12.1a4 4 0 0 1-5.7-.4 4.12 4.12 0 0 1 .4-5.8l14-12.1a4 4 0 0 1 5.7.4z" transform="translate(-.26 .1)"/>
  <path class="cls-2" d="M352.2 125.3l28.6 8.6a4 4 0 0 1 2.7 4.9 4 4 0 0 1-4.9 2.7l-28.6-8.6a4 4 0 0 1-2.7-4.9 3.81 3.81 0 0 1 4.9-2.7z" transform="translate(-.26 .1)"/>
  <path class="cls-3" d="M396.9 157.7l5.2 6.1a1.24 1.24 0 0 1-.1 1.7 1.12 1.12 0 0 1-1.6-.1l-5.2-6.1a1.24 1.24 0 0 1 .1-1.7 1 1 0 0 1 1.6.1zM357.4 111.4l5.2 6.1a1.24 1.24 0 0 1-.1 1.7 1.12 1.12 0 0 1-1.6-.1l-5.2-6.1a1.24 1.24 0 0 1 .1-1.7 1 1 0 0 1 1.6.1zM397.1 120.6l6.1-5.3a1.12 1.12 0 0 1 1.6.1 1.24 1.24 0 0 1-.1 1.7l-6.1 5.3a1.12 1.12 0 0 1-1.6-.1 1.16 1.16 0 0 1 .1-1.7zM352.2 159.6l6.1-5.3a1.12 1.12 0 0 1 1.6.1 1.24 1.24 0 0 1-.1 1.7l-6.1 5.3a1.12 1.12 0 0 1-1.6-.1 1.15 1.15 0 0 1 .1-1.7z" transform="translate(-.26 .1)"/>
  <path class="cls-2" d="M374.5 131.4a7.77 7.77 0 0 1 11 .8 8 8 0 0 1-.8 11.1 7.77 7.77 0 0 1-11-.8 7.89 7.89 0 0 1 .8-11.1zM360.2 177.1a9.11 9.11 0 0 1 13 1 9.32 9.32 0 0 1-1 13.1 9.11 9.11 0 0 1-13-1 9.33 9.33 0 0 1 1-13.1zM326.7 137.9a9.11 9.11 0 0 1 13 1 9.32 9.32 0 0 1-1 13.1 9.11 9.11 0 0 1-13-1 9.41 9.41 0 0 1 1-13.1z" transform="translate(-.26 .1)"/>
  <path class="cls-2" d="M340.44 160.8l10.2 11.9-3.9 3.3-10.1-11.9 3.8-3.3z"/>
  <path class="cls-1" d="M71 749.8c22.6 2.5 43.5-13.3 46.9-35.4s-12.3-42-34.9-44.5-43.5 13.3-46.9 35.4 12.4 42 34.9 44.5z" transform="translate(-.26 .1)"/>
  <path class="cls-2" d="M81.5 710.3a4.33 4.33 0 0 1-4.7 3.6l-18.6-2.1a4 4 0 0 1-3.5-4.5 4.33 4.33 0 0 1 4.7-3.6l18.6 2.1a3.9 3.9 0 0 1 3.5 4.5z" transform="translate(-.26 .1)"/>
  <path class="cls-2" d="M69.3 682l12.6 26.5a4 4 0 0 1-2 5.2 4 4 0 0 1-5.3-1.8L62 685.4a4 4 0 0 1 2-5.2 4 4 0 0 1 5.3 1.8z" transform="translate(-.26 .1)"/>
  <path class="cls-3" d="M74.3 736.1l-1.2 7.9a1.2 1.2 0 0 1-1.3 1 1.15 1.15 0 0 1-1-1.3l1.2-7.9a1.2 1.2 0 0 1 1.3-1 1.13 1.13 0 0 1 1 1.3zM83.3 676.5l-1.2 7.9a1.2 1.2 0 0 1-1.3 1 1.15 1.15 0 0 1-1-1.3l1.2-7.9a1.2 1.2 0 0 1 1.3-1 1.13 1.13 0 0 1 1 1.3zM102.7 711.5l8 .9a1.15 1.15 0 0 1 1 1.3 1.2 1.2 0 0 1-1.3 1l-8-.9a1.15 1.15 0 0 1-1-1.3 1.3 1.3 0 0 1 1.3-1zM43.1 704.9l8 .9a1.15 1.15 0 0 1 1 1.3 1.2 1.2 0 0 1-1.3 1l-8-.9a1.15 1.15 0 0 1-1-1.3 1.1 1.1 0 0 1 1.3-1z" transform="translate(-.26 .1)"/>
  <path class="cls-2" d="M79.5 702.3a7.51 7.51 0 0 1 6.7 8.5 8.21 8.21 0 0 1-9 6.8 7.51 7.51 0 0 1-6.7-8.5 8.08 8.08 0 0 1 9-6.8zM35.1 722.4a8.83 8.83 0 0 1 7.9 10.1 9.69 9.69 0 0 1-10.7 8 8.76 8.76 0 0 1-7.9-10.1 9.69 9.69 0 0 1 10.7-8zM42.7 671.9a8.83 8.83 0 0 1 7.9 10.1 9.69 9.69 0 0 1-10.7 8 8.76 8.76 0 0 1-7.9-10.1 9.69 9.69 0 0 1 10.7-8z" transform="translate(-.26 .1)"/>
  <path class="cls-2" d="M34.34 697.4l-2.3 15.3-5.1-.6 2.3-15.3 5.1.6z"/>
  <ellipse class="cls-1" cx="201.58" cy="735.15" rx="31" ry="31.2" transform="rotate(-45.88 201.519 735.438)"/>
  <path class="cls-2" d="M199.2 737.7a3.14 3.14 0 0 1-.1-4.4l9.8-10.1a3.14 3.14 0 0 1 4.4-.1 3.14 3.14 0 0 1 .1 4.4l-9.8 10.1a3.14 3.14 0 0 1-4.4.1z" transform="translate(-.26 .1)"/>
  <path class="cls-2" d="M222.6 743.2l-22.4-4.6a3.09 3.09 0 0 1-2.4-3.6 2.9 2.9 0 0 1 3.5-2.3l22.4 4.6a3.09 3.09 0 0 1 2.4 3.6 3 3 0 0 1-3.5 2.3z" transform="translate(-.26 .1)"/>
  <path class="cls-3" d="M186.3 721.7l-4.4-4.3a.85.85 0 0 1 0-1.3.85.85 0 0 1 1.3 0l4.4 4.3a.85.85 0 0 1 0 1.3 1 1 0 0 1-1.3 0zM219.6 754.1l-4.4-4.3a.85.85 0 0 1 0-1.3.85.85 0 0 1 1.3 0l4.4 4.3a.85.85 0 0 1 0 1.3 1 1 0 0 1-1.3 0zM188.7 749.7l-4.2 4.4a.85.85 0 0 1-1.3 0 .85.85 0 0 1 0-1.3l4.2-4.4a.85.85 0 0 1 1.3 0 .85.85 0 0 1 0 1.3zM220.2 717.2l-4.2 4.4a.85.85 0 0 1-1.3 0 .85.85 0 0 1 0-1.3l4.2-4.4a.85.85 0 0 1 1.3 0 .85.85 0 0 1 0 1.3z" transform="translate(-.26 .1)"/>
  <ellipse class="cls-2" cx="200.88" cy="735.9" rx="5.9" ry="6" transform="rotate(-45.88 200.825 736.19)"/>
  <ellipse class="cls-2" cx="207.78" cy="699.57" rx="7" ry="7.1" transform="rotate(-45.88 207.727 699.87)"/>
  <ellipse class="cls-2" cx="236.05" cy="726.97" rx="7" ry="7.1" transform="rotate(-45.88 235.986 727.265)"/>
  <path class="cls-2" transform="rotate(-45.88 225.832 710.346)" d="M223.95 704.1h3.9V716h-3.9z"/>
  <path class="cls-1" d="M410.7 741.7a56.5 56.5 0 0 0 6-79.9 57.16 57.16 0 0 0-80.3-6 56.5 56.5 0 0 0-6 79.9 57.17 57.17 0 0 0 80.3 6z" transform="translate(-.26 .1)"/>
  <path class="cls-2" d="M378.3 694.7a5.68 5.68 0 0 1-.6 8l-19.6 16.8a5.81 5.81 0 0 1-8.1-.6 5.68 5.68 0 0 1 .6-8l19.6-16.8a5.71 5.71 0 0 1 8.1.6z" transform="translate(-.26 .1)"/>
  <path class="cls-2" d="M336.6 680.9l40.1 11.9a5.46 5.46 0 0 1 3.7 6.8 5.56 5.56 0 0 1-6.9 3.7l-40.1-11.9a5.46 5.46 0 0 1-3.7-6.8 5.52 5.52 0 0 1 6.9-3.7z" transform="translate(-.26 .1)"/>
  <path class="cls-3" d="M399.2 725.8l7.3 8.5a1.61 1.61 0 0 1-.2 2.3 1.61 1.61 0 0 1-2.3-.2l-7.3-8.5a1.61 1.61 0 0 1 .2-2.3 1.61 1.61 0 0 1 2.3.2zM343.9 661.7l7.3 8.5a1.61 1.61 0 0 1-.2 2.3 1.61 1.61 0 0 1-2.3-.2l-7.3-8.5a1.61 1.61 0 0 1 .2-2.3 1.61 1.61 0 0 1 2.3.2zM399.5 674.5l8.5-7.3a1.61 1.61 0 0 1 2.3.2 1.61 1.61 0 0 1-.2 2.3l-8.5 7.3a1.61 1.61 0 0 1-2.3-.2 1.61 1.61 0 0 1 .2-2.3zM336.5 728.4l8.5-7.3a1.61 1.61 0 0 1 2.3.2 1.61 1.61 0 0 1-.2 2.3l-8.5 7.3a1.61 1.61 0 0 1-2.3-.2 1.61 1.61 0 0 1 .2-2.3z" transform="translate(-.26 .1)"/>
  <path class="cls-2" d="M367.8 689.4a11 11 0 0 1 15.4 1.1 10.81 10.81 0 0 1-1.2 15.3 11 11 0 0 1-15.4-1.1 10.8 10.8 0 0 1 1.2-15.3zM339.7 750.2a13.08 13.08 0 0 1 18.3 1.4 12.87 12.87 0 0 1-1.4 18.2 13.08 13.08 0 0 1-18.3-1.4 12.86 12.86 0 0 1 1.4-18.2zM300.8 698.4a13.08 13.08 0 0 1 18.3 1.4 12.95 12.95 0 1 1-18.3-1.4z" transform="translate(-.26 .1)"/>
  <path class="cls-2" d="M320.14 730l14.2 16.5-5.3 4.6-14.3-16.5 5.4-4.6z"/>
  <path class="cls-1" d="M261 640.8c20.9 8.7 45.6-.6 55.3-20.8s.5-43.7-20.4-52.4-45.6.6-55.3 20.8-.5 43.7 20.4 52.4z" transform="translate(-.26 .1)"/>
  <path class="cls-2" d="M282.6 605.9a4.34 4.34 0 0 1-5.5 2.1l-17.2-7.2a3.84 3.84 0 0 1-2-5.3 4.34 4.34 0 0 1 5.5-2.1l17.2 7.2a3.92 3.92 0 0 1 2 5.3z" transform="translate(-.26 .1)"/>
  <path class="cls-2" d="M279.1 575.3l4.3 28.9a3.92 3.92 0 0 1-3.4 4.4 4 4 0 0 1-4.6-3.2l-4.3-28.9a3.92 3.92 0 0 1 3.4-4.4 3.94 3.94 0 0 1 4.6 3.2z" transform="translate(-.26 .1)"/>
  <path class="cls-3" d="M268.1 628.6l-3.4 7.2a1.3 1.3 0 0 1-1.6.6 1.07 1.07 0 0 1-.6-1.5l3.4-7.2a1.3 1.3 0 0 1 1.6-.6 1.07 1.07 0 0 1 .6 1.5zM294.2 574l-3.4 7.2a1.3 1.3 0 0 1-1.6.6 1.07 1.07 0 0 1-.6-1.5l3.4-7.2a1.3 1.3 0 0 1 1.6-.6 1.07 1.07 0 0 1 .6 1.5zM302.5 613l7.4 3.1a1.07 1.07 0 0 1 .6 1.5 1.3 1.3 0 0 1-1.6.6l-7.4-3.1a1.07 1.07 0 0 1-.6-1.5 1.2 1.2 0 0 1 1.6-.6zM247.3 589.9l7.4 3.1a1.07 1.07 0 0 1 .6 1.5 1.3 1.3 0 0 1-1.6.6l-7.4-3.1a1.07 1.07 0 0 1-.6-1.5 1.42 1.42 0 0 1 1.6-.6z" transform="translate(-.26 .1)"/>
  <path class="cls-2" d="M282.9 597.6a7.31 7.31 0 0 1 3.9 10 8.24 8.24 0 0 1-10.6 4 7.31 7.31 0 0 1-3.9-10 8.37 8.37 0 0 1 10.6-4zM234.5 604.5a8.74 8.74 0 0 1 4.6 11.9 9.83 9.83 0 0 1-12.6 4.7 8.74 8.74 0 0 1-4.6-11.9 9.86 9.86 0 0 1 12.6-4.7zM256.6 558.2a8.74 8.74 0 0 1 4.6 11.9 9.83 9.83 0 0 1-12.6 4.7 8.74 8.74 0 0 1-4.6-11.9 9.83 9.83 0 0 1 12.6-4.7z" transform="translate(-.26 .1)"/>
  <path class="cls-2" d="M241.14 580.4l-6.7 14-4.7-2 6.7-14 4.7 2z"/>
  <path class="cls-1" d="M432.7 505.1a29.28 29.28 0 0 0-41.8-.5 30.28 30.28 0 0 0-.7 42.4 29.28 29.28 0 0 0 41.8.5 30.28 30.28 0 0 0 .7-42.4z" transform="translate(-.26 .1)"/>
  <path class="cls-2" d="M409.1 523.7a2.9 2.9 0 0 1 4.2.1l9.3 9.8a3.11 3.11 0 0 1-.1 4.3 2.9 2.9 0 0 1-4.2-.1L409 528a3.11 3.11 0 0 1 .1-4.3z" transform="translate(-.26 .1)"/>
  <path class="cls-2" d="M403.2 546.2l5-21.5a2.9 2.9 0 0 1 3.4-2.2 2.89 2.89 0 0 1 2.1 3.5l-5 21.5a2.9 2.9 0 0 1-3.4 2.2 2.94 2.94 0 0 1-2.1-3.5z" transform="translate(-.26 .1)"/>
  <path class="cls-3" d="M424.7 511.7l4.2-4.1a.91.91 0 0 1 1.2 0 .91.91 0 0 1 0 1.2l-4.2 4.1a.91.91 0 0 1-1.2 0 .91.91 0 0 1 0-1.2zM393 543l4.2-4.1a.91.91 0 0 1 1.2 0 .91.91 0 0 1 0 1.2l-4.2 4.1a.91.91 0 0 1-1.2 0 .75.75 0 0 1 0-1.2zM398 513.3l-4-4.2a.91.91 0 0 1 0-1.2.91.91 0 0 1 1.2 0l4 4.2a.91.91 0 0 1 0 1.2.91.91 0 0 1-1.2 0zM428 544.6l-4-4.2a.91.91 0 0 1 0-1.2.91.91 0 0 1 1.2 0l4 4.2a.91.91 0 0 1 0 1.2.91.91 0 0 1-1.2 0z" transform="translate(-.26 .1)"/>
  <path class="cls-2" d="M406.7 529.5a5.8 5.8 0 0 1 .1-8.1 5.59 5.59 0 0 1 8 .1 5.8 5.8 0 0 1-.1 8.1 5.67 5.67 0 0 1-8-.1zM440.2 537.9a6.79 6.79 0 0 1 .2-9.6 6.67 6.67 0 0 1 9.5.1 6.79 6.79 0 0 1-.2 9.6 6.67 6.67 0 0 1-9.5-.1zM413.3 564.4a6.79 6.79 0 0 1 .2-9.6 6.67 6.67 0 0 1 9.5.1 6.79 6.79 0 0 1-.2 9.6 6.67 6.67 0 0 1-9.5-.1z" transform="translate(-.26 .1)"/>
  <path class="cls-2" d="M428.94 553.1l8.2-8 2.5 2.7-8.1 8-2.6-2.7z"/>
  <path class="cls-1" d="M281.6 472.5a28.92 28.92 0 0 0-24-32 26.7 26.7 0 0 0-30.9 23.2 28.92 28.92 0 0 0 24 32 26.61 26.61 0 0 0 30.9-23.2z" transform="translate(-.26 .1)"/>
  <path class="cls-2" d="M254.5 465.1a2.89 2.89 0 0 1 2.4 3.2l-1.6 12.6a2.65 2.65 0 0 1-3.1 2.3 2.89 2.89 0 0 1-2.4-3.2l1.6-12.6a2.65 2.65 0 0 1 3.1-2.3z" transform="translate(-.26 .1)"/>
  <path class="cls-2" d="M234.9 473.2l18.4-8.3a2.78 2.78 0 0 1 3.6 1.4 2.67 2.67 0 0 1-1.3 3.6l-18.4 8.3a2.78 2.78 0 0 1-3.6-1.4 2.76 2.76 0 0 1 1.3-3.6z" transform="translate(-.26 .1)"/>
  <path class="cls-3" d="M272.2 470.2l5.4.9a1 1 0 0 1 .7.9 1 1 0 0 1-.9.7l-5.4-.9a1 1 0 0 1-.7-.9.78.78 0 0 1 .9-.7zM231.2 463.6l5.4.9a1 1 0 0 1 .7.9 1 1 0 0 1-.9.7l-5.4-.9a1 1 0 0 1-.7-.9.78.78 0 0 1 .9-.7zM255.5 450.8l.7-5.4a1 1 0 0 1 .9-.7 1 1 0 0 1 .7.9l-.7 5.4a1 1 0 0 1-.9.7 1 1 0 0 1-.7-.9zM250.5 491.1l.7-5.4a1 1 0 0 1 .9-.7 1 1 0 0 1 .7.9l-.7 5.4a1 1 0 0 1-.9.7.78.78 0 0 1-.7-.9z" transform="translate(-.26 .1)"/>
  <path class="cls-2" d="M248.9 466.4a5.21 5.21 0 0 1 5.9-4.5 5.53 5.53 0 0 1 4.6 6.1 5.21 5.21 0 0 1-5.9 4.5 5.55 5.55 0 0 1-4.6-6.1zM262.5 496.6a6.08 6.08 0 0 1 7-5.3 6.66 6.66 0 0 1 5.5 7.3 6.08 6.08 0 0 1-7 5.3 6.56 6.56 0 0 1-5.5-7.3zM227.8 491.1a6.08 6.08 0 0 1 7-5.3 6.72 6.72 0 0 1 5.5 7.3 6.08 6.08 0 0 1-7 5.3 6.62 6.62 0 0 1-5.5-7.3z" transform="translate(-.26 .1)"/>
  <path class="cls-2" d="M244.84 496.8l10.6 1.7-.5 3.5-10.5-1.7.4-3.5z"/>
  <path class="cls-1" d="M78.4 450.1a41.22 41.22 0 0 0 11.4-56.8 40.37 40.37 0 0 0-56.3-11.1A41.22 41.22 0 0 0 22.1 439a40.38 40.38 0 0 0 56.3 11.1z" transform="translate(-.26 .1)"/>
  <path class="cls-2" d="M59.7 413.6a4.25 4.25 0 0 1-1.1 5.7l-15.4 10.4a3.93 3.93 0 0 1-5.6-1.1 4.25 4.25 0 0 1 1.1-5.7l15.4-10.4a4 4 0 0 1 5.6 1.1z" transform="translate(-.26 .1)"/>
  <path class="cls-2" d="M31.4 400.2l27.3 11.9a3.92 3.92 0 0 1 2 5.2 4 4 0 0 1-5.2 2.1l-27.3-11.9a3.92 3.92 0 0 1-2-5.2 3.88 3.88 0 0 1 5.2-2.1z" transform="translate(-.26 .1)"/>
  <path class="cls-3" d="M71.7 437.6l4.4 6.7a1.13 1.13 0 0 1-.3 1.6 1.13 1.13 0 0 1-1.6-.3l-4.4-6.7a1.13 1.13 0 0 1 .3-1.6 1.25 1.25 0 0 1 1.6.3zM38.3 387l4.4 6.7a1.13 1.13 0 0 1-.3 1.6 1.13 1.13 0 0 1-1.6-.3l-4.4-6.7a1.13 1.13 0 0 1 .3-1.6 1.15 1.15 0 0 1 1.6.3zM76.5 400.9l6.7-4.5a1.13 1.13 0 0 1 1.6.3 1.13 1.13 0 0 1-.3 1.6l-6.7 4.5a1.13 1.13 0 0 1-1.6-.3 1.07 1.07 0 0 1 .3-1.6zM27.1 434.3l6.7-4.5a1.13 1.13 0 0 1 1.6.3 1.13 1.13 0 0 1-.3 1.6l-6.7 4.5a1.13 1.13 0 0 1-1.6-.3 1.11 1.11 0 0 1 .3-1.6z" transform="translate(-.26 .1)"/>
  <path class="cls-2" d="M52.7 408.9a7.74 7.74 0 0 1 10.8 2.1 7.88 7.88 0 0 1-2.2 10.9 7.74 7.74 0 0 1-10.8-2.1 8 8 0 0 1 2.2-10.9zM32.9 452.6a9.19 9.19 0 0 1 12.8 2.5 9.35 9.35 0 0 1-2.6 12.9 9.17 9.17 0 0 1-12.8-2.5 9.35 9.35 0 0 1 2.6-12.9zM4.5 409.7a9.19 9.19 0 0 1 12.8 2.5 9.35 9.35 0 0 1-2.6 12.9 9.17 9.17 0 0 1-12.8-2.5 9.42 9.42 0 0 1 2.6-12.9z" transform="translate(-.26 .1)"/>
  <path class="cls-2" d="M15.34 434.1l8.6 13-4.3 2.8-8.6-13 4.3-2.8z"/>
  <path class="cls-1" d="M125.8 337.9c-1.1 29.5 23.4 55.1 54.8 57.1s57.7-20.3 58.9-49.9-23.4-55.1-54.8-57.1-57.8 20.3-58.9 49.9z" transform="translate(-.26 .1)"/>
  <path class="cls-2" d="M182.5 347.4a5.79 5.79 0 0 1-5.5-5.7l.9-24.3a5.37 5.37 0 0 1 5.9-5 5.79 5.79 0 0 1 5.5 5.7l-.9 24.3a5.5 5.5 0 0 1-5.9 5z" transform="translate(-.26 .1)"/>
  <path class="cls-2" d="M220.9 328.5l-36 19.1a5.87 5.87 0 0 1-7.6-2 5 5 0 0 1 1.9-7.1l36-19.1a5.87 5.87 0 0 1 7.6 2 4.89 4.89 0 0 1-1.9 7.1z" transform="translate(-.26 .1)"/>
  <path class="cls-3" d="M145.4 340.7l-11.2-.7a1.72 1.72 0 0 1-1.6-1.6 1.51 1.51 0 0 1 1.7-1.4l11.2.7a1.72 1.72 0 0 1 1.6 1.6 1.57 1.57 0 0 1-1.7 1.4zM230.2 346.1l-11.2-.7a1.72 1.72 0 0 1-1.6-1.6 1.51 1.51 0 0 1 1.7-1.4l11.2.7a1.72 1.72 0 0 1 1.6 1.6 1.57 1.57 0 0 1-1.7 1.4zM183 374.9l-.4 10.5a1.51 1.51 0 0 1-1.7 1.4 1.72 1.72 0 0 1-1.6-1.6l.4-10.5a1.51 1.51 0 0 1 1.7-1.4 1.64 1.64 0 0 1 1.6 1.6zM185.9 296.9l-.4 10.5a1.51 1.51 0 0 1-1.7 1.4 1.72 1.72 0 0 1-1.6-1.6l.4-10.5a1.51 1.51 0 0 1 1.7-1.4 1.58 1.58 0 0 1 1.6 1.6z" transform="translate(-.26 .1)"/>
  <path class="cls-2" d="M193.5 343.8c-.2 5.7-5.3 9.9-11.3 9.6s-10.7-5.3-10.5-10.9 5.3-9.9 11.3-9.6a10.84 10.84 0 0 1 10.5 10.9zM160.4 288.3c-.3 6.7-6.2 11.8-13.4 11.3s-12.7-6.3-12.5-13 6.2-11.8 13.4-11.3 12.8 6.3 12.5 13zM232.3 292.9c-.3 6.7-6.2 11.8-13.4 11.3s-12.7-6.3-12.5-13 6.2-11.8 13.4-11.3 12.8 6.3 12.5 13z" transform="translate(-.26 .1)"/>
  <path class="cls-2" d="M195.44 285.2l-21.8-1.4.3-6.7 21.8 1.4-.3 6.7z"/>
  <path class="cls-1" d="M317 229.8c2.1-16.8-9.7-32.7-26.2-35.3s-31.7 8.8-33.8 25.7 9.7 32.7 26.2 35.3 31.7-8.8 33.8-25.7z" transform="translate(-.26 .1)"/>
  <path class="cls-2" d="M287.3 221.6a3.19 3.19 0 0 1 2.6 3.5l-1.7 13.9a3 3 0 0 1-3.4 2.6 3.19 3.19 0 0 1-2.6-3.5l1.7-13.9a3.09 3.09 0 0 1 3.4-2.6z" transform="translate(-.26 .1)"/>
  <path class="cls-2" d="M265.9 230.5l20.1-9.2a2.93 2.93 0 0 1 3.9 1.5 2.85 2.85 0 0 1-1.4 3.9l-20.1 9.2a2.93 2.93 0 0 1-3.9-1.5 3.1 3.1 0 0 1 1.4-3.9z" transform="translate(-.26 .1)"/>
  <path class="cls-3" d="M306.7 227.2l5.9 1a1 1 0 0 1 .8 1 .82.82 0 0 1-1 .7l-5.9-1a1 1 0 0 1-.8-1 1 1 0 0 1 1-.7zM261.9 220l5.9 1a1 1 0 0 1 .8 1 .82.82 0 0 1-1 .7l-5.9-1a1 1 0 0 1-.8-1 .87.87 0 0 1 1-.7zM288.5 205.8l.7-6a.82.82 0 0 1 1-.7 1 1 0 0 1 .8 1l-.7 6a.82.82 0 0 1-1 .7.89.89 0 0 1-.8-1zM283 250.3l.7-6a.82.82 0 0 1 1-.7 1 1 0 0 1 .8 1l-.7 6a.82.82 0 0 1-1 .7.8.8 0 0 1-.8-1z" transform="translate(-.26 .1)"/>
  <path class="cls-2" d="M281.3 223.1a5.63 5.63 0 0 1 6.5-4.9 6.06 6.06 0 0 1 5 6.8 5.63 5.63 0 0 1-6.5 4.9 6.12 6.12 0 0 1-5-6.8zM292 258.3a6.66 6.66 0 0 1 7.7-5.8 7.3 7.3 0 0 1 6 8 6.66 6.66 0 0 1-7.7 5.8 7.22 7.22 0 0 1-6-8zM258.1 250.4a6.66 6.66 0 0 1 7.7-5.8 7.3 7.3 0 0 1 6 8 6.66 6.66 0 0 1-7.7 5.8 7.22 7.22 0 0 1-6-8z" transform="translate(-.26 .1)"/>
  <path class="cls-2" d="M276.84 256.7l11.5 1.9-.4 3.8-11.5-1.9.4-3.8z"/>
  <path class="cls-1" d="M132 191.6c3.7-27.9-16.7-55.5-45.6-61.6S31 141.4 27.3 169.3s16.7 55.5 45.6 61.6 55.4-11.4 59.1-39.3z" transform="translate(-.26 .1)"/>
  <path class="cls-2" d="M80.3 174.9a5.76 5.76 0 0 1 4.6 6.2l-3.1 23a4.68 4.68 0 0 1-5.9 3.9 5.76 5.76 0 0 1-4.6-6.2l3.1-23c.3-2.8 3-4.5 5.9-3.9z" transform="translate(-.26 .1)"/>
  <path class="cls-2" d="M42.9 187.6L78 174.4a5.54 5.54 0 0 1 6.8 3 4.59 4.59 0 0 1-2.4 6.4L47.3 197a5.54 5.54 0 0 1-6.8-3 4.46 4.46 0 0 1 2.4-6.4z" transform="translate(-.26 .1)"/>
  <path class="cls-3" d="M114.1 186.2l10.3 2.2a1.72 1.72 0 0 1 1.3 1.8 1.35 1.35 0 0 1-1.7 1.1l-10.3-2.2a1.72 1.72 0 0 1-1.3-1.8 1.49 1.49 0 0 1 1.7-1.1zM35.9 169.5l10.3 2.2a1.72 1.72 0 0 1 1.3 1.8 1.35 1.35 0 0 1-1.7 1.1l-10.3-2.2a1.72 1.72 0 0 1-1.3-1.8 1.49 1.49 0 0 1 1.7-1.1zM82.3 148.6l1.3-9.9a1.35 1.35 0 0 1 1.7-1.1 1.72 1.72 0 0 1 1.3 1.8l-1.3 9.9a1.35 1.35 0 0 1-1.7 1.1 1.72 1.72 0 0 1-1.3-1.8zM72.5 222.3l1.3-9.9a1.35 1.35 0 0 1 1.7-1.1 1.72 1.72 0 0 1 1.3 1.8l-1.3 9.9a1.35 1.35 0 0 1-1.7 1.1 1.72 1.72 0 0 1-1.3-1.8z" transform="translate(-.26 .1)"/>
  <path class="cls-2" d="M69.7 176.7c.7-5.3 5.8-8.7 11.3-7.5s9.5 6.5 8.7 11.8-5.8 8.7-11.3 7.5a10.91 10.91 0 0 1-8.7-11.8zM95.4 233.9c.8-6.3 6.9-10.3 13.4-8.9s11.2 7.7 10.4 14-6.9 10.3-13.4 8.9-11.3-7.7-10.4-14zM29.1 219.8c.8-6.3 6.9-10.3 13.4-8.9s11.2 7.7 10.4 14-6.9 10.3-13.4 8.9-11.3-7.7-10.4-14z" transform="translate(-.26 .1)"/>
  <path class="cls-2" d="M62.04 232.3l20.1 4.2-.9 6.4-20-4.3.8-6.3z"/>
  <path class="cls-1" d="M221.1 71.6c-22.7-1.4-42.8 15.4-45 37.6s14.4 41.4 37 42.8 42.8-15.4 45-37.6-14.3-41.3-37-42.8z" transform="translate(-.26 .1)"/>
  <path class="cls-2" d="M212.5 111.6a4.37 4.37 0 0 1 4.5-3.8l18.7 1.2a3.9 3.9 0 0 1 3.7 4.3 4.37 4.37 0 0 1-4.5 3.8l-18.7-1.2a4 4 0 0 1-3.7-4.3z" transform="translate(-.26 .1)"/>
  <path class="cls-2" d="M226.2 139.3l-13.9-25.9a4 4 0 0 1 1.7-5.3 4 4 0 0 1 5.4 1.5l13.9 25.9a4 4 0 0 1-1.7 5.3 4 4 0 0 1-5.4-1.5z" transform="translate(-.26 .1)"/>
  <path class="cls-3" d="M218.5 85.4l.8-7.9a1.3 1.3 0 0 1 1.3-1.1 1.2 1.2 0 0 1 1.1 1.2l-.8 7.9a1.3 1.3 0 0 1-1.3 1.1 1 1 0 0 1-1.1-1.2zM212.4 145.4l.8-7.9a1.3 1.3 0 0 1 1.3-1.1 1.2 1.2 0 0 1 1.1 1.2l-.8 7.9a1.3 1.3 0 0 1-1.3 1.1 1.13 1.13 0 0 1-1.1-1.2zM191.4 111.3l-8.1-.5a1.2 1.2 0 0 1-1.1-1.2 1.3 1.3 0 0 1 1.3-1.1l8.1.5a1.2 1.2 0 0 1 1.1 1.2 1.21 1.21 0 0 1-1.3 1.1zM251.3 115.2l-8.1-.5a1.2 1.2 0 0 1-1.1-1.2 1.3 1.3 0 0 1 1.3-1.1l8.1.5a1.2 1.2 0 0 1 1.1 1.2 1.38 1.38 0 0 1-1.3 1.1z" transform="translate(-.26 .1)"/>
  <path class="cls-2" d="M215 119.5a7.57 7.57 0 0 1-7.1-8.2 8.08 8.08 0 0 1 8.6-7.2 7.57 7.57 0 0 1 7.1 8.2 8.1 8.1 0 0 1-8.6 7.2zM258.4 97.3a8.82 8.82 0 0 1-8.4-9.7 9.61 9.61 0 0 1 10.2-8.5 8.82 8.82 0 0 1 8.4 9.7 9.69 9.69 0 0 1-10.2 8.5zM253.3 148.1a8.82 8.82 0 0 1-8.4-9.7 9.61 9.61 0 0 1 10.2-8.5 8.82 8.82 0 0 1 8.4 9.7 9.69 9.69 0 0 1-10.2 8.5z" transform="translate(-.26 .1)"/>
  <path class="cls-2" d="M259.84 122.5l1.5-15.4 5.2.3-1.6 15.4-5.1-.3z"/>
  <path class="cls-1" d="M167.2 568.9c2.3-22.1-14.1-42.4-36.7-45.4S87.6 536 85.3 558s14.1 42.4 36.7 45.4 42.8-12.5 45.2-34.5z" transform="translate(-.26 .1)"/>
  <path class="cls-2" d="M126.6 559a4.23 4.23 0 0 1 3.7 4.6l-1.9 18.2a4 4 0 0 1-4.5 3.5 4.23 4.23 0 0 1-3.7-4.6l1.9-18.2a4 4 0 0 1 4.5-3.5z" transform="translate(-.26 .1)"/>
  <path class="cls-2" d="M97.8 571.3l27-12.6a4.14 4.14 0 0 1 5.4 1.9 3.78 3.78 0 0 1-1.8 5.2l-27 12.6a4.14 4.14 0 0 1-5.4-1.9 3.78 3.78 0 0 1 1.8-5.2z" transform="translate(-.26 .1)"/>
  <path class="cls-3" d="M153.1 565.8l8.1 1.1a1.38 1.38 0 0 1 1.1 1.3 1.15 1.15 0 0 1-1.3 1l-8.1-1.1a1.38 1.38 0 0 1-1.1-1.3 1.13 1.13 0 0 1 1.3-1zM92 557.7l8.1 1.1a1.38 1.38 0 0 1 1.1 1.3 1.15 1.15 0 0 1-1.3 1l-8.1-1.1a1.38 1.38 0 0 1-1.1-1.3 1.13 1.13 0 0 1 1.3-1zM127.7 538.4l.8-7.9a1.15 1.15 0 0 1 1.3-1 1.38 1.38 0 0 1 1.1 1.3l-.8 7.9a1.15 1.15 0 0 1-1.3 1 1.21 1.21 0 0 1-1.1-1.3zM121.5 596.7l.8-7.9a1.15 1.15 0 0 1 1.3-1 1.38 1.38 0 0 1 1.1 1.3l-.8 7.9a1.15 1.15 0 0 1-1.3 1 1.21 1.21 0 0 1-1.1-1.3z" transform="translate(-.26 .1)"/>
  <path class="cls-2" d="M118.4 561.2a7.54 7.54 0 0 1 8.7-6.6 8.05 8.05 0 0 1 7 8.7 7.59 7.59 0 0 1-8.7 6.6 8.05 8.05 0 0 1-7-8.7zM139.5 604.3a9.06 9.06 0 0 1 10.3-7.9 9.67 9.67 0 0 1 8.4 10.3 9.06 9.06 0 0 1-10.3 7.9 9.59 9.59 0 0 1-8.4-10.3zM87.7 597.4a9.06 9.06 0 0 1 10.3-7.9 9.53 9.53 0 0 1 8.4 10.3 9.06 9.06 0 0 1-10.3 7.9 9.47 9.47 0 0 1-8.4-10.3z" transform="translate(-.26 .1)"/>
  <path class="cls-2" d="M113.54 605.1l15.7 2.1-.5 5-15.7-2.1.5-5z"/>
  <path class="cls-1" d="M372.9 359c-22.7-1-42.5 16.3-44.2 38.5s15.3 41 38 42 42.5-16.3 44.2-38.5-15.3-41.1-38-42z" transform="translate(-.26 .1)"/>
  <path class="cls-2" d="M365.2 399.1a4.35 4.35 0 0 1 4.4-3.9l18.7.8a3.89 3.89 0 0 1 3.8 4.2 4.35 4.35 0 0 1-4.4 3.9l-18.7-.8a4 4 0 0 1-3.8-4.2z" transform="translate(-.26 .1)"/>
  <path class="cls-2" d="M379.5 426.5l-14.4-25.6a3.93 3.93 0 0 1 1.6-5.3 3.9 3.9 0 0 1 5.4 1.4l14.4 25.6a3.93 3.93 0 0 1-1.6 5.3 3.92 3.92 0 0 1-5.4-1.4z" transform="translate(-.26 .1)"/>
  <path class="cls-3" d="M370.6 372.9l.6-7.9a1.23 1.23 0 0 1 1.3-1.1 1.2 1.2 0 0 1 1.1 1.2l-.6 7.9a1.23 1.23 0 0 1-1.3 1.1c-.7-.1-1.2-.6-1.1-1.2zM365.9 433l.6-7.9a1.23 1.23 0 0 1 1.3-1.1 1.2 1.2 0 0 1 1.1 1.2l-.6 7.9a1.23 1.23 0 0 1-1.3 1.1 1.28 1.28 0 0 1-1.1-1.2zM344.1 399.3l-8.1-.3a1.2 1.2 0 0 1-1.1-1.2 1.23 1.23 0 0 1 1.3-1.1l8.1.3a1.2 1.2 0 0 1 1.1 1.2 1.21 1.21 0 0 1-1.3 1.1zM404 401.8l-8.1-.3a1.2 1.2 0 0 1-1.1-1.2 1.23 1.23 0 0 1 1.3-1.1l8.1.3a1.2 1.2 0 0 1 1.1 1.2 1.16 1.16 0 0 1-1.3 1.1z" transform="translate(-.26 .1)"/>
  <path class="cls-2" d="M367.9 407a7.59 7.59 0 0 1-7.3-8.1 8.1 8.1 0 0 1 8.5-7.4 7.56 7.56 0 0 1 7.3 8 8.11 8.11 0 0 1-8.5 7.5zM410.7 383.8a8.81 8.81 0 0 1-8.6-9.5 9.75 9.75 0 0 1 10-8.8 8.81 8.81 0 0 1 8.6 9.5 9.69 9.69 0 0 1-10 8.8zM406.8 434.8a8.81 8.81 0 0 1-8.6-9.5 9.68 9.68 0 0 1 10-8.8 8.81 8.81 0 0 1 8.6 9.5 9.69 9.69 0 0 1-10 8.8z" transform="translate(-.26 .1)"/>
  <path class="cls-2" d="M412.74 409l1.2-15.5 5.1.2-1.1 15.5-5.2-.2z"/>
  <path class="cls-1" d="M1096.3 769.1c13.8 14.9 38.2 16.8 54.5 4.2s18.3-35 4.5-49.9-38.2-16.8-54.5-4.2-18.3 35-4.5 49.9z" transform="translate(-.26 .1)"/>
  <path class="cls-2" d="M1128.6 749.2a4.14 4.14 0 0 1-5.5-.4l-11.4-12.3a3.29 3.29 0 0 1 .5-5 4.14 4.14 0 0 1 5.5.4l11.4 12.3a3.29 3.29 0 0 1-.5 5z" transform="translate(-.26 .1)"/>
  <path class="cls-2" d="M1138.3 723.3l-8.3 24.9a3.9 3.9 0 0 1-4.7 2.3 3.42 3.42 0 0 1-2.5-4.3l8.3-24.9a3.9 3.9 0 0 1 4.7-2.3 3.42 3.42 0 0 1 2.5 4.3z" transform="translate(-.26 .1)"/>
  <path class="cls-3" d="M1107.3 762l-5.8 4.5a1.22 1.22 0 0 1-1.6-.1 1 1 0 0 1 .1-1.4l5.8-4.5a1.22 1.22 0 0 1 1.6.1.9.9 0 0 1-.1 1.4zM1151.4 727.9l-5.8 4.5a1.22 1.22 0 0 1-1.6-.1 1 1 0 0 1 .1-1.4l5.8-4.5a1.22 1.22 0 0 1 1.6.1 1 1 0 0 1-.1 1.4zM1142.3 762.5l4.9 5.3a1 1 0 0 1-.1 1.4 1.22 1.22 0 0 1-1.6-.1l-4.9-5.3a1 1 0 0 1 .1-1.4 1.12 1.12 0 0 1 1.6.1zM1105.8 723l4.9 5.3a1 1 0 0 1-.1 1.4 1.22 1.22 0 0 1-1.6-.1l-4.9-5.3a1 1 0 0 1 .1-1.4 1.22 1.22 0 0 1 1.6.1z" transform="translate(-.26 .1)"/>
  <path class="cls-2" d="M1132.3 742.7a6.41 6.41 0 0 1-.9 9.6 7.8 7.8 0 0 1-10.4-.8 6.41 6.41 0 0 1 .9-9.6 7.8 7.8 0 0 1 10.4.8zM1089.2 729.9a7.68 7.68 0 0 1-1 11.4 9.33 9.33 0 0 1-12.4-.9 7.68 7.68 0 0 1 1-11.4 9.33 9.33 0 0 1 12.4.9zM1126.5 700.9a7.68 7.68 0 0 1-1 11.4 9.33 9.33 0 0 1-12.4-.9 7.68 7.68 0 0 1 1-11.4 9.32 9.32 0 0 1 12.4.9z" transform="translate(-.26 .1)"/>
  <path class="cls-2" d="M1104.64 713.1l-11.3 8.7-3.1-3.3 11.3-8.8 3.1 3.4z"/>
  <path class="cls-1" d="M810.8 659.1c14.4 1.8 28-7.5 30.4-20.7s-7.3-25.4-21.7-27.1-28 7.5-30.4 20.7 7.3 25.3 21.7 27.1z" transform="translate(-.26 .1)"/>
  <path class="cls-2" d="M818 635.5a2.74 2.74 0 0 1-3.1 2.1l-11.9-1.5a2.45 2.45 0 0 1-2.2-2.7 2.74 2.74 0 0 1 3.1-2.1l11.9 1.5a2.28 2.28 0 0 1 2.2 2.7z" transform="translate(-.26 .1)"/>
  <path class="cls-2" d="M810.5 618.3l7.7 16.1a2.24 2.24 0 0 1-1.3 3.1 2.77 2.77 0 0 1-3.4-1.1l-7.7-16.1a2.24 2.24 0 0 1 1.3-3.1 2.69 2.69 0 0 1 3.4 1.1z" transform="translate(-.26 .1)"/>
  <path class="cls-3" d="M813.1 650.9l-.9 4.7a.87.87 0 0 1-.9.6c-.4-.1-.7-.4-.6-.8l.9-4.7a.87.87 0 0 1 .9-.6.76.76 0 0 1 .6.8zM819.6 615.2l-.9 4.7a.87.87 0 0 1-.9.6c-.4-.1-.7-.4-.6-.8l.9-4.7a.87.87 0 0 1 .9-.6c.4.1.7.4.6.8zM831.5 636.5l5.1.6c.4.1.7.4.6.8a.87.87 0 0 1-.9.6l-5.1-.6c-.4-.1-.7-.4-.6-.8a.78.78 0 0 1 .9-.6zM793.5 631.8l5.1.6c.4.1.7.4.6.8a.87.87 0 0 1-.9.6l-5.1-.6c-.4-.1-.7-.4-.6-.8a.78.78 0 0 1 .9-.6z" transform="translate(-.26 .1)"/>
  <path class="cls-2" d="M816.8 630.6a4.57 4.57 0 0 1 4.2 5.2 5.32 5.32 0 0 1-5.8 4 4.57 4.57 0 0 1-4.2-5.2 5.19 5.19 0 0 1 5.8-4zM788.1 642.2a5.33 5.33 0 0 1 4.9 6.2 6.11 6.11 0 0 1-6.9 4.7 5.33 5.33 0 0 1-4.9-6.2 6.24 6.24 0 0 1 6.9-4.7zM793.6 612a5.33 5.33 0 0 1 4.9 6.2 6.11 6.11 0 0 1-6.9 4.7 5.33 5.33 0 0 1-4.9-6.2 6.15 6.15 0 0 1 6.9-4.7z" transform="translate(-.26 .1)"/>
  <path class="cls-2" d="M787.94 627.2l-1.7 9.2-3.3-.4 1.7-9.2 3.3.4z"/>
  <path class="cls-1" d="M899.7 595.3c20.1 22 55.1 23.9 78 4.1s25.2-53.6 5.1-75.6-55.1-23.9-78-4.1-25.2 53.6-5.1 75.6z" transform="translate(-.26 .1)"/>
  <path class="cls-2" d="M945.4 563.9a5.62 5.62 0 0 1-7.8-.4L921 545.4a5.3 5.3 0 0 1 .5-7.6 5.62 5.62 0 0 1 7.8.4l16.6 18.1a5.29 5.29 0 0 1-.5 7.6z" transform="translate(-.26 .1)"/>
  <path class="cls-2" d="M958.4 524.4l-11.2 38a5.35 5.35 0 0 1-6.6 3.6 5.2 5.2 0 0 1-3.7-6.4l11.2-38a5.35 5.35 0 0 1 6.6-3.6 5.08 5.08 0 0 1 3.7 6.4z" transform="translate(-.26 .1)"/>
  <path class="cls-3" d="M915.2 584.2l-8.2 7a1.56 1.56 0 0 1-2.2-.1 1.57 1.57 0 0 1 .1-2.2l8.2-7a1.56 1.56 0 0 1 2.2.1 1.57 1.57 0 0 1-.1 2.2zM977.3 530.9l-8.2 7a1.56 1.56 0 0 1-2.2-.1 1.57 1.57 0 0 1 .1-2.2l8.2-7a1.56 1.56 0 0 1 2.2.1 1.57 1.57 0 0 1-.1 2.2zM965.2 583.5l7.2 7.9a1.57 1.57 0 0 1-.1 2.2 1.56 1.56 0 0 1-2.2-.1l-7.2-7.9a1.57 1.57 0 0 1 .1-2.2 1.48 1.48 0 0 1 2.2.1zM912 525.2l7.2 7.9a1.57 1.57 0 0 1-.1 2.2 1.56 1.56 0 0 1-2.2-.1l-7.2-7.9a1.57 1.57 0 0 1 .1-2.2 1.68 1.68 0 0 1 2.2.1z" transform="translate(-.26 .1)"/>
  <path class="cls-2" d="M950.4 553.9a10 10 0 0 1-1 14.5 10.89 10.89 0 0 1-15-.8 10 10 0 0 1 1-14.5 11 11 0 0 1 15 .8zM888.5 536.3a11.86 11.86 0 0 1-1.2 17.2 12.77 12.77 0 0 1-17.7-.9 11.94 11.94 0 0 1 1.2-17.2 12.79 12.79 0 0 1 17.7.9zM941 491.1a11.86 11.86 0 0 1-1.2 17.2 12.77 12.77 0 0 1-17.7-.9 11.86 11.86 0 0 1 1.2-17.2 12.78 12.78 0 0 1 17.7.9z" transform="translate(-.26 .1)"/>
  <path class="cls-2" d="M910.14 510.2l-15.9 13.7-4.6-4.9 15.9-13.8 4.6 5z"/>
  <path class="cls-1" d="M1004.7 705.5c15.9 1.9 30.9-8.2 33.6-22.7s-8.1-27.8-24-29.7-30.9 8.2-33.6 22.7 8.1 27.7 24 29.7z" transform="translate(-.26 .1)"/>
  <path class="cls-2" d="M1012.7 679.6a3.12 3.12 0 0 1-3.4 2.3l-13.1-1.6a2.57 2.57 0 0 1-2.4-3 3.12 3.12 0 0 1 3.4-2.3l13.1 1.6a2.76 2.76 0 0 1 2.4 3z" transform="translate(-.26 .1)"/>
  <path class="cls-2" d="M1004.4 660.9l8.5 17.6a2.57 2.57 0 0 1-1.5 3.4 2.94 2.94 0 0 1-3.7-1.2l-8.5-17.6a2.57 2.57 0 0 1 1.5-3.4 2.75 2.75 0 0 1 3.7 1.2z" transform="translate(-.26 .1)"/>
  <path class="cls-3" d="M1007.2 696.5l-.9 5.2a.83.83 0 0 1-1 .6c-.5-.1-.8-.4-.7-.9l.9-5.2a.83.83 0 0 1 1-.6.78.78 0 0 1 .7.9zM1014.4 657.4l-.9 5.2a.83.83 0 0 1-1 .6c-.5-.1-.8-.4-.7-.9l.9-5.2a.83.83 0 0 1 1-.6.78.78 0 0 1 .7.9zM1027.6 680.7l5.7.7c.5.1.8.4.7.9a.83.83 0 0 1-1 .6l-5.7-.7c-.5-.1-.8-.4-.7-.9a1.05 1.05 0 0 1 1-.6zM985.6 675.6l5.7.7c.5.1.8.4.7.9a.83.83 0 0 1-1 .6l-5.7-.7c-.5-.1-.8-.4-.7-.9a.83.83 0 0 1 1-.6z" transform="translate(-.26 .1)"/>
  <path class="cls-2" d="M1011.3 674.3a5 5 0 0 1 4.6 5.7 5.65 5.65 0 0 1-6.4 4.3 5 5 0 0 1-4.6-5.7c.5-2.7 3.4-4.6 6.4-4.3zM978 683.4a6 6 0 0 1 5.5 6.8c-.6 3.3-4 5.6-7.6 5.2a6 6 0 0 1-5.5-6.8c.6-3.3 4-5.6 7.6-5.2zM985.7 653.9a6 6 0 0 1 5.5 6.8c-.6 3.3-4 5.6-7.6 5.2a6 6 0 0 1-5.5-6.8 6.75 6.75 0 0 1 7.6-5.2z" transform="translate(-.26 .1)"/>
  <path class="cls-2" d="M979.44 670.6l-1.9 10-3.6-.4 1.9-10.1 3.6.5z"/>
  <path class="cls-1" d="M1077.3 530.4c26.3 3.5 52.5-14.2 58.6-39.4s-10.4-48.5-36.7-51.9-52.5 14.2-58.6 39.4 10.4 48.5 36.7 51.9z" transform="translate(-.26 .1)"/>
  <path class="cls-2" d="M1093.5 485.4a5.5 5.5 0 0 1-5.9 4l-21.7-2.8a4.22 4.22 0 0 1-3.7-5.2 5.5 5.5 0 0 1 5.9-4l21.7 2.8a4.22 4.22 0 0 1 3.7 5.2z" transform="translate(-.26 .1)"/>
  <path class="cls-2" d="M1081.8 452.6l12.2 30.8a4.69 4.69 0 0 1-2.9 5.9c-2.5 1-5.2.1-6.1-2.2l-12.2-30.8a4.69 4.69 0 0 1 2.9-5.9 4.6 4.6 0 0 1 6.1 2.2z" transform="translate(-.26 .1)"/>
  <path class="cls-3" d="M1082.5 514.8l-2.2 9a1.56 1.56 0 0 1-1.7 1.1 1.27 1.27 0 0 1-1.1-1.5l2.2-9a1.56 1.56 0 0 1 1.7-1.1 1.21 1.21 0 0 1 1.1 1.5zM1098.9 446.7l-2.2 9a1.56 1.56 0 0 1-1.7 1.1 1.27 1.27 0 0 1-1.1-1.5l2.2-9a1.56 1.56 0 0 1 1.7-1.1 1.23 1.23 0 0 1 1.1 1.5zM1118.2 487.4l9.4 1.2a1.27 1.27 0 0 1 1.1 1.5 1.56 1.56 0 0 1-1.7 1.1l-9.4-1.2a1.27 1.27 0 0 1-1.1-1.5 1.63 1.63 0 0 1 1.7-1.1zM1048.7 478.2l9.4 1.2a1.27 1.27 0 0 1 1.1 1.5 1.56 1.56 0 0 1-1.7 1.1l-9.4-1.2a1.27 1.27 0 0 1-1.1-1.5 1.63 1.63 0 0 1 1.7-1.1z" transform="translate(-.26 .1)"/>
  <path class="cls-2" d="M1091.8 476.1a8 8 0 0 1 7 10 10.49 10.49 0 0 1-11.2 7.6 8 8 0 0 1-7-10 10.39 10.39 0 0 1 11.2-7.6zM1037.6 498.1a9.48 9.48 0 0 1 8.3 11.8 12.29 12.29 0 0 1-13.3 9 9.48 9.48 0 0 1-8.3-11.8 12.39 12.39 0 0 1 13.3-9zM1051.4 440.4a9.48 9.48 0 0 1 8.3 11.8 12.29 12.29 0 0 1-13.3 9 9.48 9.48 0 0 1-8.3-11.8 12.26 12.26 0 0 1 13.3-9z" transform="translate(-.26 .1)"/>
  <path class="cls-2" d="M1039.24 469.4l-4.2 17.5-6-.8 4.2-17.5 6 .8z"/>
  <path class="cls-1" d="M1189.9 609.1c1.5-19.8-14.2-37.5-35.1-39.6s-39.2 12.2-40.7 32 14.2 37.5 35.1 39.6 39.2-12.2 40.7-32z" transform="translate(-.26 .1)"/>
  <path class="cls-2" d="M1152.2 601.4a3.77 3.77 0 0 1 3.5 4l-1.3 16.3a3.65 3.65 0 0 1-4.1 3.2 3.77 3.77 0 0 1-3.5-4l1.3-16.3a3.71 3.71 0 0 1 4.1-3.2z" transform="translate(-.26 .1)"/>
  <path class="cls-2" d="M1126 613.1l24.6-11.9a3.85 3.85 0 0 1 5 1.5 3.33 3.33 0 0 1-1.5 4.7l-24.6 11.9a3.85 3.85 0 0 1-5-1.5 3.33 3.33 0 0 1 1.5-4.7z" transform="translate(-.26 .1)"/>
  <path class="cls-3" d="M1176.9 606.7l7.5.7c.6.1 1.1.6 1 1.1a1 1 0 0 1-1.2.9l-7.5-.7c-.6-.1-1.1-.6-1-1.1a1.2 1.2 0 0 1 1.2-.9zM1120.3 601l7.5.7c.6.1 1.1.6 1 1.1a1 1 0 0 1-1.2.9l-7.5-.7c-.6-.1-1.1-.6-1-1.1a1.2 1.2 0 0 1 1.2-.9zM1152.7 582.9l.5-7.1a1 1 0 0 1 1.2-.9c.6.1 1.1.6 1 1.1l-.5 7.1a1 1 0 0 1-1.2.9c-.6-.1-1.1-.6-1-1.1zM1148.6 635.2l.5-7.1a1 1 0 0 1 1.2-.9c.6.1 1.1.6 1 1.1l-.5 7.1a1 1 0 0 1-1.2.9c-.6-.1-1.1-.6-1-1.1z" transform="translate(-.26 .1)"/>
  <path class="cls-2" d="M1144.8 603.5a6.89 6.89 0 0 1 7.8-6.1 7.28 7.28 0 0 1 6.7 7.6 6.89 6.89 0 0 1-7.8 6.1 7.28 7.28 0 0 1-6.7-7.6zM1165.4 641.5a8.25 8.25 0 0 1 9.3-7.3 8.68 8.68 0 0 1 8 9 8.25 8.25 0 0 1-9.3 7.3 8.68 8.68 0 0 1-8-9zM1117.4 636.7a8.25 8.25 0 0 1 9.3-7.3 8.68 8.68 0 0 1 8 9 8.25 8.25 0 0 1-9.3 7.3 8.76 8.76 0 0 1-8-9z" transform="translate(-.26 .1)"/>
  <path class="cls-2" d="M1141.44 642.9l14.5 1.5-.3 4.4-14.6-1.4.4-4.5z"/>
  <path class="cls-1" d="M917.3 739.7c1.1-19.8-15.1-37.2-36.1-38.9s-38.9 13.1-40 32.9 15.1 37.2 36.1 38.9 38.9-13.1 40-32.9z" transform="translate(-.26 .1)"/>
  <path class="cls-2" d="M879.5 732.7a3.84 3.84 0 0 1 3.6 3.9l-.9 16.3a3.57 3.57 0 0 1-4 3.3 3.84 3.84 0 0 1-3.6-3.9l.9-16.3a3.57 3.57 0 0 1 4-3.3z" transform="translate(-.26 .1)"/>
  <path class="cls-2" d="M853.5 745l24.3-12.4a3.81 3.81 0 0 1 5 1.4 3.3 3.3 0 0 1-1.4 4.7l-24.3 12.4a3.81 3.81 0 0 1-5-1.4 3.3 3.3 0 0 1 1.4-4.7z" transform="translate(-.26 .1)"/>
  <path class="cls-3" d="M904.2 737.5l7.5.6a1 1 0 0 1 1 1.1.9.9 0 0 1-1.1.9l-7.5-.6a1 1 0 0 1-1-1.1 1 1 0 0 1 1.1-.9zM847.5 733.1l7.5.6a1 1 0 0 1 1 1.1.9.9 0 0 1-1.1.9l-7.5-.6a1 1 0 0 1-1-1.1.9.9 0 0 1 1.1-.9zM879.4 714.2l.4-7.1a.9.9 0 0 1 1.1-.9 1 1 0 0 1 1 1.1l-.4 7.1a.9.9 0 0 1-1.1.9 1.1 1.1 0 0 1-1-1.1zM876.6 766.6l.4-7.1a.9.9 0 0 1 1.1-.9 1 1 0 0 1 1 1.1l-.4 7.1a.9.9 0 0 1-1.1.9 1.16 1.16 0 0 1-1-1.1z" transform="translate(-.26 .1)"/>
  <path class="cls-2" d="M872 735c.2-3.8 3.6-6.6 7.7-6.3a7.34 7.34 0 0 1 6.9 7.4c-.2 3.8-3.6 6.6-7.7 6.3a7.27 7.27 0 0 1-6.9-7.4zM893.6 772.5a8.17 8.17 0 0 1 9.1-7.5 8.68 8.68 0 0 1 8.2 8.8 8.17 8.17 0 0 1-9.1 7.5 8.55 8.55 0 0 1-8.2-8.8zM845.5 768.8a8.17 8.17 0 0 1 9.1-7.5 8.68 8.68 0 0 1 8.2 8.8 8.17 8.17 0 0 1-9.1 7.5c-4.8-.4-8.5-4.3-8.2-8.8z" transform="translate(-.26 .1)"/>
  <path class="cls-2" d="M869.64 774.5l14.6 1.1-.3 4.5-14.6-1.1.3-4.5z"/>
  <path class="cls-1" d="M488 275.6c3.7-26.9-16.7-53.5-45.6-59.5s-55.4 11-59.1 37.9 16.7 53.5 45.6 59.5 55.4-11 59.1-37.9z" transform="translate(-.26 .1)"/>
  <path class="cls-2" d="M436.3 259.5a5.62 5.62 0 0 1 4.6 6l-3.1 22.2a4.75 4.75 0 0 1-5.9 3.8 5.62 5.62 0 0 1-4.6-6l3.1-22.2c.3-2.7 3-4.4 5.9-3.8z" transform="translate(-.26 .1)"/>
  <path class="cls-2" d="M398.9 271.7L434 259a5.69 5.69 0 0 1 6.8 2.9 4.41 4.41 0 0 1-2.4 6.2l-35.1 12.7a5.69 5.69 0 0 1-6.8-2.9 4.29 4.29 0 0 1 2.4-6.2z" transform="translate(-.26 .1)"/>
  <path class="cls-3" d="M470.1 270.4l10.3 2.1a1.62 1.62 0 0 1 1.3 1.7 1.35 1.35 0 0 1-1.7 1.1l-10.3-2.1a1.62 1.62 0 0 1-1.3-1.7 1.42 1.42 0 0 1 1.7-1.1zM391.9 254.3l10.3 2.1a1.62 1.62 0 0 1 1.3 1.7 1.35 1.35 0 0 1-1.7 1.1l-10.3-2.1a1.62 1.62 0 0 1-1.3-1.7 1.35 1.35 0 0 1 1.7-1.1zM438.3 234.2l1.3-9.6a1.35 1.35 0 0 1 1.7-1.1 1.62 1.62 0 0 1 1.3 1.7l-1.3 9.6a1.35 1.35 0 0 1-1.7 1.1 1.69 1.69 0 0 1-1.3-1.7zM428.5 305.2l1.3-9.6a1.35 1.35 0 0 1 1.7-1.1 1.62 1.62 0 0 1 1.3 1.7l-1.3 9.6a1.35 1.35 0 0 1-1.7 1.1 1.55 1.55 0 0 1-1.3-1.7z" transform="translate(-.26 .1)"/>
  <path class="cls-2" d="M425.7 261.3c.7-5.2 5.8-8.4 11.3-7.3s9.5 6.2 8.7 11.4-5.8 8.4-11.3 7.3-9.4-6.3-8.7-11.4zM451.4 316.4c.8-6.1 6.9-10 13.4-8.6s11.2 7.4 10.4 13.5-6.9 10-13.4 8.6-11.3-7.4-10.4-13.5zM385.1 302.8c.8-6.1 6.9-10 13.4-8.6s11.2 7.4 10.4 13.5-6.9 10-13.4 8.6-11.3-7.4-10.4-13.5z" transform="translate(-.26 .1)"/>
  <path class="cls-2" d="M418.04 314.8l20.1 4.2-.9 6-20-4.1.8-6.1z"/>
  <path class="cls-1" d="M481.7 78.2c9.7-10.2 10.1-27.2.7-37.9s-24.8-11.1-34.5-.9-10.1 27.2-.7 37.9 24.7 11.1 34.5.9z" transform="translate(-.26 .1)"/>
  <path class="cls-2" d="M466.7 56.7a2.89 2.89 0 0 1-.1 3.8l-8 8.4a2.34 2.34 0 0 1-3.5-.1 2.89 2.89 0 0 1 .1-3.8l8-8.4a2.34 2.34 0 0 1 3.5.1z" transform="translate(-.26 .1)"/>
  <path class="cls-2" d="M448.5 51.1l17.5 4.7a2.62 2.62 0 0 1 1.8 3.1 2.4 2.4 0 0 1-2.9 1.9l-17.5-4.7a2.62 2.62 0 0 1-1.8-3.1 2.48 2.48 0 0 1 2.9-1.9z" transform="translate(-.26 .1)"/>
  <path class="cls-3" d="M476.4 70.9l3.3 3.8a.78.78 0 0 1 0 1.1.67.67 0 0 1-1 0l-3.3-3.8a.78.78 0 0 1 0-1.1.67.67 0 0 1 1 0zM451.2 41.9l3.3 3.8a.78.78 0 0 1 0 1.1.67.67 0 0 1-1 0l-3.3-3.8a.78.78 0 0 1 0-1.1.67.67 0 0 1 1 0zM475.3 46.6l3.5-3.6a.67.67 0 0 1 1 0 .78.78 0 0 1 0 1.1l-3.5 3.6a.67.67 0 0 1-1 0 .78.78 0 0 1 0-1.1zM449.6 73.6L453 70a.67.67 0 0 1 1 0 .78.78 0 0 1 0 1.1l-3.5 3.6a.67.67 0 0 1-1 0 .91.91 0 0 1 .1-1.1z" transform="translate(-.26 .1)"/>
  <path class="cls-2" d="M462.1 54.4a4.31 4.31 0 0 1 6.6.2 5.61 5.61 0 0 1-.1 7.3 4.31 4.31 0 0 1-6.6-.2 5.49 5.49 0 0 1 .1-7.3zM455 84.8a5.2 5.2 0 0 1 7.8.2 6.54 6.54 0 0 1-.2 8.6 5.2 5.2 0 0 1-7.8-.2 6.43 6.43 0 0 1 .2-8.6zM433.6 60.2a5.2 5.2 0 0 1 7.8.2 6.54 6.54 0 0 1-.2 8.6 5.2 5.2 0 0 1-7.8-.2 6.54 6.54 0 0 1 .2-8.6z" transform="translate(-.26 .1)"/>
  <path class="cls-2" d="M442.44 74.8l6.5 7.4-2.2 2.4-6.5-7.5 2.2-2.3z"/>
  <path class="cls-1" d="M122.5 70.4c9.7-10.2 10.1-27.2.7-37.9s-24.8-11.1-34.5-.9a28.52 28.52 0 0 0-.7 37.8c9.4 10.7 24.8 11.2 34.5 1z" transform="translate(-.26 .1)"/>
  <path class="cls-2" d="M107.5 48.9a2.89 2.89 0 0 1-.1 3.8l-8 8.4a2.34 2.34 0 0 1-3.5-.1 2.89 2.89 0 0 1 .1-3.8l8-8.4a2.34 2.34 0 0 1 3.5.1z" transform="translate(-.26 .1)"/>
  <path class="cls-2" d="M89.3 43.4l17.5 4.7a2.62 2.62 0 0 1 1.8 3.1 2.33 2.33 0 0 1-2.9 1.9l-17.5-4.7a2.62 2.62 0 0 1-1.8-3.1 2.33 2.33 0 0 1 2.9-1.9z" transform="translate(-.26 .1)"/>
  <path class="cls-3" d="M117.2 63.1l3.3 3.8a.78.78 0 0 1 0 1.1.67.67 0 0 1-1 0l-3.3-3.8a.78.78 0 0 1 0-1.1.67.67 0 0 1 1 0zM92 34.1l3.3 3.8a.78.78 0 0 1 0 1.1.67.67 0 0 1-1 0L91 35.1a.78.78 0 0 1 0-1.1.77.77 0 0 1 1 .1zM116.1 38.9l3.5-3.6a.67.67 0 0 1 1 0 .78.78 0 0 1 0 1.1l-3.5 3.6a.67.67 0 0 1-1 0 .78.78 0 0 1 0-1.1zM90.4 65.8l3.5-3.6a.67.67 0 0 1 1 0 .78.78 0 0 1 0 1.1l-3.5 3.6a.67.67 0 0 1-1 0 .78.78 0 0 1 0-1.1z" transform="translate(-.26 .1)"/>
  <path class="cls-2" d="M102.9 46.6a4.31 4.31 0 0 1 6.6.2 5.61 5.61 0 0 1-.1 7.3 4.31 4.31 0 0 1-6.6-.2 5.49 5.49 0 0 1 .1-7.3zM95.8 77a5.2 5.2 0 0 1 7.8.2 6.54 6.54 0 0 1-.2 8.6 5.2 5.2 0 0 1-7.8-.2 6.54 6.54 0 0 1 .2-8.6zM74.4 52.5a5.2 5.2 0 0 1 7.8.2 6.54 6.54 0 0 1-.2 8.6 5.2 5.2 0 0 1-7.8-.2 6.54 6.54 0 0 1 .2-8.6z" transform="translate(-.26 .1)"/>
  <path class="cls-2" d="M83.24 67l6.5 7.5-2.2 2.3-6.5-7.5 2.2-2.3z"/>
  <path class="cls-1" d="M780.8 536.1c-.9-26.8-23.8-48.4-51.2-48.2s-48.9 21.9-48 48.7 23.8 48.4 51.2 48.2 48.9-21.9 48-48.7z" transform="translate(-.26 .1)"/>
  <path class="cls-2" d="M730.9 531a5.07 5.07 0 0 1 5.1 4.8l.7 22a4.76 4.76 0 0 1-4.8 4.9 5.07 5.07 0 0 1-5.1-4.8l-.7-22a4.76 4.76 0 0 1 4.8-4.9z" transform="translate(-.26 .1)"/>
  <path class="cls-2" d="M698.7 550.4l30-19.4a5 5 0 0 1 6.7 1.4 4.56 4.56 0 0 1-1.2 6.5l-30 19.4a5 5 0 0 1-6.7-1.4 4.49 4.49 0 0 1 1.2-6.5z" transform="translate(-.26 .1)"/>
  <path class="cls-3" d="M763.6 534.7h9.8a1.52 1.52 0 0 1 1.5 1.4 1.37 1.37 0 0 1-1.4 1.4h-9.8a1.52 1.52 0 0 1-1.5-1.4 1.43 1.43 0 0 1 1.4-1.4zM689.5 535h9.8a1.52 1.52 0 0 1 1.5 1.4 1.37 1.37 0 0 1-1.4 1.4h-9.8a1.52 1.52 0 0 1-1.5-1.4 1.37 1.37 0 0 1 1.4-1.4zM728.7 506.1l-.3-9.5a1.37 1.37 0 0 1 1.4-1.4 1.52 1.52 0 0 1 1.5 1.4l.3 9.5a1.37 1.37 0 0 1-1.4 1.4 1.52 1.52 0 0 1-1.5-1.4zM731.1 576.8l-.3-9.5a1.37 1.37 0 0 1 1.4-1.4 1.52 1.52 0 0 1 1.5 1.4l.3 9.5a1.37 1.37 0 0 1-1.4 1.4 1.45 1.45 0 0 1-1.5-1.4z" transform="translate(-.26 .1)"/>
  <path class="cls-2" d="M721.5 534.9a9 9 0 0 1 9.2-9.3 9.64 9.64 0 0 1 9.8 9.2 9 9 0 0 1-9.2 9.3 9.71 9.71 0 0 1-9.8-9.2zM753.8 583a10.84 10.84 0 0 1 10.9-11.1 11.65 11.65 0 0 1 11.7 11 10.84 10.84 0 0 1-10.9 11.1 11.59 11.59 0 0 1-11.7-11zM691.1 583.3a10.84 10.84 0 0 1 10.9-11.1 11.72 11.72 0 0 1 11.7 11 10.84 10.84 0 0 1-10.9 11.1 11.59 11.59 0 0 1-11.7-11z" transform="translate(-.26 .1)"/>
  <path class="cls-2" d="M723.04 588.2l19-.1.3 6.1-19.1.1-.2-6.1z"/>
  <path class="cls-1" d="M544.2 469.3c-22.7-1.4-42.8 15.4-45 37.6s14.4 41.4 37 42.8 42.8-15.4 45-37.6-14.3-41.3-37-42.8z" transform="translate(-.26 .1)"/>
  <path class="cls-2" d="M535.7 509.3a4.37 4.37 0 0 1 4.5-3.8l18.7 1.2a3.9 3.9 0 0 1 3.7 4.3 4.37 4.37 0 0 1-4.5 3.8l-18.7-1.2a4 4 0 0 1-3.7-4.3z" transform="translate(-.26 .1)"/>
  <path class="cls-2" d="M549.3 537l-13.9-25.9a4 4 0 0 1 1.7-5.3 4 4 0 0 1 5.4 1.5l13.9 25.9a4 4 0 0 1-1.7 5.3 4 4 0 0 1-5.4-1.5z" transform="translate(-.26 .1)"/>
  <path class="cls-3" d="M541.6 483.2l.8-7.9a1.3 1.3 0 0 1 1.3-1.1 1.2 1.2 0 0 1 1.1 1.2l-.8 7.9a1.3 1.3 0 0 1-1.3 1.1c-.7-.1-1.2-.6-1.1-1.2zM535.6 543.1l.8-7.9a1.3 1.3 0 0 1 1.3-1.1 1.2 1.2 0 0 1 1.1 1.2l-.8 7.9a1.3 1.3 0 0 1-1.3 1.1 1 1 0 0 1-1.1-1.2zM514.5 509l-8.1-.5a1.2 1.2 0 0 1-1.1-1.2 1.3 1.3 0 0 1 1.3-1.1l8.1.5a1.2 1.2 0 0 1 1.1 1.2 1.21 1.21 0 0 1-1.3 1.1zM574.4 512.9l-8.1-.5a1.2 1.2 0 0 1-1.1-1.2 1.3 1.3 0 0 1 1.3-1.1l8.1.5a1.2 1.2 0 0 1 1.1 1.2 1.38 1.38 0 0 1-1.3 1.1z" transform="translate(-.26 .1)"/>
  <path class="cls-2" d="M538.2 517.2a7.57 7.57 0 0 1-7.1-8.2 8.08 8.08 0 0 1 8.6-7.2 7.57 7.57 0 0 1 7.1 8.2 8.16 8.16 0 0 1-8.6 7.2zM581.5 495a8.82 8.82 0 0 1-8.4-9.7 9.61 9.61 0 0 1 10.2-8.5 8.82 8.82 0 0 1 8.4 9.7 9.69 9.69 0 0 1-10.2 8.5zM576.4 545.8a8.82 8.82 0 0 1-8.4-9.7 9.61 9.61 0 0 1 10.2-8.5 8.82 8.82 0 0 1 8.4 9.7 9.49 9.49 0 0 1-10.2 8.5z" transform="translate(-.26 .1)"/>
  <path class="cls-2" d="M582.94 520.2l1.6-15.4 5.1.3-1.6 15.4-5.1-.3zM521.14 550.2l-11.3-3.9 1.2-3.7 11.3 3.9-1.2 3.7z"/>
  <path class="cls-1" d="M644.3 643.3c-35.1 15.6-51.5 56.5-36.5 91.4s55.6 50.5 90.7 35 51.5-56.5 36.5-91.4-55.5-50.6-90.7-35z" transform="translate(-.26 .1)"/>
  <path class="cls-2" d="M664.4 709.7a7.13 7.13 0 0 1 3.7-9.2l28.9-12.8a6.81 6.81 0 0 1 9.1 3.5 7.13 7.13 0 0 1-3.7 9.2l-28.9 12.8a6.89 6.89 0 0 1-9.1-3.5z" transform="translate(-.26 .1)"/>
  <path class="cls-2" d="M707.7 740.3l-42.1-27.9a6.62 6.62 0 0 1-1.8-9.3 6.68 6.68 0 0 1 9.3-1.9l42.1 27.9a6.62 6.62 0 0 1 1.8 9.3 6.66 6.66 0 0 1-9.3 1.9z" transform="translate(-.26 .1)"/>
  <path class="cls-3" d="M651.8 666l-5.3-12.4a2 2 0 0 1 1-2.6 2 2 0 0 1 2.6 1l5.3 12.4a2 2 0 0 1-1 2.6 2 2 0 0 1-2.6-1zM692.1 760.3l-5.3-12.4a2 2 0 0 1 1-2.6 2 2 0 0 1 2.6 1l5.3 12.4a2 2 0 0 1-1 2.6 1.93 1.93 0 0 1-2.6-1zM632.5 725.9l-12.5 5.6a2 2 0 0 1-2.6-1 2 2 0 0 1 1-2.6l12.5-5.6a2 2 0 0 1 2.6 1 1.9 1.9 0 0 1-1 2.6zM725.3 684.7l-12.5 5.6a2 2 0 0 1-2.6-1 2 2 0 0 1 1-2.6l12.5-5.6a2 2 0 0 1 2.6 1 1.9 1.9 0 0 1-1 2.6z" transform="translate(-.26 .1)"/>
  <path class="cls-2" d="M674.7 719.6a13.08 13.08 0 0 1-17.4-6.7 13.44 13.44 0 0 1 7-17.5 13.08 13.08 0 0 1 17.4 6.7 13.44 13.44 0 0 1-7 17.5zM721.3 652.4a15.47 15.47 0 0 1-20.6-8 16 16 0 0 1 8.3-20.8 15.47 15.47 0 0 1 20.6 8 15.94 15.94 0 0 1-8.3 20.8zM755.5 732.3a15.47 15.47 0 0 1-20.6-8 16 16 0 0 1 8.3-20.8 15.47 15.47 0 0 1 20.6 8 15.94 15.94 0 0 1-8.3 20.8z" transform="translate(-.26 .1)"/>
  <path class="cls-2" d="M744.24 688.7l-10.4-24.3 8-3.5 10.4 24.2-8 3.6z"/>
  <path class="cls-1" d="M476.3 660c5.7 24.2 30.5 39.4 55.5 34.1s40.5-29.3 34.8-53.4-30.5-39.4-55.5-34.1-40.5 29.3-34.8 53.4z" transform="translate(-.26 .1)"/>
  <path class="cls-2" d="M522.7 655.2a4.78 4.78 0 0 1-5.6-3.4l-4.7-19.9a4.53 4.53 0 0 1 3.5-5.4 4.78 4.78 0 0 1 5.6 3.4l4.7 19.9a4.53 4.53 0 0 1-3.5 5.4z" transform="translate(-.26 .1)"/>
  <path class="cls-2" d="M548.5 631.3l-23.8 23.4a4.65 4.65 0 0 1-6.4 0 4.2 4.2 0 0 1-.1-6.1l23.8-23.4a4.65 4.65 0 0 1 6.4 0 4.12 4.12 0 0 1 .1 6.1z" transform="translate(-.26 .1)"/>
  <path class="cls-3" d="M492.3 658l-8.9 1.9a1.35 1.35 0 0 1-1.6-1 1.2 1.2 0 0 1 1-1.5l8.9-1.9a1.35 1.35 0 0 1 1.6 1 1.33 1.33 0 0 1-1 1.5zM559.7 643.6l-8.9 1.9a1.35 1.35 0 0 1-1.6-1 1.2 1.2 0 0 1 1-1.5l8.9-1.9a1.35 1.35 0 0 1 1.6 1 1.27 1.27 0 0 1-1 1.5zM529.2 677.4l2 8.6a1.2 1.2 0 0 1-1 1.5 1.35 1.35 0 0 1-1.6-1l-2-8.6a1.2 1.2 0 0 1 1-1.5 1.32 1.32 0 0 1 1.6 1zM514.2 613.5l2 8.6a1.2 1.2 0 0 1-1 1.5 1.35 1.35 0 0 1-1.6-1l-2-8.6a1.2 1.2 0 0 1 1-1.5 1.43 1.43 0 0 1 1.6 1z" transform="translate(-.26 .1)"/>
  <path class="cls-2" d="M530.5 649.9a8.48 8.48 0 0 1-6.7 10.2 8.94 8.94 0 0 1-10.6-6.5 8.48 8.48 0 0 1 6.7-10.2 8.78 8.78 0 0 1 10.6 6.5zM492.4 612.3a10.16 10.16 0 0 1-7.9 12.2 10.64 10.64 0 0 1-12.6-7.8 10.16 10.16 0 0 1 7.9-12.2 10.69 10.69 0 0 1 12.6 7.8zM549.5 600a10.16 10.16 0 0 1-7.9 12.2 10.64 10.64 0 0 1-12.6-7.8 10.16 10.16 0 0 1 7.9-12.2 10.77 10.77 0 0 1 12.6 7.8z" transform="translate(-.26 .1)"/>
  <path class="cls-2" d="M518.94 601.9l-17.3 3.7-1.3-5.5 17.3-3.7 1.3 5.5z"/>
  <path class="cls-1" d="M525.7 737.4a29.28 29.28 0 0 0-41.8-.5 30.19 30.19 0 0 0-.7 42.4 29.28 29.28 0 0 0 41.8.5 30.19 30.19 0 0 0 .7-42.4z" transform="translate(-.26 .1)"/>
  <path class="cls-2" d="M502.2 756a2.9 2.9 0 0 1 4.2.1l9.3 9.8a3.11 3.11 0 0 1-.1 4.3 2.9 2.9 0 0 1-4.2-.1l-9.3-9.8a3.11 3.11 0 0 1 .1-4.3z" transform="translate(-.26 .1)"/>
  <path class="cls-2" d="M496.3 778.4l5-21.5a2.9 2.9 0 0 1 3.4-2.2 2.89 2.89 0 0 1 2.1 3.5l-5 21.5a2.9 2.9 0 0 1-3.4 2.2 2.89 2.89 0 0 1-2.1-3.5z" transform="translate(-.26 .1)"/>
  <path class="cls-3" d="M517.8 744l4.2-4.1a.91.91 0 0 1 1.2 0 .91.91 0 0 1 0 1.2l-4.2 4.1a.91.91 0 0 1-1.2 0 .75.75 0 0 1 0-1.2zM486 775.2l4.2-4.1a.91.91 0 0 1 1.2 0 .91.91 0 0 1 0 1.2l-4.2 4.1a.91.91 0 0 1-1.2 0 .91.91 0 0 1 0-1.2zM491.1 745.5l-4-4.2a.91.91 0 0 1 0-1.2.91.91 0 0 1 1.2 0l4 4.2a.91.91 0 0 1 0 1.2.75.75 0 0 1-1.2 0zM521 776.9l-4-4.2a.91.91 0 0 1 0-1.2.91.91 0 0 1 1.2 0l4 4.2a.91.91 0 0 1 0 1.2.91.91 0 0 1-1.2 0z" transform="translate(-.26 .1)"/>
  <path class="cls-2" d="M499.7 761.7a5.8 5.8 0 0 1 .1-8.1 5.59 5.59 0 0 1 8 .1 5.8 5.8 0 0 1-.1 8.1 5.59 5.59 0 0 1-8-.1zM533.3 770.1a6.79 6.79 0 0 1 .2-9.6 6.67 6.67 0 0 1 9.5.1 6.79 6.79 0 0 1-.2 9.6 6.58 6.58 0 0 1-9.5-.1zM506.4 796.6a6.79 6.79 0 0 1 .2-9.6 6.67 6.67 0 0 1 9.5.1 6.79 6.79 0 0 1-.2 9.6 6.58 6.58 0 0 1-9.5-.1z" transform="translate(-.26 .1)"/>
  <path class="cls-2" d="M522.04 785.4l8.1-8.1 2.6 2.7-8.2 8-2.5-2.6z"/>
</svg>
