<?xml version="1.0" encoding="utf-8"?>
<!-- Generator: Adobe Illustrator 21.1.0, SVG Export Plug-In . SVG Version: 6.00 Build 0)  -->
<svg version="1.1" id="Слой_1" xmlns="http://www.w3.org/2000/svg" xmlns:xlink="http://www.w3.org/1999/xlink" x="0px" y="0px"
	 viewBox="0 0 1280 800" style="enable-background:new 0 0 1280 800;" xml:space="preserve">
<style type="text/css">
	.st0{fill:none;stroke:#CCCCCC;stroke-width:14;stroke-miterlimit:10;}
	.st1{fill:#CCCCCC;stroke:#CCCCCC;stroke-width:0.25;stroke-miterlimit:10;}
	.st2{fill:#E6E6E6;stroke:#E6E6E6;stroke-width:0.25;stroke-miterlimit:10;}
</style>
<path class="st0" d="M1164.3,426.3c15.7,17.9,43.4,20.2,61.9,5c18.5-15.2,20.8-42,5.2-59.9c-15.7-17.9-43.4-20.2-61.9-5
	C1150.9,381.5,1148.6,408.4,1164.3,426.3z"/>
<path class="st1" d="M1200.9,402.4L1200.9,402.4c-1.8,1.5-4.6,1.3-6.2-0.5l-12.9-14.8c-1.6-1.8-1.3-4.5,0.5-6l0,0
	c1.8-1.5,4.6-1.3,6.2,0.5l12.9,14.8C1203,398.1,1202.8,400.8,1200.9,402.4z"/>
<path class="st1" d="M1211.9,371.2l-9.4,29.9c-0.7,2.2-3.1,3.4-5.3,2.7l0,0c-2.2-0.7-3.5-3-2.8-5.1l9.4-29.9
	c0.7-2.2,3.1-3.4,5.3-2.7h0C1211.3,366.7,1212.6,369.1,1211.9,371.2z"/>
<path class="st2" d="M1176.7,417.8l-6.6,5.4c-0.5,0.4-1.3,0.4-1.8-0.1l0,0c-0.4-0.5-0.4-1.3,0.1-1.7l6.6-5.4
	c0.5-0.4,1.3-0.4,1.8,0.1l0,0C1177.3,416.5,1177.2,417.3,1176.7,417.8z"/>
<path class="st2" d="M1226.7,376.8l-6.6,5.4c-0.5,0.4-1.3,0.4-1.8-0.1l0,0c-0.4-0.5-0.4-1.3,0.1-1.7l6.6-5.4
	c0.5-0.4,1.3-0.4,1.8,0.1l0,0C1227.3,375.6,1227.3,376.4,1226.7,376.8z"/>
<path class="st2" d="M1216.4,418.3l5.6,6.4c0.4,0.5,0.4,1.3-0.1,1.7l0,0c-0.5,0.4-1.3,0.4-1.8-0.1l-5.6-6.4
	c-0.4-0.5-0.4-1.3,0.1-1.7v0C1215.2,417.7,1216,417.8,1216.4,418.3z"/>
<path class="st2" d="M1175,370.9l5.6,6.4c0.4,0.5,0.4,1.3-0.1,1.7l0,0c-0.5,0.4-1.3,0.4-1.8-0.1l-5.6-6.4c-0.4-0.5-0.4-1.3,0.1-1.7
	l0,0C1173.8,370.3,1174.6,370.4,1175,370.9z"/>
<path class="st1" d="M1205.1,394.5c3,3.4,2.6,8.6-1,11.5c-3.5,2.9-8.9,2.5-11.9-1s-2.6-8.6,1-11.5
	C1196.8,390.7,1202.1,391.1,1205.1,394.5z"/>
<path class="st1" d="M1156.2,379.2c3.6,4.1,3,10.2-1.2,13.6c-4.2,3.4-10.5,2.9-14.1-1.1c-3.6-4.1-3-10.2,1.2-13.6
	C1146.3,374.6,1152.6,375.1,1156.2,379.2z"/>
<path class="st1" d="M1198.6,344.4c3.6,4.1,3,10.2-1.2,13.6c-4.2,3.4-10.5,2.9-14.1-1.1s-3-10.2,1.2-13.6S1195,340.3,1198.6,344.4z"
	/>
<polygon class="st1" points="1174,358.9 1161.1,369.4 1157.6,365.3 1170.4,354.8 "/>
<path class="st0" d="M544.2,71.2c-2.9,23.6,13.9,45.7,37.6,49.4s45.2-12.5,48.1-36.1c2.9-23.6-13.9-45.7-37.6-49.4
	S547.1,47.6,544.2,71.2z"/>
<path class="st1" d="M586.5,82.6L586.5,82.6c-2.4-0.4-4.1-2.6-3.8-5l2.4-19.5c0.3-2.4,2.5-4,4.8-3.6v0c2.4,0.4,4.1,2.6,3.8,5
	L591.3,79C591.1,81.3,588.9,82.9,586.5,82.6z"/>
<path class="st1" d="M617,69.9l-28.6,12.9c-2.1,0.9-4.6,0-5.6-2.1v0c-1-2.1-0.1-4.6,1.9-5.5l28.6-12.9c2.1-0.9,4.6,0,5.6,2.1v0
	C619.9,66.5,619.1,69,617,69.9z"/>
<path class="st2" d="M558.9,74.8l-8.4-1.3c-0.7-0.1-1.2-0.7-1.1-1.4l0,0c0.1-0.7,0.7-1.1,1.4-1l8.4,1.3c0.7,0.1,1.2,0.7,1.1,1.4l0,0
	C560.2,74.4,559.5,74.9,558.9,74.8z"/>
<path class="st2" d="M622.8,84.7l-8.4-1.3c-0.7-0.1-1.2-0.7-1.1-1.4v0c0.1-0.7,0.7-1.1,1.4-1l8.4,1.3c0.7,0.1,1.2,0.7,1.1,1.4v0
	C624.1,84.4,623.4,84.8,622.8,84.7z"/>
<path class="st2" d="M585,104.7l-1,8.4c-0.1,0.7-0.7,1.1-1.4,1l0,0c-0.7-0.1-1.2-0.7-1.1-1.4l1-8.4c0.1-0.7,0.7-1.1,1.4-1l0,0
	C584.6,103.4,585.1,104.1,585,104.7z"/>
<path class="st2" d="M592.6,42.3l-1,8.4c-0.1,0.7-0.7,1.1-1.4,1h0c-0.7-0.1-1.2-0.7-1.1-1.4l1-8.4c0.1-0.7,0.7-1.1,1.4-1l0,0
	C592.2,41,592.7,41.6,592.6,42.3z"/>
<path class="st1" d="M595.1,80.5c-0.6,4.5-4.7,7.6-9.2,6.9s-7.8-4.9-7.2-9.5c0.6-4.5,4.7-7.6,9.2-6.9S595.7,75.9,595.1,80.5z"/>
<path class="st1" d="M573.9,33.8c-0.7,5.4-5.6,9.1-10.9,8.2c-5.4-0.8-9.2-5.9-8.5-11.2c0.7-5.4,5.6-9.1,10.9-8.2
	C570.7,23.4,574.6,28.4,573.9,33.8z"/>
<path class="st1" d="M628.1,42.2c-0.7,5.4-5.6,9.1-10.9,8.2c-5.4-0.8-9.2-5.9-8.5-11.2c0.7-5.4,5.6-9.1,10.9-8.2
	C624.9,31.7,628.7,36.8,628.1,42.2z"/>
<polygon class="st1" points="600.9,33.5 584.5,30.9 585.1,25.6 601.6,28.1 "/>
<path class="st0" d="M582.2,184.9c-13.1-12.6-34.2-12.4-47.1,0.5c-13,12.8-12.9,33.5,0.2,46c13.1,12.6,34.2,12.4,47.1-0.5
	C595.4,218.1,595.3,197.5,582.2,184.9z"/>
<path class="st1" d="M556.1,205.7L556.1,205.7c1.3-1.3,3.4-1.3,4.7,0l10.8,10.4c1.3,1.3,1.3,3.3,0,4.6l0,0c-1.3,1.3-3.4,1.3-4.7,0
	l-10.8-10.4C554.8,209,554.8,207,556.1,205.7z"/>
<path class="st1" d="M550,230.2l5.1-23.5c0.4-1.7,2.1-2.8,3.8-2.5l0,0c1.7,0.4,2.9,2,2.5,3.7l-5.1,23.5c-0.4,1.7-2.1,2.8-3.8,2.5
	l0,0C550.7,233.5,549.6,231.9,550,230.2z"/>
<path class="st2" d="M573.4,192.3l4.6-4.6c0.4-0.4,1-0.4,1.3,0l0,0c0.4,0.4,0.4,1,0,1.3l-4.6,4.6c-0.4,0.4-1,0.4-1.3,0h0
	C573,193.2,573,192.6,573.4,192.3z"/>
<path class="st2" d="M538.4,226.9l4.6-4.6c0.4-0.4,1-0.4,1.3,0l0,0c0.4,0.4,0.4,1,0,1.3l-4.6,4.6c-0.4,0.4-1,0.4-1.3,0l0,0
	C538,227.9,538,227.3,538.4,226.9z"/>
<path class="st2" d="M543.3,194.6l-4.7-4.5c-0.4-0.4-0.4-1,0-1.3l0,0c0.4-0.4,1-0.4,1.3,0l4.7,4.5c0.4,0.4,0.4,1,0,1.3l0,0
	C544.3,194.9,543.7,194.9,543.3,194.6z"/>
<path class="st2" d="M577.9,227.9l-4.7-4.5c-0.4-0.4-0.4-1,0-1.3l0,0c0.4-0.4,1-0.4,1.3,0l4.7,4.5c0.4,0.4,0.4,1,0,1.3l0,0
	C578.8,228.2,578.2,228.2,577.9,227.9z"/>
<path class="st1" d="M553.5,211.9c-2.5-2.4-2.5-6.4,0-8.8c2.5-2.5,6.5-2.5,9-0.1c2.5,2.4,2.5,6.4,0,8.8
	C560,214.3,556,214.3,553.5,211.9z"/>
<path class="st1" d="M591.6,220.3c-3-2.9-3-7.6,0-10.5c2.9-2.9,7.7-3,10.7-0.1c3,2.9,3,7.6,0,10.5
	C599.3,223.1,594.5,223.1,591.6,220.3z"/>
<path class="st1" d="M561.9,249.7c-3-2.9-3-7.6,0-10.5s7.7-3,10.7-0.1c3,2.9,3,7.6,0,10.5C569.6,252.5,564.8,252.5,561.9,249.7z"/>
<polygon class="st1" points="579.5,237 588.5,228 591.4,230.9 582.4,239.8 "/>
<path class="st0" d="M531.7,423.3c21.7,25.1,60,28.3,85.6,7c25.6-21.3,28.8-58.9,7.1-84.1c-21.7-25.1-60-28.3-85.6-7
	S510,398.2,531.7,423.3z"/>
<path class="st1" d="M582.5,389.8L582.5,389.8c-2.6,2.1-6.4,1.8-8.6-0.7l-17.9-20.7c-2.2-2.5-1.8-6.3,0.7-8.4l0,0
	c2.6-2.1,6.4-1.8,8.6,0.7l17.9,20.7C585.4,383.9,585.1,387.7,582.5,389.8z"/>
<path class="st1" d="M597.6,346.1l-13.1,42c-0.9,3-4.3,4.8-7.4,3.8l0,0c-3.1-0.9-4.9-4.2-3.9-7.2l13.1-42c0.9-3,4.3-4.8,7.4-3.8l0,0
	C596.8,339.8,598.6,343.1,597.6,346.1z"/>
<path class="st2" d="M549,411.4l-9.1,7.6c-0.7,0.6-1.8,0.5-2.5-0.2l0,0c-0.6-0.7-0.5-1.8,0.2-2.4l9.1-7.6c0.7-0.6,1.8-0.5,2.5,0.2
	l0,0C549.8,409.7,549.7,410.8,549,411.4z"/>
<path class="st2" d="M618.2,353.9l-9.1,7.6c-0.7,0.6-1.8,0.5-2.5-0.2l0,0c-0.6-0.7-0.5-1.8,0.2-2.4l9.1-7.6c0.7-0.6,1.8-0.5,2.5,0.2
	l0,0C619,352.2,618.9,353.3,618.2,353.9z"/>
<path class="st2" d="M603.9,412.1l7.7,9c0.6,0.7,0.5,1.8-0.2,2.4l0,0c-0.7,0.6-1.8,0.5-2.5-0.2l-7.7-9c-0.6-0.7-0.5-1.8,0.2-2.4l0,0
	C602.2,411.3,603.3,411.4,603.9,412.1z"/>
<path class="st2" d="M546.6,345.7l7.7,9c0.6,0.7,0.5,1.8-0.2,2.4l0,0c-0.7,0.6-1.8,0.5-2.5-0.2l-7.7-9c-0.6-0.7-0.5-1.8,0.2-2.4l0,0
	C544.9,344.9,546,344.9,546.6,345.7z"/>
<path class="st1" d="M588.3,378.8c4.2,4.8,3.5,12-1.4,16.1c-4.9,4.1-12.3,3.5-16.4-1.3s-3.5-12,1.4-16.1S584.1,374,588.3,378.8z"/>
<path class="st1" d="M523.3,348.8c4.9,5.7,4.2,14.3-1.6,19.1c-5.8,4.8-14.5,4.1-19.5-1.6c-4.9-5.7-4.2-14.3,1.6-19.1
	C509.7,342.4,518.4,343.1,523.3,348.8z"/>
<path class="st1" d="M579.2,308.5c4.9,5.7,4.2,14.3-1.6,19.1s-14.5,4.1-19.5-1.6c-4.9-5.7-4.2-14.3,1.6-19.1
	C565.6,302.1,574.3,302.8,579.2,308.5z"/>
<polygon class="st1" points="545.2,328.8 527.4,343.6 522.5,337.9 540.3,323.1 "/>
<path class="st0" d="M659.5,271.2c-9.5,21.8,0.3,47.8,21.9,58.1s46.9,0.9,56.4-20.9c9.5-21.8-0.3-47.8-21.9-58.1
	C694.3,240,669.1,249.4,659.5,271.2z"/>
<path class="st1" d="M696.8,294.2L696.8,294.2c-2.2-1-3.1-3.6-2.2-5.8l7.9-18c1-2.2,3.5-3.1,5.7-2.1h0c2.2,1,3.1,3.6,2.2,5.8
	l-7.9,18C701.5,294.3,699,295.2,696.8,294.2z"/>
<path class="st1" d="M729.6,290.8l-31.1,4.2c-2.3,0.3-4.4-1.3-4.7-3.6l0,0c-0.4-2.3,1.2-4.4,3.5-4.8l31.1-4.2
	c2.3-0.3,4.4,1.3,4.7,3.6l0,0C733.4,288.4,731.9,290.5,729.6,290.8z"/>
<path class="st2" d="M672.5,278.8l-7.7-3.7c-0.6-0.3-0.9-1-0.6-1.7l0,0c0.3-0.6,1-0.9,1.6-0.6l7.7,3.7c0.6,0.3,0.9,1,0.6,1.7l0,0
	C673.9,278.9,673.2,279.1,672.5,278.8z"/>
<path class="st2" d="M730.9,306.6l-7.7-3.7c-0.6-0.3-0.9-1-0.6-1.7l0,0c0.3-0.6,1-0.9,1.6-0.6l7.7,3.7c0.6,0.3,0.9,1,0.6,1.7l0,0
	C732.3,306.6,731.6,306.9,730.9,306.6z"/>
<path class="st2" d="M689,315l-3.4,7.8c-0.3,0.6-1,0.9-1.6,0.6l0,0c-0.6-0.3-0.9-1-0.6-1.7l3.4-7.8c0.3-0.6,1-0.9,1.6-0.6l0,0
	C689,313.6,689.3,314.4,689,315z"/>
<path class="st2" d="M714.2,257.3l-3.4,7.8c-0.3,0.6-1,0.9-1.6,0.6l0,0c-0.6-0.3-0.9-1-0.6-1.7l3.4-7.8c0.3-0.6,1-0.9,1.6-0.6l0,0
	C714.2,256,714.5,256.7,714.2,257.3z"/>
<path class="st1" d="M705.7,294.6c-1.8,4.2-6.7,6-10.8,4c-4.1-2-6-7-4.2-11.1s6.7-6,10.8-4C705.6,285.5,707.5,290.4,705.7,294.6z"/>
<path class="st1" d="M698.7,243.8c-2.2,5-7.9,7.1-12.8,4.8c-4.9-2.3-7.1-8.2-5-13.2c2.2-5,7.9-7.1,12.8-4.8
	C698.6,232.9,700.9,238.8,698.7,243.8z"/>
<path class="st1" d="M748.2,267.3c-2.2,5-7.9,7.1-12.8,4.8c-4.9-2.3-7.1-8.2-5-13.2s7.9-7.1,12.8-4.8S750.4,262.4,748.2,267.3z"/>
<polygon class="st1" points="724.6,251.3 709.6,244.1 711.8,239.2 726.8,246.3 "/>
<path class="st0" d="M785.1,440.5c13.2-12.9,13.6-34.4,1-48c-12.7-13.6-33.6-14.1-46.8-1.2s-13.6,34.4-1,48
	C750.9,452.9,771.9,453.4,785.1,440.5z"/>
<path class="st1" d="M764.8,413.2L764.8,413.2c1.3,1.4,1.2,3.5-0.1,4.8l-10.9,10.6c-1.3,1.3-3.4,1.2-4.7-0.1l0,0
	c-1.3-1.4-1.2-3.5,0.1-4.8l10.9-10.6C761.4,411.8,763.5,411.9,764.8,413.2z"/>
<path class="st1" d="M740.1,406.3l23.7,5.9c1.7,0.4,2.8,2.2,2.4,4l0,0c-0.4,1.8-2.2,2.9-3.9,2.4l-23.7-5.9c-1.7-0.4-2.8-2.2-2.4-4
	l0,0C736.6,406.9,738.4,405.8,740.1,406.3z"/>
<path class="st2" d="M777.9,431.3l4.5,4.8c0.4,0.4,0.3,1,0,1.4l0,0c-0.4,0.4-1,0.4-1.3,0l-4.5-4.8c-0.4-0.4-0.3-1,0-1.4l0,0
	C776.9,430.9,777.5,430.9,777.9,431.3z"/>
<path class="st2" d="M743.7,394.5l4.5,4.8c0.4,0.4,0.3,1,0,1.4l0,0c-0.4,0.4-1,0.4-1.3,0l-4.5-4.8c-0.4-0.4-0.3-1,0-1.4l0,0
	C742.8,394.1,743.4,394.1,743.7,394.5z"/>
<path class="st2" d="M776.5,400.6l4.7-4.6c0.4-0.4,1-0.4,1.3,0l0,0c0.4,0.4,0.3,1,0,1.4l-4.7,4.6c-0.4,0.4-1,0.4-1.3,0l0,0
	C776.1,401.5,776.1,400.9,776.5,400.6z"/>
<path class="st2" d="M741.6,434.7l4.7-4.6c0.4-0.4,1-0.4,1.3,0l0,0c0.4,0.4,0.3,1,0,1.4l-4.7,4.6c-0.4,0.4-1,0.4-1.3,0l0,0
	C741.2,435.7,741.2,435.1,741.6,434.7z"/>
<path class="st1" d="M758.5,410.4c2.5-2.5,6.5-2.4,9,0.2s2.3,6.7-0.2,9.2c-2.5,2.5-6.5,2.4-9-0.2C755.9,417,756,412.9,758.5,410.4z"
	/>
<path class="st1" d="M748.9,448.9c3-2.9,7.8-2.8,10.6,0.3c2.9,3.1,2.8,8-0.2,10.9c-3,2.9-7.8,2.8-10.6-0.3
	C745.8,456.7,745.9,451.8,748.9,448.9z"/>
<path class="st1" d="M719.9,417.8c3-2.9,7.8-2.8,10.6,0.3c2.9,3.1,2.8,8-0.2,10.9c-3,2.9-7.8,2.8-10.6-0.3
	C716.8,425.6,716.9,420.7,719.9,417.8z"/>
<polygon class="st1" points="732.3,436.1 741,445.5 738.1,448.5 729.3,439 "/>
<path class="st0" d="M839.9,294.2c16.3,2.1,31.8-9,34.5-24.9s-8.3-30.4-24.7-32.6c-16.3-2.1-31.8,9-34.5,24.9
	C812.5,277.5,823.6,292.1,839.9,294.2z"/>
<path class="st1" d="M848.1,265.9L848.1,265.9c-0.3,1.6-1.8,2.7-3.5,2.5l-13.5-1.8c-1.6-0.2-2.7-1.7-2.5-3.3l0,0
	c0.3-1.6,1.8-2.7,3.5-2.5l13.5,1.8C847.3,262.9,848.4,264.3,848.1,265.9z"/>
<path class="st1" d="M839.6,245.3l8.7,19.3c0.6,1.4-0.1,3.1-1.5,3.7l0,0c-1.5,0.7-3.2,0-3.8-1.4l-8.7-19.3c-0.6-1.4,0.1-3.1,1.5-3.7
	l0,0C837.3,243.3,839,243.9,839.6,245.3z"/>
<path class="st2" d="M842.5,284.4l-1,5.7c-0.1,0.5-0.5,0.8-1,0.7l0,0c-0.5-0.1-0.8-0.5-0.7-0.9l1-5.7c0.1-0.5,0.5-0.8,1-0.7l0,0
	C842.3,283.6,842.6,284,842.5,284.4z"/>
<path class="st2" d="M849.9,241.6l-1,5.7c-0.1,0.5-0.5,0.8-1,0.7l0,0c-0.5-0.1-0.8-0.5-0.7-0.9l1-5.7c0.1-0.5,0.5-0.8,1-0.7l0,0
	C849.7,240.7,850,241.1,849.9,241.6z"/>
<path class="st2" d="M863.5,267.1l5.8,0.8c0.5,0.1,0.8,0.5,0.7,0.9l0,0c-0.1,0.5-0.5,0.8-1,0.7l-5.8-0.8c-0.5-0.1-0.8-0.5-0.7-0.9
	l0,0C862.5,267.4,863,267.1,863.5,267.1z"/>
<path class="st2" d="M820.2,261.5l5.8,0.8c0.5,0.1,0.8,0.5,0.7,0.9l0,0c-0.1,0.5-0.5,0.8-1,0.7l-5.8-0.8c-0.5-0.1-0.8-0.5-0.7-0.9
	l0,0C819.3,261.7,819.8,261.4,820.2,261.5z"/>
<path class="st1" d="M846.7,260.1c3.1,0.4,5.3,3.2,4.7,6.2c-0.5,3-3.5,5.2-6.6,4.8c-3.1-0.4-5.3-3.2-4.7-6.2
	S843.6,259.7,846.7,260.1z"/>
<path class="st1" d="M814.2,274c3.7,0.5,6.2,3.8,5.6,7.4c-0.6,3.6-4.1,6.1-7.9,5.7c-3.7-0.5-6.2-3.8-5.6-7.4S810.5,273.5,814.2,274z
	"/>
<path class="st1" d="M820.4,237.7c3.7,0.5,6.2,3.8,5.6,7.4c-0.6,3.6-4.1,6.1-7.9,5.7c-3.7-0.5-6.2-3.8-5.6-7.4
	C813.2,239.7,816.7,237.2,820.4,237.7z"/>
<polygon class="st1" points="814.2,255.9 812.3,266.9 808.6,266.4 810.5,255.4 "/>
<path class="st0" d="M865.8,81.5c13.4,19.7,40.6,25.3,60.8,12.4s25.7-39.2,12.4-58.9s-40.6-25.3-60.8-12.4
	C857.9,35.5,852.4,61.8,865.8,81.5z"/>
<path class="st1" d="M905.1,62.2L905.1,62.2c-2,1.3-4.8,0.7-6.1-1.2l-11-16.2c-1.3-2-0.8-4.6,1.2-5.9v0c2-1.3,4.8-0.7,6.1,1.2
	l11,16.2C907.7,58.3,907.1,60.9,905.1,62.2z"/>
<path class="st1" d="M919.7,32.6l-13,28.6c-0.9,2.1-3.5,3-5.6,2.1l0,0c-2.1-0.9-3.1-3.4-2.2-5.5l13-28.6c0.9-2.1,3.5-3,5.6-2.1v0
	C919.7,28.1,920.6,30.6,919.7,32.6z"/>
<path class="st2" d="M879.1,74.6l-7.2,4.6c-0.6,0.4-1.4,0.2-1.7-0.4v0c-0.4-0.6-0.2-1.3,0.4-1.7l7.2-4.6c0.6-0.4,1.4-0.2,1.7,0.4
	l0,0C879.9,73.4,879.7,74.2,879.1,74.6z"/>
<path class="st2" d="M933.8,40l-7.2,4.6c-0.6,0.4-1.4,0.2-1.7-0.4l0,0c-0.4-0.6-0.2-1.3,0.4-1.7l7.2-4.6c0.6-0.4,1.4-0.2,1.7,0.4v0
	C934.5,38.8,934.4,39.6,933.8,40z"/>
<path class="st2" d="M918.5,79.9l4.8,7c0.4,0.6,0.2,1.3-0.4,1.7v0c-0.6,0.4-1.4,0.2-1.7-0.4l-4.8-7c-0.4-0.6-0.2-1.3,0.4-1.7l0,0
	C917.4,79.2,918.1,79.3,918.5,79.9z"/>
<path class="st2" d="M883.2,27.9l4.8,7c0.4,0.6,0.2,1.3-0.4,1.7l0,0c-0.6,0.4-1.4,0.2-1.7-0.4l-4.8-7c-0.4-0.6-0.2-1.3,0.4-1.7v0
	C882,27.1,882.8,27.3,883.2,27.9z"/>
<path class="st1" d="M910.2,54.9c2.6,3.8,1.5,8.8-2.4,11.3c-3.9,2.5-9.1,1.4-11.7-2.4c-2.6-3.8-1.5-8.8,2.4-11.3
	C902.4,50.1,907.6,51.2,910.2,54.9z"/>
<path class="st1" d="M863.4,33.8c3,4.5,1.8,10.5-2.8,13.4c-4.6,2.9-10.8,1.6-13.8-2.8S845,33.9,849.6,31
	C854.2,28,860.4,29.3,863.4,33.8z"/>
<path class="st1" d="M909.7,4.4c3,4.5,1.8,10.5-2.8,13.4c-4.6,2.9-10.8,1.6-13.8-2.8c-3-4.5-1.8-10.5,2.8-13.4
	C900.5-1.3,906.7-0.1,909.7,4.4z"/>
<polygon class="st1" points="883.6,15.8 869.5,24.7 866.5,20.2 880.5,11.3 "/>
<path class="st0" d="M976.6,147.4c-23.8-1-44.5,17.5-46.3,41.3s16,44,39.8,45.1c23.8,1,44.5-17.5,46.3-41.3
	C1018.2,168.6,1000.4,148.4,976.6,147.4z"/>
<path class="st1" d="M968.6,190.4L968.6,190.4c0.2-2.4,2.3-4.3,4.6-4.1l19.6,0.9c2.4,0.1,4.2,2.1,4,4.5v0c-0.2,2.4-2.3,4.3-4.6,4.1
	l-19.6-0.9C970.2,194.9,968.4,192.8,968.6,190.4z"/>
<path class="st1" d="M983.5,219.8l-15.1-27.5c-1.1-2-0.3-4.6,1.7-5.7v0c2-1.2,4.6-0.5,5.7,1.5l15.1,27.5c1.1,2,0.3,4.6-1.7,5.7l0,0
	C987.2,222.5,984.6,221.8,983.5,219.8z"/>
<path class="st2" d="M974.1,162.3l0.6-8.5c0.1-0.7,0.6-1.2,1.3-1.2l0,0c0.7,0,1.2,0.6,1.1,1.3l-0.6,8.5c-0.1,0.7-0.6,1.2-1.3,1.2
	l0,0C974.6,163.5,974.1,163,974.1,162.3z"/>
<path class="st2" d="M969.2,226.8l0.6-8.5c0.1-0.7,0.6-1.2,1.3-1.2l0,0c0.7,0,1.2,0.6,1.1,1.3l-0.6,8.5c-0.1,0.7-0.6,1.2-1.3,1.2
	l0,0C969.7,228,969.2,227.4,969.2,226.8z"/>
<path class="st2" d="M946.3,190.7l-8.5-0.4c-0.7,0-1.2-0.6-1.1-1.3l0,0c0.1-0.7,0.6-1.2,1.3-1.2l8.5,0.4c0.7,0,1.2,0.6,1.1,1.3l0,0
	C947.6,190.1,947,190.7,946.3,190.7z"/>
<path class="st2" d="M1009.2,193.4l-8.5-0.4c-0.7,0-1.2-0.6-1.1-1.3v0c0.1-0.7,0.6-1.2,1.3-1.2l8.5,0.4c0.7,0,1.2,0.6,1.1,1.3l0,0
	C1010.5,192.9,1009.9,193.4,1009.2,193.4z"/>
<path class="st1" d="M971.3,198.9c-4.6-0.2-8-4.1-7.6-8.6s4.3-8.1,8.9-7.9c4.6,0.2,8,4.1,7.6,8.6
	C979.9,195.5,975.9,199.1,971.3,198.9z"/>
<path class="st1" d="M1016.2,174c-5.4-0.2-9.5-4.8-9.1-10.3c0.4-5.4,5.1-9.6,10.5-9.4c5.4,0.2,9.5,4.8,9.1,10.3
	C1026.4,170.1,1021.6,174.3,1016.2,174z"/>
<path class="st1" d="M1012.1,228.7c-5.4-0.2-9.5-4.8-9.1-10.3s5.1-9.6,10.5-9.4c5.4,0.2,9.5,4.8,9.1,10.3
	C1022.2,224.7,1017.5,228.9,1012.1,228.7z"/>
<polygon class="st1" points="1018.6,200.9 1019.9,184.4 1025.3,184.6 1024,201.2 "/>
<path class="st0" d="M1060.1,349.9c18.1,2.3,35.1-9.8,38.2-27.2c3-17.4-9.2-33.3-27.2-35.6s-35.1,9.8-38.2,27.2
	C1029.9,331.6,1042.1,347.6,1060.1,349.9z"/>
<path class="st1" d="M1069.2,318.9L1069.2,318.9c-0.3,1.7-2,3-3.8,2.7l-14.9-1.9c-1.8-0.2-3-1.8-2.7-3.6l0,0c0.3-1.7,2-3,3.8-2.7
	l14.9,1.9C1068.3,315.5,1069.5,317.2,1069.2,318.9z"/>
<path class="st1" d="M1059.8,296.4l9.6,21.1c0.7,1.5-0.1,3.4-1.7,4.1l0,0c-1.6,0.7-3.5,0.1-4.2-1.5l-9.6-21.1
	c-0.7-1.5,0.1-3.4,1.7-4.1l0,0C1057.2,294.2,1059.1,294.8,1059.8,296.4z"/>
<path class="st2" d="M1063,339.1l-1.1,6.2c-0.1,0.5-0.6,0.8-1.1,0.8l0,0c-0.5-0.1-0.9-0.5-0.8-1l1.1-6.2c0.1-0.5,0.6-0.8,1.1-0.8
	l0,0C1062.7,338.2,1063.1,338.6,1063,339.1z"/>
<path class="st2" d="M1071.2,292.3l-1.1,6.2c-0.1,0.5-0.6,0.8-1.1,0.8l0,0c-0.5-0.1-0.9-0.5-0.8-1l1.1-6.2c0.1-0.5,0.6-0.8,1.1-0.8
	l0,0C1070.9,291.3,1071.3,291.8,1071.2,292.3z"/>
<path class="st2" d="M1086.2,320.2l6.4,0.8c0.5,0.1,0.9,0.5,0.8,1l0,0c-0.1,0.5-0.6,0.8-1.1,0.8l-6.4-0.8c-0.5-0.1-0.9-0.5-0.8-1
	l0,0C1085.1,320.5,1085.6,320.1,1086.2,320.2z"/>
<path class="st2" d="M1038.4,314l6.4,0.8c0.5,0.1,0.9,0.5,0.8,1l0,0c-0.1,0.5-0.6,0.8-1.1,0.8l-6.4-0.8c-0.5-0.1-0.9-0.5-0.8-1l0,0
	C1037.4,314.3,1037.9,314,1038.4,314z"/>
<path class="st1" d="M1067.7,312.5c3.5,0.4,5.8,3.5,5.2,6.8c-0.6,3.3-3.9,5.7-7.3,5.2s-5.8-3.5-5.2-6.8
	C1060.9,314.4,1064.2,312.1,1067.7,312.5z"/>
<path class="st1" d="M1029.9,323.4c4.1,0.5,6.9,4.2,6.2,8.1c-0.7,3.9-4.6,6.7-8.7,6.2s-6.9-4.2-6.2-8.1
	C1021.9,325.7,1025.7,322.9,1029.9,323.4z"/>
<path class="st1" d="M1038.6,288c4.1,0.5,6.9,4.2,6.2,8.1c-0.7,3.9-4.6,6.7-8.7,6.2s-6.9-4.2-6.2-8.1
	C1030.6,290.2,1034.5,287.5,1038.6,288z"/>
<polygon class="st1" points="1031.8,307.9 1029.7,319.9 1025.6,319.4 1027.7,307.4 "/>
<path class="st0" d="M1142.6,139.9c29.9,4.1,59.7-17,66.5-47.3c6.9-30.3-11.8-58.2-41.7-62.3s-59.7,17-66.5,47.3
	S1112.7,135.7,1142.6,139.9z"/>
<path class="st1" d="M1161,85.8L1161,85.8c-0.7,3-3.7,5.2-6.7,4.7l-24.6-3.4c-3-0.4-4.9-3.2-4.2-6.3v0c0.7-3,3.7-5.2,6.7-4.7
	l24.6,3.4C1159.8,80,1161.7,82.8,1161,85.8z"/>
<path class="st1" d="M1147.7,46.5l13.9,36.9c1,2.7-0.5,5.9-3.2,7.1v0c-2.8,1.2-5.9,0.1-6.9-2.6L1137.6,51c-1-2.7,0.5-5.9,3.2-7.1
	l0,0C1143.6,42.6,1146.7,43.8,1147.7,46.5z"/>
<path class="st2" d="M1148.5,121.1l-2.4,10.8c-0.2,0.9-1.1,1.5-1.9,1.4h0c-0.9-0.1-1.4-0.9-1.2-1.8l2.4-10.8
	c0.2-0.9,1.1-1.5,1.9-1.4l0,0C1148.2,119.5,1148.7,120.3,1148.5,121.1z"/>
<path class="st2" d="M1167.1,39.4l-2.4,10.8c-0.2,0.9-1.1,1.5-1.9,1.4l0,0c-0.9-0.1-1.4-0.9-1.2-1.8l2.4-10.8
	c0.2-0.9,1.1-1.5,1.9-1.4l0,0C1166.8,37.7,1167.3,38.5,1167.1,39.4z"/>
<path class="st2" d="M1189.1,88.2l10.7,1.5c0.9,0.1,1.4,0.9,1.2,1.8l0,0c-0.2,0.9-1.1,1.5-1.9,1.4l-10.7-1.5
	c-0.9-0.1-1.4-0.9-1.2-1.8l0,0C1187.4,88.7,1188.3,88.1,1189.1,88.2z"/>
<path class="st2" d="M1110.2,77.2l10.7,1.5c0.9,0.1,1.4,0.9,1.2,1.8v0c-0.2,0.9-1.1,1.5-1.9,1.4l-10.7-1.5c-0.9-0.1-1.4-0.9-1.2-1.8
	l0,0C1108.4,77.7,1109.3,77.1,1110.2,77.2z"/>
<path class="st1" d="M1159.1,74.7c5.7,0.8,9.3,6.1,8,11.9c-1.3,5.8-7,9.9-12.8,9.1s-9.3-6.1-8-11.9
	C1147.7,78,1153.4,73.9,1159.1,74.7z"/>
<path class="st1" d="M1097.5,101.1c6.8,0.9,11,7.3,9.5,14.2c-1.6,6.9-8.3,11.7-15.1,10.8c-6.8-0.9-11-7.3-9.5-14.2
	C1084,105,1090.8,100.2,1097.5,101.1z"/>
<path class="st1" d="M1113.3,31.8c6.8,0.9,11,7.3,9.5,14.2s-8.3,11.7-15.1,10.8c-6.8-0.9-11-7.3-9.5-14.2
	C1099.7,35.6,1106.5,30.8,1113.3,31.8z"/>
<polygon class="st1" points="1099.7,66.5 1094.9,87.5 1088.2,86.5 1092.9,65.5 "/>
<path class="st0" d="M1270.6,234.3c1.8-23.7-16.1-45-39.9-47.5s-44.5,14.7-46.3,38.4c-1.8,23.7,16.1,45,39.9,47.5
	C1248.1,275.2,1268.8,258,1270.6,234.3z"/>
<path class="st1" d="M1227.8,225L1227.8,225c2.4,0.3,4.2,2.4,4,4.8l-1.4,19.6c-0.2,2.4-2.3,4.1-4.6,3.9l0,0c-2.4-0.3-4.2-2.4-4-4.8
	l1.4-19.6C1223.3,226.5,1225.4,224.7,1227.8,225z"/>
<path class="st1" d="M1197.9,239.1l27.9-14.3c2-1,4.6-0.2,5.7,1.9l0,0c1.1,2.1,0.3,4.6-1.7,5.6l-27.9,14.3c-2,1-4.6,0.2-5.7-1.9l0,0
	C1195.1,242.6,1195.9,240.1,1197.9,239.1z"/>
<path class="st2" d="M1255.8,231.4l8.5,0.9c0.7,0.1,1.2,0.7,1.1,1.4l0,0c0,0.7-0.6,1.2-1.3,1.1l-8.5-0.9c-0.7-0.1-1.2-0.7-1.1-1.4
	l0,0C1254.5,231.8,1255.1,231.3,1255.8,231.4z"/>
<path class="st2" d="M1191.4,224.6l8.5,0.9c0.7,0.1,1.2,0.7,1.1,1.4l0,0c-0.1,0.7-0.6,1.2-1.3,1.1l-8.5-0.9
	c-0.7-0.1-1.2-0.7-1.1-1.4l0,0C1190.2,225,1190.8,224.5,1191.4,224.6z"/>
<path class="st2" d="M1228.2,202.8l0.6-8.5c0.1-0.7,0.6-1.2,1.3-1.1l0,0c0.7,0.1,1.2,0.7,1.1,1.4l-0.6,8.5c0,0.7-0.6,1.2-1.3,1.1
	l0,0C1228.7,204.1,1228.2,203.4,1228.2,202.8z"/>
<path class="st2" d="M1223.6,265.5l0.6-8.5c0.1-0.7,0.6-1.2,1.3-1.1l0,0c0.7,0.1,1.2,0.7,1.1,1.4l-0.6,8.5c0,0.7-0.6,1.2-1.3,1.1
	l0,0C1224.1,266.8,1223.5,266.2,1223.6,265.5z"/>
<path class="st1" d="M1219.2,227.5c0.3-4.6,4.3-7.9,8.9-7.4c4.6,0.5,8,4.6,7.7,9.1c-0.3,4.6-4.3,7.9-8.9,7.4
	S1218.9,232.1,1219.2,227.5z"/>
<path class="st1" d="M1242.7,273.1c0.4-5.4,5.1-9.3,10.5-8.7c5.4,0.6,9.5,5.4,9.1,10.8c-0.4,5.4-5.1,9.3-10.5,8.7
	C1246.4,283.4,1242.3,278.5,1242.7,273.1z"/>
<path class="st1" d="M1188.2,267.4c0.4-5.4,5.1-9.3,10.5-8.7c5.4,0.6,9.5,5.4,9.1,10.8c-0.4,5.4-5.1,9.3-10.5,8.7
	C1191.9,277.6,1187.8,272.8,1188.2,267.4z"/>
<polygon class="st1" points="1215.8,274.7 1232.3,276.5 1231.9,281.8 1215.4,280.1 "/>
<path class="st0" d="M737.5,173.5c23.7,2.6,45.6-14.4,49-38.1s-13-45-36.7-47.7c-23.7-2.6-45.6,14.4-49,38.1
	C697.4,149.6,713.9,170.9,737.5,173.5z"/>
<path class="st1" d="M748.4,131.1L748.4,131.1c-0.3,2.4-2.6,4.1-4.9,3.8l-19.5-2.2c-2.4-0.3-4-2.4-3.7-4.8v0
	c0.3-2.4,2.6-4.1,4.9-3.8l19.5,2.2C747.1,126.6,748.8,128.8,748.4,131.1z"/>
<path class="st1" d="M735.5,100.8l13.2,28.4c1,2.1,0,4.6-2.1,5.6h0c-2.1,1-4.6,0.2-5.6-1.9l-13.2-28.4c-1-2.1,0-4.6,2.1-5.6l0,0
	C732,97.9,734.5,98.7,735.5,100.8z"/>
<path class="st2" d="M740.9,158.8l-1.2,8.4c-0.1,0.7-0.7,1.2-1.4,1.1l0,0c-0.7-0.1-1.1-0.7-1.1-1.4l1.2-8.4c0.1-0.7,0.7-1.2,1.4-1.1
	l0,0C740.6,157.6,741,158.2,740.9,158.8z"/>
<path class="st2" d="M750.2,94.8l-1.2,8.4c-0.1,0.7-0.7,1.2-1.4,1.1h0c-0.7-0.1-1.1-0.7-1.1-1.4l1.2-8.4c0.1-0.7,0.7-1.2,1.4-1.1
	l0,0C749.8,93.6,750.3,94.2,750.2,94.8z"/>
<path class="st2" d="M770.6,132.4l8.4,0.9c0.7,0.1,1.1,0.7,1.1,1.4l0,0c-0.1,0.7-0.7,1.2-1.4,1.1l-8.4-0.9c-0.7-0.1-1.1-0.7-1.1-1.4
	l0,0C769.3,132.8,769.9,132.3,770.6,132.4z"/>
<path class="st2" d="M708.1,125.4l8.4,0.9c0.7,0.1,1.1,0.7,1.1,1.4l0,0c-0.1,0.7-0.7,1.2-1.4,1.1l-8.4-0.9c-0.7-0.1-1.1-0.7-1.1-1.4
	l0,0C706.8,125.8,707.4,125.4,708.1,125.4z"/>
<path class="st1" d="M746.2,122.5c4.5,0.5,7.7,4.6,7,9.1c-0.7,4.5-4.9,7.8-9.4,7.3s-7.7-4.6-7-9.1
	C737.5,125.3,741.7,122,746.2,122.5z"/>
<path class="st1" d="M699.7,144.3c5.4,0.6,9.1,5.5,8.3,10.8c-0.8,5.4-5.8,9.3-11.1,8.7c-5.4-0.6-9.1-5.5-8.3-10.8
	C689.4,147.5,694.4,143.7,699.7,144.3z"/>
<path class="st1" d="M707.5,90c5.4,0.6,9.1,5.5,8.3,10.8c-0.8,5.4-5.8,9.3-11.1,8.7c-5.4-0.6-9.1-5.5-8.3-10.8
	C697.2,93.3,702.2,89.4,707.5,90z"/>
<polygon class="st1" points="699.2,117.3 696.8,133.7 691.4,133.1 693.8,116.7 "/>
<path class="st0" d="M960.9,390.9c1.2-23.8-17.1-44.6-41-46.6c-23.8-2-44.2,15.7-45.4,39.5s17.1,44.6,41,46.6
	C939.4,432.3,959.7,414.7,960.9,390.9z"/>
<path class="st1" d="M917.9,382.6L917.9,382.6c2.4,0.2,4.2,2.3,4.1,4.7l-1,19.6c-0.1,2.4-2.2,4.2-4.6,4l0,0
	c-2.4-0.2-4.2-2.3-4.1-4.7l1-19.6C913.5,384.2,915.5,382.4,917.9,382.6z"/>
<path class="st1" d="M888.4,397.3l27.6-14.9c2-1.1,4.6-0.3,5.7,1.7v0c1.1,2,0.4,4.6-1.6,5.7l-27.6,14.9c-2,1.1-4.6,0.3-5.7-1.7l0,0
	C885.7,401,886.4,398.4,888.4,397.3z"/>
<path class="st2" d="M946,388.4l8.5,0.7c0.7,0.1,1.2,0.7,1.2,1.3l0,0c0,0.7-0.6,1.2-1.3,1.1l-8.5-0.7c-0.7-0.1-1.2-0.7-1.2-1.3l0,0
	C944.8,388.8,945.4,388.3,946,388.4z"/>
<path class="st2" d="M881.6,383l8.5,0.7c0.7,0.1,1.2,0.7,1.2,1.3l0,0c0,0.7-0.6,1.2-1.3,1.1l-8.5-0.7c-0.7-0.1-1.2-0.7-1.2-1.3l0,0
	C880.3,383.4,880.9,382.9,881.6,383z"/>
<path class="st2" d="M917.9,360.4l0.4-8.5c0-0.7,0.6-1.2,1.3-1.1l0,0c0.7,0.1,1.2,0.7,1.2,1.3l-0.4,8.5c0,0.7-0.6,1.2-1.3,1.1l0,0
	C918.4,361.6,917.8,361,917.9,360.4z"/>
<path class="st2" d="M914.6,423.2l0.4-8.5c0-0.7,0.6-1.2,1.3-1.1l0,0c0.7,0.1,1.2,0.7,1.2,1.3l-0.4,8.5c0,0.7-0.6,1.2-1.3,1.1l0,0
	C915.1,424.5,914.6,423.9,914.6,423.2z"/>
<path class="st1" d="M909.5,385.3c0.2-4.6,4.1-7.9,8.7-7.6c4.6,0.4,8.1,4.4,7.9,8.9c-0.2,4.6-4.1,7.9-8.7,7.6
	C912.7,393.8,909.2,389.8,909.5,385.3z"/>
<path class="st1" d="M933.9,430.4c0.3-5.4,4.9-9.4,10.3-9c5.4,0.4,9.6,5.2,9.3,10.6c-0.3,5.4-4.9,9.4-10.3,9
	C937.8,440.5,933.7,435.8,933.9,430.4z"/>
<path class="st1" d="M879.3,425.8c0.3-5.4,4.9-9.4,10.3-9c5.4,0.4,9.6,5.2,9.3,10.6c-0.3,5.4-4.9,9.4-10.3,9
	C883.2,436,879,431.2,879.3,425.8z"/>
<polygon class="st1" points="907,432.6 923.6,433.9 923.3,439.3 906.8,437.9 "/>
<path class="st0" d="M405.1,169.2c17-14.7,18.9-40.6,4.3-57.7c-14.6-17.1-40.2-19.1-57.2-4.3c-17,14.7-18.9,40.6-4.3,57.7
	S388.1,183.9,405.1,169.2z"/>
<path class="st1" d="M382,135.2L382,135.2c1.5,1.7,1.3,4.3-0.4,5.8l-14,12.1c-1.7,1.5-4.3,1.3-5.7-0.4l0,0c-1.5-1.7-1.3-4.3,0.4-5.8
	l14-12.1C377.9,133.3,380.5,133.5,382,135.2z"/>
<path class="st1" d="M352.2,125.3l28.6,8.6c2.1,0.6,3.3,2.8,2.7,4.9l0,0c-0.6,2.1-2.8,3.3-4.9,2.7l-28.6-8.6
	c-2.1-0.6-3.3-2.8-2.7-4.9v0C347.9,125.8,350.1,124.6,352.2,125.3z"/>
<path class="st2" d="M396.9,157.7l5.2,6.1c0.4,0.5,0.4,1.2-0.1,1.7l0,0c-0.5,0.4-1.2,0.4-1.6-0.1l-5.2-6.1c-0.4-0.5-0.4-1.2,0.1-1.7
	l0,0C395.7,157.1,396.4,157.2,396.9,157.7z"/>
<path class="st2" d="M357.4,111.4l5.2,6.1c0.4,0.5,0.4,1.2-0.1,1.7h0c-0.5,0.4-1.2,0.4-1.6-0.1l-5.2-6.1c-0.4-0.5-0.4-1.2,0.1-1.7
	l0,0C356.3,110.8,357,110.9,357.4,111.4z"/>
<path class="st2" d="M397.1,120.6l6.1-5.3c0.5-0.4,1.2-0.4,1.6,0.1l0,0c0.4,0.5,0.4,1.2-0.1,1.7l-6.1,5.3c-0.5,0.4-1.2,0.4-1.6-0.1
	l0,0C396.5,121.8,396.6,121.1,397.1,120.6z"/>
<path class="st2" d="M352.2,159.6l6.1-5.3c0.5-0.4,1.2-0.4,1.6,0.1v0c0.4,0.5,0.4,1.2-0.1,1.7l-6.1,5.3c-0.5,0.4-1.2,0.4-1.6-0.1
	l0,0C351.6,160.8,351.7,160,352.2,159.6z"/>
<path class="st1" d="M374.5,131.4c3.3-2.8,8.2-2.5,11,0.8c2.8,3.3,2.4,8.2-0.8,11.1c-3.3,2.8-8.2,2.5-11-0.8
	C370.9,139.1,371.2,134.2,374.5,131.4z"/>
<path class="st1" d="M360.2,177.1c3.9-3.4,9.7-2.9,13,1c3.3,3.9,2.9,9.8-1,13.1c-3.9,3.4-9.7,2.9-13-1
	C355.9,186.3,356.3,180.5,360.2,177.1z"/>
<path class="st1" d="M326.7,137.9c3.9-3.4,9.7-2.9,13,1c3.3,3.9,2.9,9.8-1,13.1c-3.9,3.4-9.7,2.9-13-1
	C322.4,147.1,322.9,141.2,326.7,137.9z"/>
<polygon class="st1" points="340.7,160.7 350.9,172.6 347,175.9 336.9,164 "/>
<path class="st0" d="M71,749.8c22.6,2.5,43.5-13.3,46.9-35.4c3.3-22.1-12.3-42-34.9-44.5c-22.6-2.5-43.5,13.3-46.9,35.4
	S48.5,747.3,71,749.8z"/>
<path class="st1" d="M81.5,710.3L81.5,710.3c-0.3,2.2-2.4,3.8-4.7,3.6l-18.6-2.1c-2.3-0.3-3.8-2.3-3.5-4.5h0
	c0.3-2.2,2.4-3.8,4.7-3.6l18.6,2.1C80.3,706.1,81.9,708.1,81.5,710.3z"/>
<path class="st1" d="M69.3,682l12.6,26.5c0.9,1.9,0,4.3-2,5.2h0c-2,0.9-4.4,0.2-5.3-1.8L62,685.4c-0.9-1.9,0-4.3,2-5.2h0
	C66,679.3,68.4,680.1,69.3,682z"/>
<path class="st2" d="M74.3,736.1l-1.2,7.9c-0.1,0.6-0.7,1.1-1.3,1l0,0c-0.6-0.1-1.1-0.6-1-1.3l1.2-7.9c0.1-0.6,0.7-1.1,1.3-1l0,0
	C74,734.9,74.4,735.5,74.3,736.1z"/>
<path class="st2" d="M83.3,676.5l-1.2,7.9c-0.1,0.6-0.7,1.1-1.3,1h0c-0.6-0.1-1.1-0.6-1-1.3l1.2-7.9c0.1-0.6,0.7-1.1,1.3-1h0
	C83,675.3,83.4,675.9,83.3,676.5z"/>
<path class="st2" d="M102.7,711.5l8,0.9c0.6,0.1,1.1,0.6,1,1.3v0c-0.1,0.6-0.7,1.1-1.3,1l-8-0.9c-0.6-0.1-1.1-0.6-1-1.3l0,0
	C101.5,711.9,102.1,711.5,102.7,711.5z"/>
<path class="st2" d="M43.1,704.9l8,0.9c0.6,0.1,1.1,0.6,1,1.3l0,0c-0.1,0.6-0.7,1.1-1.3,1l-8-0.9c-0.6-0.1-1.1-0.6-1-1.3l0,0
	C41.8,705.3,42.4,704.8,43.1,704.9z"/>
<path class="st1" d="M79.5,702.3c4.3,0.5,7.3,4.3,6.7,8.5s-4.7,7.3-9,6.8c-4.3-0.5-7.3-4.3-6.7-8.5
	C71.1,704.8,75.1,701.8,79.5,702.3z"/>
<path class="st1" d="M35.1,722.4c5.1,0.6,8.7,5.1,7.9,10.1s-5.5,8.6-10.7,8s-8.7-5.1-7.9-10.1C25.2,725.4,29.9,721.8,35.1,722.4z"/>
<path class="st1" d="M42.7,671.9c5.1,0.6,8.7,5.1,7.9,10.1c-0.8,5-5.5,8.6-10.7,8s-8.7-5.1-7.9-10.1
	C32.8,674.9,37.5,671.3,42.7,671.9z"/>
<polygon class="st1" points="34.6,697.3 32.3,712.6 27.2,712 29.5,696.7 "/>
<ellipse transform="matrix(0.6962 -0.7178 0.7178 0.6962 -466.4959 368.0126)" class="st0" cx="201.6" cy="735.2" rx="31" ry="31.2"/>
<path class="st1" d="M199.2,737.7L199.2,737.7c-1.2-1.2-1.3-3.2-0.1-4.4l9.8-10.1c1.2-1.2,3.2-1.3,4.4-0.1l0,0
	c1.2,1.2,1.3,3.2,0.1,4.4l-9.8,10.1C202.4,738.8,200.4,738.9,199.2,737.7z"/>
<path class="st1" d="M222.6,743.2l-22.4-4.6c-1.6-0.3-2.7-1.9-2.4-3.6l0,0c0.3-1.6,1.9-2.7,3.5-2.3l22.4,4.6
	c1.6,0.3,2.7,1.9,2.4,3.6l0,0C225.8,742.5,224.2,743.5,222.6,743.2z"/>
<path class="st2" d="M186.3,721.7l-4.4-4.3c-0.4-0.3-0.4-0.9,0-1.3l0,0c0.3-0.4,0.9-0.4,1.3,0l4.4,4.3c0.4,0.3,0.4,0.9,0,1.3l0,0
	C187.2,722,186.6,722,186.3,721.7z"/>
<path class="st2" d="M219.6,754.1l-4.4-4.3c-0.4-0.3-0.4-0.9,0-1.3l0,0c0.3-0.4,0.9-0.4,1.3,0l4.4,4.3c0.4,0.3,0.4,0.9,0,1.3l0,0
	C220.6,754.4,220,754.4,219.6,754.1z"/>
<path class="st2" d="M188.7,749.7l-4.2,4.4c-0.3,0.4-0.9,0.4-1.3,0l0,0c-0.4-0.3-0.4-0.9,0-1.3l4.2-4.4c0.3-0.4,0.9-0.4,1.3,0l0,0
	C189.1,748.8,189.1,749.3,188.7,749.7z"/>
<path class="st2" d="M220.2,717.2l-4.2,4.4c-0.3,0.4-0.9,0.4-1.3,0h0c-0.4-0.3-0.4-0.9,0-1.3l4.2-4.4c0.3-0.4,0.9-0.4,1.3,0l0,0
	C220.6,716.3,220.6,716.9,220.2,717.2z"/>
<ellipse transform="matrix(0.6962 -0.7178 0.7178 0.6962 -467.2118 367.7737)" class="st1" cx="200.9" cy="735.9" rx="5.9" ry="6"/>
<ellipse transform="matrix(0.6962 -0.7178 0.7178 0.6962 -439.0597 361.6657)" class="st1" cx="207.8" cy="699.6" rx="7" ry="7.1"/>
<ellipse transform="matrix(0.6962 -0.7178 0.7178 0.6962 -450.1616 390.3065)" class="st1" cx="236.1" cy="727" rx="7" ry="7.1"/>
<rect x="224" y="704.1" transform="matrix(0.6962 -0.7178 0.7178 0.6962 -441.0848 377.904)" class="st1" width="3.9" height="11.9"/>
<path class="st0" d="M410.7,741.7c23.8-20.4,26.5-56.2,6-79.9c-20.5-23.7-56.4-26.4-80.3-6c-23.8,20.4-26.5,56.2-6,79.9
	C351,759.4,386.9,762.1,410.7,741.7z"/>
<path class="st1" d="M378.3,694.7L378.3,694.7c2,2.4,1.8,6-0.6,8l-19.6,16.8c-2.4,2-6,1.8-8.1-0.6l0,0c-2-2.4-1.8-6,0.6-8l19.6-16.8
	C372.7,692,376.3,692.3,378.3,694.7z"/>
<path class="st1" d="M336.6,680.9l40.1,11.9c2.9,0.9,4.6,3.9,3.7,6.8l0,0c-0.9,2.9-4,4.6-6.9,3.7l-40.1-11.9
	c-2.9-0.9-4.6-3.9-3.7-6.8l0,0C330.6,681.7,333.6,680,336.6,680.9z"/>
<path class="st2" d="M399.2,725.8l7.3,8.5c0.6,0.7,0.5,1.7-0.2,2.3l0,0c-0.7,0.6-1.7,0.5-2.3-0.2l-7.3-8.5c-0.6-0.7-0.5-1.7,0.2-2.3
	l0,0C397.6,725,398.6,725.1,399.2,725.8z"/>
<path class="st2" d="M343.9,661.7l7.3,8.5c0.6,0.7,0.5,1.7-0.2,2.3l0,0c-0.7,0.6-1.7,0.5-2.3-0.2l-7.3-8.5c-0.6-0.7-0.5-1.7,0.2-2.3
	l0,0C342.2,660.9,343.3,661,343.9,661.7z"/>
<path class="st2" d="M399.5,674.5l8.5-7.3c0.7-0.6,1.7-0.5,2.3,0.2l0,0c0.6,0.7,0.5,1.7-0.2,2.3l-8.5,7.3c-0.7,0.6-1.7,0.5-2.3-0.2
	l0,0C398.7,676.1,398.8,675.1,399.5,674.5z"/>
<path class="st2" d="M336.5,728.4l8.5-7.3c0.7-0.6,1.7-0.5,2.3,0.2l0,0c0.6,0.7,0.5,1.7-0.2,2.3l-8.5,7.3c-0.7,0.6-1.7,0.5-2.3-0.2
	h0C335.7,730,335.8,729,336.5,728.4z"/>
<path class="st1" d="M367.8,689.4c4.6-3.9,11.5-3.4,15.4,1.1c3.9,4.5,3.4,11.4-1.2,15.3c-4.6,3.9-11.5,3.4-15.4-1.1
	C362.7,700.1,363.2,693.3,367.8,689.4z"/>
<path class="st1" d="M339.7,750.2c5.4-4.6,13.6-4,18.3,1.4s4,13.5-1.4,18.2c-5.4,4.6-13.6,4-18.3-1.4S334.3,754.8,339.7,750.2z"/>
<path class="st1" d="M300.8,698.4c5.4-4.6,13.6-4,18.3,1.4s4,13.5-1.4,18.2s-13.6,4-18.3-1.4S295.4,703,300.8,698.4z"/>
<polygon class="st1" points="320.4,729.9 334.6,746.4 329.3,751 315,734.5 "/>
<path class="st0" d="M261,640.8c20.9,8.7,45.6-0.6,55.3-20.8c9.6-20.2,0.5-43.7-20.4-52.4c-20.9-8.7-45.6,0.6-55.3,20.8
	S240.1,632.1,261,640.8z"/>
<path class="st1" d="M282.6,605.9L282.6,605.9c-1,2-3.5,3-5.5,2.1l-17.2-7.2c-2.1-0.9-3-3.2-2-5.3l0,0c1-2,3.5-3,5.5-2.1l17.2,7.2
	C282.6,601.5,283.6,603.8,282.6,605.9z"/>
<path class="st1" d="M279.1,575.3l4.3,28.9c0.3,2.1-1.2,4.1-3.4,4.4l0,0c-2.2,0.3-4.3-1.1-4.6-3.2l-4.3-28.9
	c-0.3-2.1,1.2-4.1,3.4-4.4l0,0C276.8,571.8,278.8,573.2,279.1,575.3z"/>
<path class="st2" d="M268.1,628.6l-3.4,7.2c-0.3,0.6-1,0.8-1.6,0.6l0,0c-0.6-0.2-0.9-0.9-0.6-1.5l3.4-7.2c0.3-0.6,1-0.8,1.6-0.6l0,0
	C268.1,627.3,268.4,628,268.1,628.6z"/>
<path class="st2" d="M294.2,574l-3.4,7.2c-0.3,0.6-1,0.8-1.6,0.6l0,0c-0.6-0.2-0.9-0.9-0.6-1.5l3.4-7.2c0.3-0.6,1-0.8,1.6-0.6l0,0
	C294.2,572.7,294.5,573.4,294.2,574z"/>
<path class="st2" d="M302.5,613l7.4,3.1c0.6,0.2,0.9,0.9,0.6,1.5l0,0c-0.3,0.6-1,0.8-1.6,0.6l-7.4-3.1c-0.6-0.2-0.9-0.9-0.6-1.5l0,0
	C301.2,613,301.9,612.7,302.5,613z"/>
<path class="st2" d="M247.3,589.9l7.4,3.1c0.6,0.2,0.9,0.9,0.6,1.5l0,0c-0.3,0.6-1,0.8-1.6,0.6l-7.4-3.1c-0.6-0.2-0.9-0.9-0.6-1.5
	l0,0C246,590,246.7,589.7,247.3,589.9z"/>
<path class="st1" d="M282.9,597.6c4,1.7,5.8,6.2,3.9,10c-1.8,3.9-6.6,5.7-10.6,4c-4-1.7-5.8-6.2-3.9-10S278.9,595.9,282.9,597.6z"/>
<path class="st1" d="M234.5,604.5c4.7,2,6.8,7.3,4.6,11.9c-2.2,4.6-7.8,6.7-12.6,4.7c-4.7-2-6.8-7.3-4.6-11.9
	C224.1,604.6,229.8,602.5,234.5,604.5z"/>
<path class="st1" d="M256.6,558.2c4.7,2,6.8,7.3,4.6,11.9s-7.8,6.7-12.6,4.7c-4.7-2-6.8-7.3-4.6-11.9
	C246.2,558.3,251.8,556.2,256.6,558.2z"/>
<polygon class="st1" points="241.4,580.3 234.7,594.3 230,592.3 236.7,578.3 "/>
<path class="st0" d="M432.7,505.1c-11.3-11.8-30-12.1-41.8-0.5c-11.7,11.6-12.1,30.6-0.7,42.4c11.3,11.8,30,12.1,41.8,0.5
	S444,517,432.7,505.1z"/>
<path class="st1" d="M409.1,523.7L409.1,523.7c1.2-1.2,3.1-1.1,4.2,0.1l9.3,9.8c1.1,1.2,1.1,3.1-0.1,4.3l0,0
	c-1.2,1.2-3.1,1.1-4.2-0.1L409,528C407.9,526.8,407.9,524.9,409.1,523.7z"/>
<path class="st1" d="M403.2,546.2l5-21.5c0.4-1.6,1.9-2.5,3.4-2.2l0,0c1.5,0.4,2.5,1.9,2.1,3.5l-5,21.5c-0.4,1.6-1.9,2.5-3.4,2.2
	l0,0C403.8,549.3,402.8,547.7,403.2,546.2z"/>
<path class="st2" d="M424.7,511.7l4.2-4.1c0.3-0.3,0.9-0.3,1.2,0l0,0c0.3,0.3,0.3,0.9,0,1.2l-4.2,4.1c-0.3,0.3-0.9,0.3-1.2,0l0,0
	C424.4,512.6,424.4,512.1,424.7,511.7z"/>
<path class="st2" d="M393,543l4.2-4.1c0.3-0.3,0.9-0.3,1.2,0l0,0c0.3,0.3,0.3,0.9,0,1.2l-4.2,4.1c-0.3,0.3-0.9,0.3-1.2,0l0,0
	C392.6,543.8,392.6,543.3,393,543z"/>
<path class="st2" d="M398,513.3l-4-4.2c-0.3-0.3-0.3-0.9,0-1.2l0,0c0.3-0.3,0.9-0.3,1.2,0l4,4.2c0.3,0.3,0.3,0.9,0,1.2l0,0
	C398.9,513.6,398.3,513.6,398,513.3z"/>
<path class="st2" d="M428,544.6l-4-4.2c-0.3-0.3-0.3-0.9,0-1.2l0,0c0.3-0.3,0.9-0.3,1.2,0l4,4.2c0.3,0.3,0.3,0.9,0,1.2l0,0
	C428.8,544.9,428.3,544.9,428,544.6z"/>
<path class="st1" d="M406.7,529.5c-2.2-2.3-2.1-5.9,0.1-8.1s5.8-2.2,8,0.1c2.2,2.3,2.1,5.9-0.1,8.1S408.8,531.7,406.7,529.5z"/>
<path class="st1" d="M440.2,537.9c-2.6-2.7-2.5-7,0.2-9.6s6.9-2.6,9.5,0.1c2.6,2.7,2.5,7-0.2,9.6
	C447.1,540.6,442.8,540.6,440.2,537.9z"/>
<path class="st1" d="M413.3,564.4c-2.6-2.7-2.5-7,0.2-9.6s6.9-2.6,9.5,0.1c2.6,2.7,2.5,7-0.2,9.6
	C420.2,567.1,415.9,567.1,413.3,564.4z"/>
<polygon class="st1" points="429.2,553 437.4,545 439.9,547.7 431.8,555.7 "/>
<path class="st0" d="M281.6,472.5c1.9-15.3-8.8-29.6-24-32c-15.2-2.4-29,8-30.9,23.2c-1.9,15.3,8.8,29.6,24,32
	C265.8,498.2,279.7,487.8,281.6,472.5z"/>
<path class="st1" d="M254.5,465.1L254.5,465.1c1.5,0.2,2.6,1.7,2.4,3.2l-1.6,12.6c-0.2,1.5-1.6,2.6-3.1,2.3h0
	c-1.5-0.2-2.6-1.7-2.4-3.2l1.6-12.6C251.6,465.9,253,464.8,254.5,465.1z"/>
<path class="st1" d="M234.9,473.2l18.4-8.3c1.3-0.6,2.9,0,3.6,1.4l0,0c0.6,1.4,0.1,3-1.3,3.6l-18.4,8.3c-1.3,0.6-2.9,0-3.6-1.4h0
	C233,475.4,233.6,473.8,234.9,473.2z"/>
<path class="st2" d="M272.2,470.2l5.4,0.9c0.4,0.1,0.7,0.5,0.7,0.9v0c-0.1,0.4-0.5,0.7-0.9,0.7l-5.4-0.9c-0.4-0.1-0.7-0.5-0.7-0.9
	l0,0C271.4,470.4,271.8,470.1,272.2,470.2z"/>
<path class="st2" d="M231.2,463.6l5.4,0.9c0.4,0.1,0.7,0.5,0.7,0.9l0,0c-0.1,0.4-0.5,0.7-0.9,0.7l-5.4-0.9c-0.4-0.1-0.7-0.5-0.7-0.9
	l0,0C230.4,463.8,230.8,463.5,231.2,463.6z"/>
<path class="st2" d="M255.5,450.8l0.7-5.4c0.1-0.4,0.5-0.7,0.9-0.7l0,0c0.4,0.1,0.7,0.5,0.7,0.9l-0.7,5.4c-0.1,0.4-0.5,0.7-0.9,0.7
	l0,0C255.8,451.6,255.5,451.2,255.5,450.8z"/>
<path class="st2" d="M250.5,491.1l0.7-5.4c0.1-0.4,0.5-0.7,0.9-0.7l0,0c0.4,0.1,0.7,0.5,0.7,0.9l-0.7,5.4c-0.1,0.4-0.5,0.7-0.9,0.7
	l0,0C250.7,491.9,250.4,491.5,250.5,491.1z"/>
<path class="st1" d="M248.9,466.4c0.4-2.9,3-4.9,5.9-4.5c2.9,0.5,5,3.2,4.6,6.1c-0.4,2.9-3,4.9-5.9,4.5
	C250.6,472.1,248.6,469.3,248.9,466.4z"/>
<path class="st1" d="M262.5,496.6c0.4-3.5,3.6-5.8,7-5.3s5.9,3.8,5.5,7.3c-0.4,3.5-3.6,5.8-7,5.3C264.5,503.3,262,500.1,262.5,496.6
	z"/>
<path class="st1" d="M227.8,491.1c0.4-3.5,3.6-5.8,7-5.3c3.4,0.6,5.9,3.8,5.5,7.3c-0.4,3.5-3.6,5.8-7,5.3
	C229.8,497.8,227.3,494.5,227.8,491.1z"/>
<polygon class="st1" points="245.1,496.7 255.7,498.4 255.2,501.9 244.7,500.2 "/>
<path class="st0" d="M78.4,450.1c18.7-12.6,23.8-38,11.4-56.8c-12.4-18.7-37.6-23.7-56.3-11.1s-23.8,38-11.4,56.8
	C34.6,457.7,59.7,462.7,78.4,450.1z"/>
<path class="st1" d="M59.7,413.6L59.7,413.6c1.2,1.9,0.7,4.4-1.1,5.7l-15.4,10.4c-1.9,1.3-4.4,0.8-5.6-1.1h0
	c-1.2-1.9-0.7-4.4,1.1-5.7l15.4-10.4C55.9,411.2,58.5,411.7,59.7,413.6z"/>
<path class="st1" d="M31.4,400.2l27.3,11.9c2,0.9,2.9,3.2,2,5.2l0,0c-0.9,2-3.2,2.9-5.2,2.1l-27.3-11.9c-2-0.9-2.9-3.2-2-5.2h0
	C27.1,400.2,29.4,399.3,31.4,400.2z"/>
<path class="st2" d="M71.7,437.6l4.4,6.7c0.4,0.5,0.2,1.3-0.3,1.6l0,0c-0.5,0.4-1.3,0.2-1.6-0.3l-4.4-6.7c-0.4-0.5-0.2-1.3,0.3-1.6
	l0,0C70.6,437,71.3,437.1,71.7,437.6z"/>
<path class="st2" d="M38.3,387l4.4,6.7c0.4,0.5,0.2,1.3-0.3,1.6l0,0c-0.5,0.4-1.3,0.2-1.6-0.3l-4.4-6.7c-0.4-0.5-0.2-1.3,0.3-1.6
	l0,0C37.2,386.3,37.9,386.5,38.3,387z"/>
<path class="st2" d="M76.5,400.9l6.7-4.5c0.5-0.4,1.3-0.2,1.6,0.3l0,0c0.4,0.5,0.2,1.3-0.3,1.6l-6.7,4.5c-0.5,0.4-1.3,0.2-1.6-0.3
	l0,0C75.8,402,75.9,401.3,76.5,400.9z"/>
<path class="st2" d="M27.1,434.3l6.7-4.5c0.5-0.4,1.3-0.2,1.6,0.3h0c0.4,0.5,0.2,1.3-0.3,1.6l-6.7,4.5c-0.5,0.4-1.3,0.2-1.6-0.3h0
	C26.4,435.3,26.6,434.6,27.1,434.3z"/>
<path class="st1" d="M52.7,408.9c3.6-2.4,8.4-1.5,10.8,2.1s1.4,8.5-2.2,10.9s-8.4,1.5-10.8-2.1C48.2,416.2,49.1,411.3,52.7,408.9z"
	/>
<path class="st1" d="M32.9,452.6c4.2-2.9,10-1.7,12.8,2.5s1.7,10-2.6,12.9s-10,1.7-12.8-2.5S28.6,455.5,32.9,452.6z"/>
<path class="st1" d="M4.5,409.7c4.2-2.9,10-1.7,12.8,2.5s1.7,10-2.6,12.9s-10,1.7-12.8-2.5S0.3,412.5,4.5,409.7z"/>
<polygon class="st1" points="15.6,434 24.2,447 19.9,449.8 11.3,436.8 "/>
<path class="st0" d="M125.8,337.9c-1.1,29.5,23.4,55.1,54.8,57.1s57.7-20.3,58.9-49.9c1.1-29.5-23.4-55.1-54.8-57.1
	S126.9,308.3,125.8,337.9z"/>
<path class="st1" d="M182.5,347.4L182.5,347.4c-3.1-0.2-5.6-2.8-5.5-5.7l0.9-24.3c0.1-3,2.8-5.2,5.9-5h0c3.1,0.2,5.6,2.8,5.5,5.7
	l-0.9,24.3C188.3,345.3,185.6,347.5,182.5,347.4z"/>
<path class="st1" d="M220.9,328.5l-36,19.1c-2.6,1.4-6,0.5-7.6-2v0c-1.5-2.5-0.7-5.7,1.9-7.1l36-19.1c2.6-1.4,6-0.5,7.6,2h0
	C224.4,323.9,223.6,327.1,220.9,328.5z"/>
<path class="st2" d="M145.4,340.7l-11.2-0.7c-0.9-0.1-1.6-0.8-1.6-1.6l0,0c0-0.8,0.8-1.5,1.7-1.4l11.2,0.7c0.9,0.1,1.6,0.8,1.6,1.6
	l0,0C147,340.1,146.3,340.8,145.4,340.7z"/>
<path class="st2" d="M230.2,346.1l-11.2-0.7c-0.9-0.1-1.6-0.8-1.6-1.6l0,0c0-0.8,0.8-1.5,1.7-1.4l11.2,0.7c0.9,0.1,1.6,0.8,1.6,1.6
	l0,0C231.8,345.5,231.1,346.2,230.2,346.1z"/>
<path class="st2" d="M183,374.9l-0.4,10.5c0,0.8-0.8,1.5-1.7,1.4l0,0c-0.9-0.1-1.6-0.8-1.6-1.6l0.4-10.5c0-0.8,0.8-1.5,1.7-1.4h0
	C182.3,373.3,183,374.1,183,374.9z"/>
<path class="st2" d="M185.9,296.9l-0.4,10.5c0,0.8-0.8,1.5-1.7,1.4l0,0c-0.9-0.1-1.6-0.8-1.6-1.6l0.4-10.5c0-0.8,0.8-1.5,1.7-1.4
	l0,0C185.2,295.3,185.9,296,185.9,296.9z"/>
<path class="st1" d="M193.5,343.8c-0.2,5.7-5.3,9.9-11.3,9.6c-6-0.4-10.7-5.3-10.5-10.9c0.2-5.7,5.3-9.9,11.3-9.6
	C189,333.2,193.7,338.1,193.5,343.8z"/>
<path class="st1" d="M160.4,288.3c-0.3,6.7-6.2,11.8-13.4,11.3c-7.1-0.5-12.7-6.3-12.5-13c0.3-6.7,6.2-11.8,13.4-11.3
	S160.7,281.6,160.4,288.3z"/>
<path class="st1" d="M232.3,292.9c-0.3,6.7-6.2,11.8-13.4,11.3c-7.1-0.5-12.7-6.3-12.5-13c0.3-6.7,6.2-11.8,13.4-11.3
	S232.6,286.2,232.3,292.9z"/>
<polygon class="st1" points="195.7,285.1 173.9,283.7 174.2,277 196,278.4 "/>
<path class="st0" d="M317,229.8c2.1-16.8-9.7-32.7-26.2-35.3c-16.6-2.7-31.7,8.8-33.8,25.7c-2.1,16.8,9.7,32.7,26.2,35.3
	C299.8,258.2,314.9,246.7,317,229.8z"/>
<path class="st1" d="M287.3,221.6L287.3,221.6c1.7,0.3,2.8,1.9,2.6,3.5l-1.7,13.9c-0.2,1.7-1.7,2.8-3.4,2.6l0,0
	c-1.7-0.3-2.8-1.9-2.6-3.5l1.7-13.9C284.2,222.5,285.7,221.4,287.3,221.6z"/>
<path class="st1" d="M265.9,230.5l20.1-9.2c1.5-0.7,3.2,0,3.9,1.5l0,0c0.7,1.5,0.1,3.3-1.4,3.9l-20.1,9.2c-1.5,0.7-3.2,0-3.9-1.5
	l0,0C263.9,233,264.5,231.2,265.9,230.5z"/>
<path class="st2" d="M306.7,227.2l5.9,1c0.5,0.1,0.8,0.5,0.8,1v0c-0.1,0.5-0.5,0.8-1,0.7l-5.9-1c-0.5-0.1-0.8-0.5-0.8-1l0,0
	C305.8,227.5,306.2,227.2,306.7,227.2z"/>
<path class="st2" d="M261.9,220l5.9,1c0.5,0.1,0.8,0.5,0.8,1l0,0c-0.1,0.5-0.5,0.8-1,0.7l-5.9-1c-0.5-0.1-0.8-0.5-0.8-1l0,0
	C261,220.2,261.5,219.9,261.9,220z"/>
<path class="st2" d="M288.5,205.8l0.7-6c0.1-0.5,0.5-0.8,1-0.7l0,0c0.5,0.1,0.8,0.5,0.8,1l-0.7,6c-0.1,0.5-0.5,0.8-1,0.7l0,0
	C288.8,206.7,288.4,206.3,288.5,205.8z"/>
<path class="st2" d="M283,250.3l0.7-6c0.1-0.5,0.5-0.8,1-0.7l0,0c0.5,0.1,0.8,0.5,0.8,1l-0.7,6c-0.1,0.5-0.5,0.8-1,0.7l0,0
	C283.2,251.3,282.9,250.8,283,250.3z"/>
<path class="st1" d="M281.3,223.1c0.4-3.2,3.3-5.4,6.5-4.9c3.2,0.5,5.4,3.5,5,6.8c-0.4,3.2-3.3,5.4-6.5,4.9
	C283.1,229.4,280.9,226.3,281.3,223.1z"/>
<path class="st1" d="M292,258.3c0.5-3.8,3.9-6.4,7.7-5.8c3.8,0.6,6.4,4.2,6,8c-0.5,3.8-3.9,6.4-7.7,5.8
	C294.2,265.7,291.5,262.1,292,258.3z"/>
<path class="st1" d="M258.1,250.4c0.5-3.8,3.9-6.4,7.7-5.8c3.8,0.6,6.4,4.2,6,8c-0.5,3.8-3.9,6.4-7.7,5.8
	C260.3,257.8,257.6,254.2,258.1,250.4z"/>
<polygon class="st1" points="277.1,256.6 288.6,258.5 288.2,262.3 276.7,260.4 "/>
<path class="st0" d="M132,191.6c3.7-27.9-16.7-55.5-45.6-61.6c-28.9-6.2-55.4,11.4-59.1,39.3s16.7,55.5,45.6,61.6
	C101.8,237.1,128.3,219.5,132,191.6z"/>
<path class="st1" d="M80.3,174.9L80.3,174.9c2.9,0.6,5,3.4,4.6,6.2l-3.1,23c-0.4,2.8-3,4.6-5.9,3.9h0c-2.9-0.6-5-3.4-4.6-6.2l3.1-23
	C74.7,176,77.4,174.3,80.3,174.9z"/>
<path class="st1" d="M42.9,187.6L78,174.4c2.5-1,5.6,0.4,6.8,3l0,0c1.2,2.6,0.1,5.5-2.4,6.4L47.3,197c-2.5,1-5.6-0.4-6.8-3l0,0
	C39.2,191.4,40.3,188.5,42.9,187.6z"/>
<path class="st2" d="M114.1,186.2l10.3,2.2c0.8,0.2,1.4,1,1.3,1.8l0,0c-0.1,0.8-0.9,1.3-1.7,1.1l-10.3-2.2c-0.8-0.2-1.4-1-1.3-1.8h0
	C112.5,186.6,113.3,186.1,114.1,186.2z"/>
<path class="st2" d="M35.9,169.5l10.3,2.2c0.8,0.2,1.4,1,1.3,1.8l0,0c-0.1,0.8-0.9,1.3-1.7,1.1l-10.3-2.2c-0.8-0.2-1.4-1-1.3-1.8
	l0,0C34.3,169.9,35.1,169.4,35.9,169.5z"/>
<path class="st2" d="M82.3,148.6l1.3-9.9c0.1-0.8,0.9-1.3,1.7-1.1h0c0.8,0.2,1.4,1,1.3,1.8l-1.3,9.9c-0.1,0.8-0.9,1.3-1.7,1.1h0
	C82.8,150.2,82.2,149.4,82.3,148.6z"/>
<path class="st2" d="M72.5,222.3l1.3-9.9c0.1-0.8,0.9-1.3,1.7-1.1h0c0.8,0.2,1.4,1,1.3,1.8l-1.3,9.9c-0.1,0.8-0.9,1.3-1.7,1.1h0
	C73,223.9,72.4,223.1,72.5,222.3z"/>
<path class="st1" d="M69.7,176.7c0.7-5.3,5.8-8.7,11.3-7.5s9.5,6.5,8.7,11.8c-0.7,5.3-5.8,8.7-11.3,7.5
	C72.9,187.4,69,182.1,69.7,176.7z"/>
<path class="st1" d="M95.4,233.9c0.8-6.3,6.9-10.3,13.4-8.9c6.6,1.4,11.2,7.7,10.4,14s-6.9,10.3-13.4,8.9
	C99.2,246.5,94.5,240.2,95.4,233.9z"/>
<path class="st1" d="M29.1,219.8c0.8-6.3,6.9-10.3,13.4-8.9c6.6,1.4,11.2,7.7,10.4,14c-0.8,6.3-6.9,10.3-13.4,8.9
	S28.2,226.1,29.1,219.8z"/>
<polygon class="st1" points="62.3,232.2 82.4,236.4 81.5,242.8 61.5,238.5 "/>
<path class="st0" d="M221.1,71.6c-22.7-1.4-42.8,15.4-45,37.6s14.4,41.4,37,42.8s42.8-15.4,45-37.6
	C260.3,92.2,243.8,73.1,221.1,71.6z"/>
<path class="st1" d="M212.5,111.6L212.5,111.6c0.2-2.2,2.3-3.9,4.5-3.8l18.7,1.2c2.3,0.1,3.9,2.1,3.7,4.3v0
	c-0.2,2.2-2.3,3.9-4.5,3.8l-18.7-1.2C214,115.7,212.3,113.8,212.5,111.6z"/>
<path class="st1" d="M226.2,139.3l-13.9-25.9c-1-1.9-0.2-4.3,1.7-5.3l0,0c2-1,4.4-0.4,5.4,1.5l13.9,25.9c1,1.9,0.2,4.3-1.7,5.3l0,0
	C229.6,141.8,227.2,141.2,226.2,139.3z"/>
<path class="st2" d="M218.5,85.4l0.8-7.9c0.1-0.6,0.6-1.1,1.3-1.1l0,0c0.6,0,1.1,0.6,1.1,1.2l-0.8,7.9c-0.1,0.6-0.6,1.1-1.3,1.1l0,0
	C218.9,86.6,218.4,86.1,218.5,85.4z"/>
<path class="st2" d="M212.4,145.4l0.8-7.9c0.1-0.6,0.6-1.1,1.3-1.1h0c0.6,0,1.1,0.6,1.1,1.2l-0.8,7.9c-0.1,0.6-0.6,1.1-1.3,1.1l0,0
	C212.9,146.6,212.4,146.1,212.4,145.4z"/>
<path class="st2" d="M191.4,111.3l-8.1-0.5c-0.6,0-1.1-0.6-1.1-1.2l0,0c0.1-0.6,0.6-1.1,1.3-1.1l8.1,0.5c0.6,0,1.1,0.6,1.1,1.2l0,0
	C192.6,110.9,192,111.4,191.4,111.3z"/>
<path class="st2" d="M251.3,115.2l-8.1-0.5c-0.6,0-1.1-0.6-1.1-1.2l0,0c0.1-0.6,0.6-1.1,1.3-1.1l8.1,0.5c0.6,0,1.1,0.6,1.1,1.2l0,0
	C252.5,114.7,251.9,115.2,251.3,115.2z"/>
<path class="st1" d="M215,119.5c-4.3-0.3-7.5-4-7.1-8.2c0.4-4.3,4.3-7.5,8.6-7.2c4.3,0.3,7.5,4,7.1,8.2S219.4,119.8,215,119.5z"/>
<path class="st1" d="M258.4,97.3c-5.2-0.3-8.9-4.7-8.4-9.7s5.1-8.9,10.2-8.5c5.2,0.3,8.9,4.7,8.4,9.7
	C268.1,93.8,263.5,97.6,258.4,97.3z"/>
<path class="st1" d="M253.3,148.1c-5.2-0.3-8.9-4.7-8.4-9.7c0.5-5,5.1-8.9,10.2-8.5c5.2,0.3,8.9,4.7,8.4,9.7
	C263,144.6,258.4,148.4,253.3,148.1z"/>
<polygon class="st1" points="260.1,122.4 261.6,107 266.8,107.3 265.2,122.7 "/>
<path class="st0" d="M167.2,568.9c2.3-22.1-14.1-42.4-36.7-45.4c-22.6-3-42.9,12.5-45.2,34.5c-2.3,22.1,14.1,42.4,36.7,45.4
	C144.6,606.4,164.8,590.9,167.2,568.9z"/>
<path class="st1" d="M126.6,559L126.6,559c2.3,0.3,3.9,2.3,3.7,4.6l-1.9,18.2c-0.2,2.2-2.3,3.8-4.5,3.5h0c-2.3-0.3-3.9-2.3-3.7-4.6
	l1.9-18.2C122.3,560.3,124.4,558.7,126.6,559z"/>
<path class="st1" d="M97.8,571.3l27-12.6c2-0.9,4.4-0.1,5.4,1.9v0c1,1.9,0.2,4.3-1.8,5.2l-27,12.6c-2,0.9-4.4,0.1-5.4-1.9l0,0
	C95,574.6,95.8,572.2,97.8,571.3z"/>
<path class="st2" d="M153.1,565.8l8.1,1.1c0.6,0.1,1.1,0.7,1.1,1.3l0,0c-0.1,0.6-0.6,1.1-1.3,1l-8.1-1.1c-0.6-0.1-1.1-0.7-1.1-1.3
	l0,0C151.9,566.1,152.5,565.7,153.1,565.8z"/>
<path class="st2" d="M92,557.7l8.1,1.1c0.6,0.1,1.1,0.7,1.1,1.3h0c-0.1,0.6-0.6,1.1-1.3,1l-8.1-1.1c-0.6-0.1-1.1-0.7-1.1-1.3l0,0
	C90.8,558,91.4,557.6,92,557.7z"/>
<path class="st2" d="M127.7,538.4l0.8-7.9c0.1-0.6,0.6-1.1,1.3-1l0,0c0.6,0.1,1.1,0.7,1.1,1.3l-0.8,7.9c-0.1,0.6-0.6,1.1-1.3,1l0,0
	C128.1,539.6,127.6,539,127.7,538.4z"/>
<path class="st2" d="M121.5,596.7l0.8-7.9c0.1-0.6,0.6-1.1,1.3-1l0,0c0.6,0.1,1.1,0.7,1.1,1.3l-0.8,7.9c-0.1,0.6-0.6,1.1-1.3,1l0,0
	C121.9,597.9,121.4,597.3,121.5,596.7z"/>
<path class="st1" d="M118.4,561.2c0.4-4.2,4.3-7.2,8.7-6.6c4.3,0.6,7.5,4.5,7,8.7s-4.3,7.2-8.7,6.6S118,565.4,118.4,561.2z"/>
<path class="st1" d="M139.5,604.3c0.5-5,5.1-8.5,10.3-7.9c5.1,0.7,8.9,5.3,8.4,10.3c-0.5,5-5.1,8.5-10.3,7.9
	C142.7,613.9,139,609.3,139.5,604.3z"/>
<path class="st1" d="M87.7,597.4c0.5-5,5.1-8.5,10.3-7.9s8.9,5.3,8.4,10.3s-5.1,8.5-10.3,7.9S87.2,602.5,87.7,597.4z"/>
<polygon class="st1" points="113.8,605 129.5,607.1 129,612.1 113.3,610 "/>
<path class="st0" d="M372.9,359c-22.7-1-42.5,16.3-44.2,38.5c-1.7,22.2,15.3,41,38,42c22.7,1,42.5-16.3,44.2-38.5
	C412.6,378.7,395.6,359.9,372.9,359z"/>
<path class="st1" d="M365.2,399.1L365.2,399.1c0.2-2.2,2.2-4,4.4-3.9l18.7,0.8c2.3,0.1,4,2,3.8,4.2l0,0c-0.2,2.2-2.2,4-4.4,3.9
	l-18.7-0.8C366.8,403.2,365.1,401.4,365.2,399.1z"/>
<path class="st1" d="M379.5,426.5l-14.4-25.6c-1-1.9-0.3-4.3,1.6-5.3l0,0c1.9-1.1,4.4-0.5,5.4,1.4l14.4,25.6c1,1.9,0.3,4.3-1.6,5.3
	l0,0C383,429,380.6,428.4,379.5,426.5z"/>
<path class="st2" d="M370.6,372.9l0.6-7.9c0-0.6,0.6-1.1,1.3-1.1l0,0c0.6,0,1.1,0.6,1.1,1.2l-0.6,7.9c0,0.6-0.6,1.1-1.3,1.1l0,0
	C371,374,370.5,373.5,370.6,372.9z"/>
<path class="st2" d="M365.9,433l0.6-7.9c0-0.6,0.6-1.1,1.3-1.1l0,0c0.6,0,1.1,0.6,1.1,1.2l-0.6,7.9c0,0.6-0.6,1.1-1.3,1.1l0,0
	C366.4,434.1,365.9,433.6,365.9,433z"/>
<path class="st2" d="M344.1,399.3L336,399c-0.6,0-1.1-0.6-1.1-1.2l0,0c0-0.6,0.6-1.1,1.3-1.1l8.1,0.3c0.6,0,1.1,0.6,1.1,1.2l0,0
	C345.3,398.9,344.7,399.4,344.1,399.3z"/>
<path class="st2" d="M404,401.8l-8.1-0.3c-0.6,0-1.1-0.6-1.1-1.2l0,0c0-0.6,0.6-1.1,1.3-1.1l8.1,0.3c0.6,0,1.1,0.6,1.1,1.2l0,0
	C405.2,401.4,404.7,401.9,404,401.8z"/>
<path class="st1" d="M367.9,407c-4.3-0.2-7.6-3.8-7.3-8.1c0.3-4.3,4.1-7.6,8.5-7.4c4.3,0.2,7.6,3.8,7.3,8
	C376.1,403.9,372.3,407.2,367.9,407z"/>
<path class="st1" d="M410.7,383.8c-5.2-0.2-9-4.5-8.6-9.5s4.9-9,10-8.8c5.2,0.2,9,4.5,8.6,9.5S415.9,384,410.7,383.8z"/>
<path class="st1" d="M406.8,434.8c-5.2-0.2-9-4.5-8.6-9.5c0.4-5.1,4.9-9,10-8.8c5.2,0.2,9,4.5,8.6,9.5S412,435,406.8,434.8z"/>
<polygon class="st1" points="413,408.9 414.2,393.4 419.3,393.6 418.2,409.1 "/>
<path class="st0" d="M1096.3,769.1c13.8,14.9,38.2,16.8,54.5,4.2c16.3-12.6,18.3-35,4.5-49.9c-13.8-14.9-38.2-16.8-54.5-4.2
	C1084.6,731.8,1082.5,754.2,1096.3,769.1z"/>
<path class="st1" d="M1128.6,749.2L1128.6,749.2c-1.6,1.3-4.1,1.1-5.5-0.4l-11.4-12.3c-1.4-1.5-1.2-3.7,0.5-5l0,0
	c1.6-1.3,4.1-1.1,5.5,0.4l11.4,12.3C1130.5,745.7,1130.3,747.9,1128.6,749.2z"/>
<path class="st1" d="M1138.3,723.3l-8.3,24.9c-0.6,1.8-2.7,2.8-4.7,2.3l0,0c-2-0.6-3.1-2.5-2.5-4.3l8.3-24.9
	c0.6-1.8,2.7-2.8,4.7-2.3l0,0C1137.7,719.5,1138.9,721.4,1138.3,723.3z"/>
<path class="st2" d="M1107.3,762l-5.8,4.5c-0.5,0.4-1.2,0.3-1.6-0.1l0,0c-0.4-0.4-0.3-1.1,0.1-1.4l5.8-4.5c0.5-0.4,1.2-0.3,1.6,0.1
	l0,0C1107.8,761,1107.8,761.7,1107.3,762z"/>
<path class="st2" d="M1151.4,727.9l-5.8,4.5c-0.5,0.4-1.2,0.3-1.6-0.1l0,0c-0.4-0.4-0.3-1.1,0.1-1.4l5.8-4.5
	c0.5-0.4,1.2-0.3,1.6,0.1l0,0C1151.9,726.9,1151.8,727.5,1151.4,727.9z"/>
<path class="st2" d="M1142.3,762.5l4.9,5.3c0.4,0.4,0.3,1.1-0.1,1.4l0,0c-0.5,0.4-1.2,0.3-1.6-0.1l-4.9-5.3
	c-0.4-0.4-0.3-1.1,0.1-1.4l0,0C1141.2,762,1141.9,762,1142.3,762.5z"/>
<path class="st2" d="M1105.8,723l4.9,5.3c0.4,0.4,0.3,1.1-0.1,1.4l0,0c-0.5,0.4-1.2,0.3-1.6-0.1l-4.9-5.3c-0.4-0.4-0.3-1.1,0.1-1.4
	l0,0C1104.7,722.5,1105.4,722.6,1105.8,723z"/>
<path class="st1" d="M1132.3,742.7c2.6,2.9,2.3,7.2-0.9,9.6s-7.8,2.1-10.4-0.8c-2.6-2.9-2.3-7.2,0.9-9.6S1129.7,739.8,1132.3,742.7z
	"/>
<path class="st1" d="M1089.2,729.9c3.1,3.4,2.7,8.5-1,11.4c-3.7,2.9-9.3,2.5-12.4-0.9c-3.1-3.4-2.7-8.5,1-11.4
	C1080.5,726.1,1086.1,726.5,1089.2,729.9z"/>
<path class="st1" d="M1126.5,700.9c3.1,3.4,2.7,8.5-1,11.4c-3.7,2.9-9.3,2.5-12.4-0.9c-3.1-3.4-2.7-8.5,1-11.4
	C1117.9,697.1,1123.4,697.5,1126.5,700.9z"/>
<polygon class="st1" points="1104.9,713 1093.6,721.7 1090.5,718.4 1101.8,709.6 "/>
<path class="st0" d="M810.8,659.1c14.4,1.8,28-7.5,30.4-20.7c2.4-13.2-7.3-25.4-21.7-27.1c-14.4-1.8-28,7.5-30.4,20.7
	S796.4,657.3,810.8,659.1z"/>
<path class="st1" d="M818,635.5L818,635.5c-0.2,1.3-1.6,2.3-3.1,2.1l-11.9-1.5c-1.4-0.2-2.4-1.4-2.2-2.7l0,0
	c0.2-1.3,1.6-2.3,3.1-2.1l11.9,1.5C817.3,632.9,818.3,634.2,818,635.5z"/>
<path class="st1" d="M810.5,618.3l7.7,16.1c0.6,1.2,0,2.6-1.3,3.1l0,0c-1.3,0.5-2.8,0-3.4-1.1l-7.7-16.1c-0.6-1.2,0-2.6,1.3-3.1l0,0
	C808.5,616.7,810,617.2,810.5,618.3z"/>
<path class="st2" d="M813.1,650.9l-0.9,4.7c-0.1,0.4-0.5,0.6-0.9,0.6l0,0c-0.4-0.1-0.7-0.4-0.6-0.8l0.9-4.7c0.1-0.4,0.5-0.6,0.9-0.6
	l0,0C812.9,650.2,813.1,650.5,813.1,650.9z"/>
<path class="st2" d="M819.6,615.2l-0.9,4.7c-0.1,0.4-0.5,0.6-0.9,0.6l0,0c-0.4-0.1-0.7-0.4-0.6-0.8l0.9-4.7c0.1-0.4,0.5-0.6,0.9-0.6
	l0,0C819.4,614.5,819.7,614.8,819.6,615.2z"/>
<path class="st2" d="M831.5,636.5l5.1,0.6c0.4,0.1,0.7,0.4,0.6,0.8l0,0c-0.1,0.4-0.5,0.6-0.9,0.6l-5.1-0.6c-0.4-0.1-0.7-0.4-0.6-0.8
	l0,0C830.7,636.7,831.1,636.4,831.5,636.5z"/>
<path class="st2" d="M793.5,631.8l5.1,0.6c0.4,0.1,0.7,0.4,0.6,0.8l0,0c-0.1,0.4-0.5,0.6-0.9,0.6l-5.1-0.6c-0.4-0.1-0.7-0.4-0.6-0.8
	l0,0C792.7,632,793.1,631.7,793.5,631.8z"/>
<path class="st1" d="M816.8,630.6c2.8,0.3,4.6,2.7,4.2,5.2c-0.5,2.5-3.1,4.3-5.8,4c-2.8-0.3-4.6-2.7-4.2-5.2
	C811.4,632.1,814,630.3,816.8,630.6z"/>
<path class="st1" d="M788.1,642.2c3.3,0.4,5.5,3.2,4.9,6.2c-0.5,3-3.6,5.1-6.9,4.7s-5.5-3.2-4.9-6.2
	C781.8,643.9,784.9,641.8,788.1,642.2z"/>
<path class="st1" d="M793.6,612c3.3,0.4,5.5,3.2,4.9,6.2c-0.5,3-3.6,5.1-6.9,4.7c-3.3-0.4-5.5-3.2-4.9-6.2
	C787.3,613.7,790.4,611.5,793.6,612z"/>
<polygon class="st1" points="788.2,627.1 786.5,636.3 783.2,635.9 784.9,626.7 "/>
<path class="st0" d="M899.7,595.3c20.1,22,55.1,23.9,78,4.1c23-19.7,25.2-53.6,5.1-75.6c-20.1-22-55.1-23.9-78-4.1
	C881.9,539.5,879.6,573.3,899.7,595.3z"/>
<path class="st1" d="M945.4,563.9L945.4,563.9c-2.3,2-5.8,1.8-7.8-0.4L921,545.4c-2-2.2-1.8-5.6,0.5-7.6l0,0c2.3-2,5.8-1.8,7.8,0.4
	l16.6,18.1C947.9,558.6,947.7,562,945.4,563.9z"/>
<path class="st1" d="M958.4,524.4l-11.2,38c-0.8,2.8-3.8,4.4-6.6,3.6l0,0c-2.8-0.8-4.5-3.6-3.7-6.4l11.2-38c0.8-2.8,3.8-4.4,6.6-3.6
	l0,0C957.6,518.7,959.2,521.6,958.4,524.4z"/>
<path class="st2" d="M915.2,584.2l-8.2,7c-0.7,0.6-1.7,0.5-2.2-0.1l0,0c-0.6-0.6-0.5-1.6,0.1-2.2l8.2-7c0.7-0.6,1.7-0.5,2.2,0.1l0,0
	C915.9,582.6,915.8,583.6,915.2,584.2z"/>
<path class="st2" d="M977.3,530.9l-8.2,7c-0.7,0.6-1.7,0.5-2.2-0.1l0,0c-0.6-0.6-0.5-1.6,0.1-2.2l8.2-7c0.7-0.6,1.7-0.5,2.2,0.1l0,0
	C978,529.3,977.9,530.3,977.3,530.9z"/>
<path class="st2" d="M965.2,583.5l7.2,7.9c0.6,0.6,0.5,1.6-0.1,2.2l0,0c-0.7,0.6-1.7,0.5-2.2-0.1l-7.2-7.9c-0.6-0.6-0.5-1.6,0.1-2.2
	l0,0C963.7,582.8,964.7,582.8,965.2,583.5z"/>
<path class="st2" d="M912,525.2l7.2,7.9c0.6,0.6,0.5,1.6-0.1,2.2l0,0c-0.7,0.6-1.7,0.5-2.2-0.1l-7.2-7.9c-0.6-0.6-0.5-1.6,0.1-2.2
	l0,0C910.4,524.6,911.4,524.6,912,525.2z"/>
<path class="st1" d="M950.4,553.9c3.9,4.2,3.4,10.7-1,14.5c-4.4,3.8-11.1,3.4-15-0.8c-3.9-4.2-3.4-10.7,1-14.5
	C939.9,549.4,946.6,549.7,950.4,553.9z"/>
<path class="st1" d="M888.5,536.3c4.6,5,4.1,12.7-1.2,17.2s-13.2,4.1-17.7-0.9s-4.1-12.7,1.2-17.2
	C875.9,530.9,883.9,531.3,888.5,536.3z"/>
<path class="st1" d="M941,491.1c4.6,5,4.1,12.7-1.2,17.2s-13.2,4.1-17.7-0.9c-4.6-5-4.1-12.7,1.2-17.2
	C928.5,485.7,936.5,486.1,941,491.1z"/>
<polygon class="st1" points="910.4,510.1 894.5,523.8 889.9,518.9 905.8,505.1 "/>
<path class="st0" d="M1004.7,705.5c15.9,1.9,30.9-8.2,33.6-22.7c2.7-14.5-8.1-27.8-24-29.7c-15.9-1.9-30.9,8.2-33.6,22.7
	C978,690.2,988.8,703.5,1004.7,705.5z"/>
<path class="st1" d="M1012.7,679.6L1012.7,679.6c-0.3,1.4-1.8,2.5-3.4,2.3l-13.1-1.6c-1.6-0.2-2.7-1.5-2.4-3l0,0
	c0.3-1.4,1.8-2.5,3.4-2.3l13.1,1.6C1011.8,676.8,1012.9,678.2,1012.7,679.6z"/>
<path class="st1" d="M1004.4,660.9l8.5,17.6c0.6,1.3-0.1,2.8-1.5,3.4l0,0c-1.4,0.6-3.1,0-3.7-1.2l-8.5-17.6
	c-0.6-1.3,0.1-2.8,1.5-3.4h0C1002.1,659,1003.8,659.6,1004.4,660.9z"/>
<path class="st2" d="M1007.2,696.5l-0.9,5.2c-0.1,0.4-0.5,0.7-1,0.6l0,0c-0.5-0.1-0.8-0.4-0.7-0.9l0.9-5.2c0.1-0.4,0.5-0.7,1-0.6
	l0,0C1007,695.7,1007.3,696.1,1007.2,696.5z"/>
<path class="st2" d="M1014.4,657.4l-0.9,5.2c-0.1,0.4-0.5,0.7-1,0.6l0,0c-0.5-0.1-0.8-0.4-0.7-0.9l0.9-5.2c0.1-0.4,0.5-0.7,1-0.6h0
	C1014.2,656.6,1014.5,657,1014.4,657.4z"/>
<path class="st2" d="M1027.6,680.7l5.7,0.7c0.5,0.1,0.8,0.4,0.7,0.9l0,0c-0.1,0.4-0.5,0.7-1,0.6l-5.7-0.7c-0.5-0.1-0.8-0.4-0.7-0.9
	l0,0C1026.7,681,1027.1,680.7,1027.6,680.7z"/>
<path class="st2" d="M985.6,675.6l5.7,0.7c0.5,0.1,0.8,0.4,0.7,0.9l0,0c-0.1,0.4-0.5,0.7-1,0.6l-5.7-0.7c-0.5-0.1-0.8-0.4-0.7-0.9
	l0,0C984.7,675.8,985.1,675.5,985.6,675.6z"/>
<path class="st1" d="M1011.3,674.3c3,0.4,5.1,2.9,4.6,5.7s-3.4,4.7-6.4,4.3c-3-0.4-5.1-2.9-4.6-5.7
	C1005.4,675.9,1008.3,674,1011.3,674.3z"/>
<path class="st1" d="M978,683.4c3.6,0.4,6.1,3.5,5.5,6.8c-0.6,3.3-4,5.6-7.6,5.2s-6.1-3.5-5.5-6.8C971,685.3,974.4,683,978,683.4z"
	/>
<path class="st1" d="M985.7,653.9c3.6,0.4,6.1,3.5,5.5,6.8c-0.6,3.3-4,5.6-7.6,5.2c-3.6-0.4-6.1-3.5-5.5-6.8
	C978.7,655.8,982.1,653.4,985.7,653.9z"/>
<polygon class="st1" points="979.7,670.5 977.8,680.5 974.2,680.1 976.1,670 "/>
<path class="st0" d="M1077.3,530.4c26.3,3.5,52.5-14.2,58.6-39.4s-10.4-48.5-36.7-51.9s-52.5,14.2-58.6,39.4S1051,527,1077.3,530.4z
	"/>
<path class="st1" d="M1093.5,485.4L1093.5,485.4c-0.6,2.5-3.2,4.3-5.9,4l-21.7-2.8c-2.6-0.3-4.3-2.7-3.7-5.2l0,0
	c0.6-2.5,3.2-4.3,5.9-4l21.7,2.8C1092.4,480.5,1094.1,482.9,1093.5,485.4z"/>
<path class="st1" d="M1081.8,452.6l12.2,30.8c0.9,2.2-0.4,4.9-2.9,5.9h0c-2.5,1-5.2,0.1-6.1-2.2l-12.2-30.8
	c-0.9-2.2,0.4-4.9,2.9-5.9l0,0C1078.2,449.4,1080.9,450.4,1081.8,452.6z"/>
<path class="st2" d="M1082.5,514.8l-2.2,9c-0.2,0.7-0.9,1.2-1.7,1.1l0,0c-0.8-0.1-1.2-0.8-1.1-1.5l2.2-9c0.2-0.7,0.9-1.2,1.7-1.1
	l0,0C1082.2,513.4,1082.7,514.1,1082.5,514.8z"/>
<path class="st2" d="M1098.9,446.7l-2.2,9c-0.2,0.7-0.9,1.2-1.7,1.1l0,0c-0.8-0.1-1.2-0.8-1.1-1.5l2.2-9c0.2-0.7,0.9-1.2,1.7-1.1v0
	C1098.6,445.3,1099,445.9,1098.9,446.7z"/>
<path class="st2" d="M1118.2,487.4l9.4,1.2c0.8,0.1,1.2,0.8,1.1,1.5l0,0c-0.2,0.7-0.9,1.2-1.7,1.1l-9.4-1.2
	c-0.8-0.1-1.2-0.8-1.1-1.5l0,0C1116.7,487.8,1117.5,487.3,1118.2,487.4z"/>
<path class="st2" d="M1048.7,478.2l9.4,1.2c0.8,0.1,1.2,0.8,1.1,1.5l0,0c-0.2,0.7-0.9,1.2-1.7,1.1l-9.4-1.2
	c-0.8-0.1-1.2-0.8-1.1-1.5l0,0C1047.2,478.6,1048,478.1,1048.7,478.2z"/>
<path class="st1" d="M1091.8,476.1c5,0.7,8.2,5.1,7,10c-1.2,4.8-6.2,8.2-11.2,7.6c-5-0.7-8.2-5.1-7-10S1086.8,475.5,1091.8,476.1z"
	/>
<path class="st1" d="M1037.6,498.1c6,0.8,9.7,6.1,8.3,11.8c-1.4,5.7-7.3,9.8-13.3,9c-6-0.8-9.7-6.1-8.3-11.8
	C1025.7,501.4,1031.6,497.4,1037.6,498.1z"/>
<path class="st1" d="M1051.4,440.4c6,0.8,9.7,6.1,8.3,11.8s-7.3,9.8-13.3,9c-6-0.8-9.7-6.1-8.3-11.8
	C1039.5,443.6,1045.5,439.6,1051.4,440.4z"/>
<polygon class="st1" points="1039.5,469.3 1035.3,486.8 1029.3,486 1033.5,468.5 "/>
<path class="st0" d="M1189.9,609.1c1.5-19.8-14.2-37.5-35.1-39.6c-21-2.1-39.2,12.2-40.7,32s14.2,37.5,35.1,39.6
	S1188.4,628.9,1189.9,609.1z"/>
<path class="st1" d="M1152.2,601.4L1152.2,601.4c2.1,0.2,3.7,2,3.5,4l-1.3,16.3c-0.2,2-2,3.4-4.1,3.2l0,0c-2.1-0.2-3.7-2-3.5-4
	l1.3-16.3C1148.3,602.6,1150.2,601.2,1152.2,601.4z"/>
<path class="st1" d="M1126,613.1l24.6-11.9c1.8-0.9,4-0.2,5,1.5l0,0c1,1.7,0.3,3.8-1.5,4.7l-24.6,11.9c-1.8,0.9-4,0.2-5-1.5l0,0
	C1123.5,616.1,1124.2,614,1126,613.1z"/>
<path class="st2" d="M1176.9,606.7l7.5,0.7c0.6,0.1,1.1,0.6,1,1.1l0,0c0,0.6-0.6,1-1.2,0.9l-7.5-0.7c-0.6-0.1-1.1-0.6-1-1.1l0,0
	C1175.8,607.1,1176.3,606.7,1176.9,606.7z"/>
<path class="st2" d="M1120.3,601l7.5,0.7c0.6,0.1,1.1,0.6,1,1.1l0,0c0,0.6-0.6,1-1.2,0.9l-7.5-0.7c-0.6-0.1-1.1-0.6-1-1.1l0,0
	C1119.2,601.4,1119.7,601,1120.3,601z"/>
<path class="st2" d="M1152.7,582.9l0.5-7.1c0-0.6,0.6-1,1.2-0.9l0,0c0.6,0.1,1.1,0.6,1,1.1l-0.5,7.1c0,0.6-0.6,1-1.2,0.9l0,0
	C1153.1,583.9,1152.6,583.4,1152.7,582.9z"/>
<path class="st2" d="M1148.6,635.2l0.5-7.1c0-0.6,0.6-1,1.2-0.9l0,0c0.6,0.1,1.1,0.6,1,1.1l-0.5,7.1c0,0.6-0.6,1-1.2,0.9l0,0
	C1149,636.2,1148.5,635.7,1148.6,635.2z"/>
<path class="st1" d="M1144.8,603.5c0.3-3.8,3.8-6.5,7.8-6.1c4,0.4,7,3.8,6.7,7.6s-3.8,6.5-7.8,6.1
	C1147.5,610.7,1144.5,607.3,1144.8,603.5z"/>
<path class="st1" d="M1165.4,641.5c0.4-4.5,4.5-7.8,9.3-7.3c4.8,0.5,8.3,4.5,8,9c-0.4,4.5-4.5,7.8-9.3,7.3
	C1168.6,650,1165.1,646,1165.4,641.5z"/>
<path class="st1" d="M1117.4,636.7c0.4-4.5,4.5-7.8,9.3-7.3c4.8,0.5,8.3,4.5,8,9c-0.4,4.5-4.5,7.8-9.3,7.3
	C1120.7,645.2,1117.1,641.2,1117.4,636.7z"/>
<polygon class="st1" points="1141.7,642.8 1156.2,644.3 1155.9,648.7 1141.3,647.3 "/>
<path class="st0" d="M917.3,739.7c1.1-19.8-15.1-37.2-36.1-38.9s-38.9,13.1-40,32.9s15.1,37.2,36.1,38.9
	C898.4,774.2,916.2,759.5,917.3,739.7z"/>
<path class="st1" d="M879.5,732.7L879.5,732.7c2.1,0.2,3.7,1.9,3.6,3.9l-0.9,16.3c-0.1,2-1.9,3.5-4,3.3h0c-2.1-0.2-3.7-1.9-3.6-3.9
	l0.9-16.3C875.6,734,877.4,732.5,879.5,732.7z"/>
<path class="st1" d="M853.5,745l24.3-12.4c1.8-0.9,4-0.3,5,1.4v0c1,1.7,0.4,3.8-1.4,4.7l-24.3,12.4c-1.8,0.9-4,0.3-5-1.4l0,0
	C851.1,748,851.7,745.9,853.5,745z"/>
<path class="st2" d="M904.2,737.5l7.5,0.6c0.6,0,1.1,0.5,1,1.1l0,0c0,0.6-0.5,1-1.1,0.9l-7.5-0.6c-0.6,0-1.1-0.5-1-1.1l0,0
	C903.1,737.9,903.6,737.5,904.2,737.5z"/>
<path class="st2" d="M847.5,733.1l7.5,0.6c0.6,0,1.1,0.5,1,1.1l0,0c0,0.6-0.5,1-1.1,0.9l-7.5-0.6c-0.6,0-1.1-0.5-1-1.1l0,0
	C846.4,733.4,846.9,733,847.5,733.1z"/>
<path class="st2" d="M879.4,714.2l0.4-7.1c0-0.6,0.5-1,1.1-0.9l0,0c0.6,0,1.1,0.5,1,1.1l-0.4,7.1c0,0.6-0.5,1-1.1,0.9l0,0
	C879.9,715.3,879.4,714.8,879.4,714.2z"/>
<path class="st2" d="M876.6,766.6l0.4-7.1c0-0.6,0.5-1,1.1-0.9l0,0c0.6,0,1.1,0.5,1,1.1l-0.4,7.1c0,0.6-0.5,1-1.1,0.9l0,0
	C877,767.6,876.6,767.1,876.6,766.6z"/>
<path class="st1" d="M872,735c0.2-3.8,3.6-6.6,7.7-6.3c4,0.3,7.1,3.7,6.9,7.4c-0.2,3.8-3.6,6.6-7.7,6.3
	C874.9,742.1,871.8,738.8,872,735z"/>
<path class="st1" d="M893.6,772.5c0.2-4.5,4.3-7.9,9.1-7.5s8.4,4.3,8.2,8.8c-0.2,4.5-4.3,7.9-9.1,7.5C897,781,893.3,777,893.6,772.5
	z"/>
<path class="st1" d="M845.5,768.8c0.2-4.5,4.3-7.9,9.1-7.5c4.8,0.4,8.4,4.3,8.2,8.8c-0.2,4.5-4.3,7.9-9.1,7.5
	C848.9,777.2,845.2,773.3,845.5,768.8z"/>
<polygon class="st1" points="869.9,774.4 884.5,775.5 884.2,780 869.6,778.9 "/>
<path class="st0" d="M488,275.6c3.7-26.9-16.7-53.5-45.6-59.5c-28.9-5.9-55.4,11-59.1,37.9s16.7,53.5,45.6,59.5
	C457.8,319.5,484.3,302.5,488,275.6z"/>
<path class="st1" d="M436.3,259.5L436.3,259.5c2.9,0.6,5,3.3,4.6,6l-3.1,22.2c-0.4,2.7-3,4.4-5.9,3.8l0,0c-2.9-0.6-5-3.3-4.6-6
	l3.1-22.2C430.7,260.6,433.4,258.9,436.3,259.5z"/>
<path class="st1" d="M398.9,271.7L434,259c2.5-0.9,5.6,0.4,6.8,2.9l0,0c1.2,2.5,0.1,5.3-2.4,6.2l-35.1,12.7
	c-2.5,0.9-5.6-0.4-6.8-2.9l0,0C395.2,275.4,396.3,272.6,398.9,271.7z"/>
<path class="st2" d="M470.1,270.4l10.3,2.1c0.8,0.2,1.4,0.9,1.3,1.7l0,0c-0.1,0.8-0.9,1.3-1.7,1.1l-10.3-2.1
	c-0.8-0.2-1.4-0.9-1.3-1.7l0,0C468.5,270.7,469.3,270.3,470.1,270.4z"/>
<path class="st2" d="M391.9,254.3l10.3,2.1c0.8,0.2,1.4,0.9,1.3,1.7l0,0c-0.1,0.8-0.9,1.3-1.7,1.1l-10.3-2.1
	c-0.8-0.2-1.4-0.9-1.3-1.7l0,0C390.3,254.6,391.1,254.1,391.9,254.3z"/>
<path class="st2" d="M438.3,234.2l1.3-9.6c0.1-0.8,0.9-1.3,1.7-1.1l0,0c0.8,0.2,1.4,0.9,1.3,1.7l-1.3,9.6c-0.1,0.8-0.9,1.3-1.7,1.1
	l0,0C438.8,235.7,438.2,234.9,438.3,234.2z"/>
<path class="st2" d="M428.5,305.2l1.3-9.6c0.1-0.8,0.9-1.3,1.7-1.1l0,0c0.8,0.2,1.4,0.9,1.3,1.7l-1.3,9.6c-0.1,0.8-0.9,1.3-1.7,1.1
	l0,0C429,306.8,428.4,306,428.5,305.2z"/>
<path class="st1" d="M425.7,261.3c0.7-5.2,5.8-8.4,11.3-7.3c5.5,1.1,9.5,6.2,8.7,11.4c-0.7,5.2-5.8,8.4-11.3,7.3
	S425,266.4,425.7,261.3z"/>
<path class="st1" d="M451.4,316.4c0.8-6.1,6.9-10,13.4-8.6c6.6,1.4,11.2,7.4,10.4,13.5c-0.8,6.1-6.9,10-13.4,8.6
	C455.2,328.6,450.5,322.5,451.4,316.4z"/>
<path class="st1" d="M385.1,302.8c0.8-6.1,6.9-10,13.4-8.6c6.6,1.4,11.2,7.4,10.4,13.5s-6.9,10-13.4,8.6
	C388.9,315,384.2,308.9,385.1,302.8z"/>
<polygon class="st1" points="418.3,314.7 438.4,318.9 437.5,324.9 417.5,320.8 "/>
<path class="st0" d="M481.7,78.2c9.7-10.2,10.1-27.2,0.7-37.9c-9.3-10.7-24.8-11.1-34.5-0.9c-9.7,10.2-10.1,27.2-0.7,37.9
	C456.5,87.9,471.9,88.4,481.7,78.2z"/>
<path class="st1" d="M466.7,56.7L466.7,56.7c0.9,1.1,0.9,2.8-0.1,3.8l-8,8.4c-1,1-2.5,1-3.5-0.1v0c-0.9-1.1-0.9-2.8,0.1-3.8l8-8.4
	C464.2,55.6,465.8,55.6,466.7,56.7z"/>
<path class="st1" d="M448.5,51.1l17.5,4.7c1.3,0.3,2.1,1.8,1.8,3.1v0c-0.3,1.4-1.6,2.2-2.9,1.9l-17.5-4.7c-1.3-0.3-2.1-1.8-1.8-3.1
	v0C445.9,51.7,447.2,50.8,448.5,51.1z"/>
<path class="st2" d="M476.4,70.9l3.3,3.8c0.3,0.3,0.3,0.8,0,1.1l0,0c-0.3,0.3-0.7,0.3-1,0l-3.3-3.8c-0.3-0.3-0.3-0.8,0-1.1l0,0
	C475.7,70.6,476.1,70.6,476.4,70.9z"/>
<path class="st2" d="M451.2,41.9l3.3,3.8c0.3,0.3,0.3,0.8,0,1.1l0,0c-0.3,0.3-0.7,0.3-1,0l-3.3-3.8c-0.3-0.3-0.3-0.8,0-1.1l0,0
	C450.5,41.6,450.9,41.6,451.2,41.9z"/>
<path class="st2" d="M475.3,46.6l3.5-3.6c0.3-0.3,0.7-0.3,1,0v0c0.3,0.3,0.3,0.8,0,1.1l-3.5,3.6c-0.3,0.3-0.7,0.3-1,0l0,0
	C475,47.4,475,46.9,475.3,46.6z"/>
<path class="st2" d="M449.6,73.6L453,70c0.3-0.3,0.7-0.3,1,0v0c0.3,0.3,0.3,0.8,0,1.1l-3.5,3.6c-0.3,0.3-0.7,0.3-1,0v0
	C449.3,74.4,449.3,73.9,449.6,73.6z"/>
<path class="st1" d="M462.1,54.4c1.9-2,4.8-1.9,6.6,0.2s1.7,5.3-0.1,7.3s-4.8,1.9-6.6-0.2S460.2,56.4,462.1,54.4z"/>
<path class="st1" d="M455,84.8c2.2-2.3,5.7-2.2,7.8,0.2c2.1,2.4,2,6.3-0.2,8.6s-5.7,2.2-7.8-0.2C452.7,91,452.7,87.1,455,84.8z"/>
<path class="st1" d="M433.6,60.2c2.2-2.3,5.7-2.2,7.8,0.2s2,6.3-0.2,8.6c-2.2,2.3-5.7,2.2-7.8-0.2C431.3,66.4,431.4,62.6,433.6,60.2
	z"/>
<polygon class="st1" points="442.7,74.7 449.2,82.1 447,84.5 440.5,77 "/>
<path class="st0" d="M122.5,70.4c9.7-10.2,10.1-27.2,0.7-37.9s-24.8-11.1-34.5-0.9S78.6,58.7,88,69.4S112.8,80.6,122.5,70.4z"/>
<path class="st1" d="M107.5,48.9L107.5,48.9c0.9,1.1,0.9,2.8-0.1,3.8l-8,8.4c-1,1-2.5,1-3.5-0.1v0c-0.9-1.1-0.9-2.8,0.1-3.8l8-8.4
	C105,47.8,106.6,47.8,107.5,48.9z"/>
<path class="st1" d="M89.3,43.4l17.5,4.7c1.3,0.3,2.1,1.8,1.8,3.1v0c-0.3,1.4-1.6,2.3-2.9,1.9l-17.5-4.7c-1.3-0.3-2.1-1.8-1.8-3.1v0
	C86.7,43.9,88,43,89.3,43.4z"/>
<path class="st2" d="M117.2,63.1l3.3,3.8c0.3,0.3,0.3,0.8,0,1.1l0,0c-0.3,0.3-0.7,0.3-1,0l-3.3-3.8c-0.3-0.3-0.3-0.8,0-1.1l0,0
	C116.5,62.8,116.9,62.8,117.2,63.1z"/>
<path class="st2" d="M92,34.1l3.3,3.8c0.3,0.3,0.3,0.8,0,1.1v0c-0.3,0.3-0.7,0.3-1,0L91,35.1c-0.3-0.3-0.3-0.8,0-1.1l0,0
	C91.3,33.8,91.7,33.8,92,34.1z"/>
<path class="st2" d="M116.1,38.9l3.5-3.6c0.3-0.3,0.7-0.3,1,0l0,0c0.3,0.3,0.3,0.8,0,1.1l-3.5,3.6c-0.3,0.3-0.7,0.3-1,0h0
	C115.8,39.6,115.8,39.1,116.1,38.9z"/>
<path class="st2" d="M90.4,65.8l3.5-3.6c0.3-0.3,0.7-0.3,1,0v0c0.3,0.3,0.3,0.8,0,1.1l-3.5,3.6c-0.3,0.3-0.7,0.3-1,0l0,0
	C90.1,66.6,90.1,66.1,90.4,65.8z"/>
<path class="st1" d="M102.9,46.6c1.9-2,4.8-1.9,6.6,0.2s1.7,5.3-0.1,7.3c-1.9,2-4.8,1.9-6.6-0.2S101,48.6,102.9,46.6z"/>
<path class="st1" d="M95.8,77c2.2-2.3,5.7-2.2,7.8,0.2c2.1,2.4,2,6.3-0.2,8.6s-5.7,2.2-7.8-0.2C93.5,83.2,93.6,79.3,95.8,77z"/>
<path class="st1" d="M74.4,52.5c2.2-2.3,5.7-2.2,7.8,0.2c2.1,2.4,2,6.3-0.2,8.6c-2.2,2.3-5.7,2.2-7.8-0.2
	C72.1,58.6,72.2,54.8,74.4,52.5z"/>
<polygon class="st1" points="83.5,66.9 90,74.4 87.8,76.7 81.3,69.2 "/>
<path class="st0" d="M780.8,536.1c-0.9-26.8-23.8-48.4-51.2-48.2c-27.4,0.1-48.9,21.9-48,48.7c0.9,26.8,23.8,48.4,51.2,48.2
	C760.2,584.7,781.7,562.9,780.8,536.1z"/>
<path class="st1" d="M730.9,531L730.9,531c2.7,0,5.1,2.2,5.1,4.8l0.7,22c0.1,2.7-2.1,4.9-4.8,4.9l0,0c-2.7,0-5.1-2.2-5.1-4.8
	l-0.7-22C726,533.2,728.2,531,730.9,531z"/>
<path class="st1" d="M698.7,550.4l30-19.4c2.2-1.4,5.2-0.8,6.7,1.4l0,0c1.5,2.2,1,5.1-1.2,6.5l-30,19.4c-2.2,1.4-5.2,0.8-6.7-1.4v0
	C695.9,554.8,696.5,551.8,698.7,550.4z"/>
<path class="st2" d="M763.6,534.7l9.8,0c0.8,0,1.4,0.6,1.5,1.4l0,0c0,0.8-0.6,1.4-1.4,1.4l-9.8,0c-0.8,0-1.4-0.6-1.5-1.4l0,0
	C762.2,535.4,762.8,534.7,763.6,534.7z"/>
<path class="st2" d="M689.5,535l9.8,0c0.8,0,1.4,0.6,1.5,1.4l0,0c0,0.8-0.6,1.4-1.4,1.4l-9.8,0c-0.8,0-1.4-0.6-1.5-1.4l0,0
	C688.1,535.6,688.7,535,689.5,535z"/>
<path class="st2" d="M728.7,506.1l-0.3-9.5c0-0.8,0.6-1.4,1.4-1.4l0,0c0.8,0,1.4,0.6,1.5,1.4l0.3,9.5c0,0.8-0.6,1.4-1.4,1.4l0,0
	C729.4,507.5,728.8,506.9,728.7,506.1z"/>
<path class="st2" d="M731.1,576.8l-0.3-9.5c0-0.8,0.6-1.4,1.4-1.4l0,0c0.8,0,1.4,0.6,1.5,1.4l0.3,9.5c0,0.8-0.6,1.4-1.4,1.4l0,0
	C731.8,578.2,731.1,577.6,731.1,576.8z"/>
<path class="st1" d="M721.5,534.9c-0.2-5.1,3.9-9.3,9.2-9.3c5.3,0,9.7,4.1,9.8,9.2c0.2,5.1-3.9,9.3-9.2,9.3S721.7,540,721.5,534.9z"
	/>
<path class="st1" d="M753.8,583c-0.2-6.1,4.7-11,10.9-11.1s11.4,4.9,11.7,11c0.2,6.1-4.7,11-10.9,11.1
	C759.2,594,754,589.1,753.8,583z"/>
<path class="st1" d="M691.1,583.3c-0.2-6.1,4.7-11,10.9-11.1c6.2,0,11.4,4.9,11.7,11c0.2,6.1-4.7,11-10.9,11.1
	C696.5,594.3,691.3,589.4,691.1,583.3z"/>
<polygon class="st1" points="723.3,588.1 742.3,588 742.6,594.1 723.5,594.2 "/>
<path class="st0" d="M544.2,469.3c-22.7-1.4-42.8,15.4-45,37.6c-2.2,22.2,14.4,41.4,37,42.8s42.8-15.4,45-37.6
	C583.5,490,566.9,470.8,544.2,469.3z"/>
<path class="st1" d="M535.7,509.3L535.7,509.3c0.2-2.2,2.3-3.9,4.5-3.8l18.7,1.2c2.3,0.1,3.9,2.1,3.7,4.3v0
	c-0.2,2.2-2.3,3.9-4.5,3.8l-18.7-1.2C537.1,513.4,535.5,511.5,535.7,509.3z"/>
<path class="st1" d="M549.3,537l-13.9-25.9c-1-1.9-0.2-4.3,1.7-5.3l0,0c2-1,4.4-0.4,5.4,1.5l13.9,25.9c1,1.9,0.2,4.3-1.7,5.3l0,0
	C552.8,539.5,550.3,538.9,549.3,537z"/>
<path class="st2" d="M541.6,483.2l0.8-7.9c0.1-0.6,0.6-1.1,1.3-1.1l0,0c0.6,0,1.1,0.6,1.1,1.2l-0.8,7.9c-0.1,0.6-0.6,1.1-1.3,1.1
	l0,0C542,484.3,541.5,483.8,541.6,483.2z"/>
<path class="st2" d="M535.6,543.1l0.8-7.9c0.1-0.6,0.6-1.1,1.3-1.1l0,0c0.6,0,1.1,0.6,1.1,1.2l-0.8,7.9c-0.1,0.6-0.6,1.1-1.3,1.1
	l0,0C536,544.3,535.5,543.8,535.6,543.1z"/>
<path class="st2" d="M514.5,509l-8.1-0.5c-0.6,0-1.1-0.6-1.1-1.2l0,0c0.1-0.6,0.6-1.1,1.3-1.1l8.1,0.5c0.6,0,1.1,0.6,1.1,1.2l0,0
	C515.7,508.6,515.1,509.1,514.5,509z"/>
<path class="st2" d="M574.4,512.9l-8.1-0.5c-0.6,0-1.1-0.6-1.1-1.2l0,0c0.1-0.6,0.6-1.1,1.3-1.1l8.1,0.5c0.6,0,1.1,0.6,1.1,1.2l0,0
	C575.6,512.4,575,512.9,574.4,512.9z"/>
<path class="st1" d="M538.2,517.2c-4.3-0.3-7.5-4-7.1-8.2c0.4-4.3,4.3-7.5,8.6-7.2c4.3,0.3,7.5,4,7.1,8.2S542.5,517.5,538.2,517.2z"
	/>
<path class="st1" d="M581.5,495c-5.2-0.3-8.9-4.7-8.4-9.7c0.5-5,5.1-8.9,10.2-8.5c5.2,0.3,8.9,4.7,8.4,9.7
	C591.2,491.5,586.6,495.3,581.5,495z"/>
<path class="st1" d="M576.4,545.8c-5.2-0.3-8.9-4.7-8.4-9.7c0.5-5,5.1-8.9,10.2-8.5c5.2,0.3,8.9,4.7,8.4,9.7
	C586.2,542.3,581.6,546.2,576.4,545.8z"/>
<polygon class="st1" points="583.2,520.1 584.8,504.7 589.9,505 588.3,520.4 "/>
<polygon class="st1" points="521.4,550.1 510.1,546.2 511.3,542.5 522.6,546.4 "/>
<path class="st0" d="M644.3,643.3c-35.1,15.6-51.5,56.5-36.5,91.4s55.6,50.5,90.7,35c35.1-15.6,51.5-56.5,36.5-91.4
	C720.1,643.4,679.5,627.7,644.3,643.3z"/>
<path class="st1" d="M664.4,709.7L664.4,709.7c-1.5-3.5,0.2-7.6,3.7-9.2l28.9-12.8c3.5-1.6,7.6,0,9.1,3.5l0,0
	c1.5,3.5-0.2,7.6-3.7,9.2l-28.9,12.8C670,714.7,665.9,713.2,664.4,709.7z"/>
<path class="st1" d="M707.7,740.3l-42.1-27.9c-3.1-2-3.9-6.2-1.8-9.3l0,0c2.1-3.1,6.3-4,9.3-1.9l42.1,27.9c3.1,2,3.9,6.2,1.8,9.3
	l0,0C714.9,741.5,710.8,742.4,707.7,740.3z"/>
<path class="st2" d="M651.8,666l-5.3-12.4c-0.4-1,0-2.2,1-2.6l0,0c1-0.4,2.2,0,2.6,1l5.3,12.4c0.4,1,0,2.2-1,2.6v0
	C653.4,667.4,652.2,667,651.8,666z"/>
<path class="st2" d="M692.1,760.3l-5.3-12.4c-0.4-1,0-2.2,1-2.6v0c1-0.4,2.2,0,2.6,1l5.3,12.4c0.4,1,0,2.2-1,2.6l0,0
	C693.7,761.8,692.6,761.3,692.1,760.3z"/>
<path class="st2" d="M632.5,725.9l-12.5,5.6c-1,0.4-2.2,0-2.6-1l0,0c-0.4-1,0-2.2,1-2.6l12.5-5.6c1-0.4,2.2,0,2.6,1l0,0
	C634,724.3,633.5,725.5,632.5,725.9z"/>
<path class="st2" d="M725.3,684.7l-12.5,5.6c-1,0.4-2.2,0-2.6-1l0,0c-0.4-1,0-2.2,1-2.6l12.5-5.6c1-0.4,2.2,0,2.6,1l0,0
	C726.8,683.1,726.3,684.3,725.3,684.7z"/>
<path class="st1" d="M674.7,719.6c-6.7,3-14.5,0-17.4-6.7s0.3-14.5,7-17.5s14.5,0,17.4,6.7S681.4,716.6,674.7,719.6z"/>
<path class="st1" d="M721.3,652.4c-8,3.5-17.2,0-20.6-8c-3.4-7.9,0.3-17.2,8.3-20.8c8-3.5,17.2,0,20.6,8
	C733,639.6,729.3,648.9,721.3,652.4z"/>
<path class="st1" d="M755.5,732.3c-8,3.5-17.2,0-20.6-8c-3.4-7.9,0.3-17.2,8.3-20.8c8-3.5,17.2,0,20.6,8
	C767.2,719.5,763.5,728.8,755.5,732.3z"/>
<polygon class="st1" points="744.5,688.6 734.1,664.3 742.1,660.8 752.5,685 "/>
<path class="st0" d="M476.3,660c5.7,24.2,30.5,39.4,55.5,34.1c24.9-5.3,40.5-29.3,34.8-53.4c-5.7-24.2-30.5-39.4-55.5-34.1
	C486.2,611.9,470.6,635.9,476.3,660z"/>
<path class="st1" d="M522.7,655.2L522.7,655.2c-2.5,0.5-5-1-5.6-3.4l-4.7-19.9c-0.6-2.4,1-4.8,3.5-5.4l0,0c2.5-0.5,5,1,5.6,3.4
	l4.7,19.9C526.8,652.2,525.2,654.6,522.7,655.2z"/>
<path class="st1" d="M548.5,631.3l-23.8,23.4c-1.7,1.7-4.6,1.7-6.4,0l0,0c-1.8-1.7-1.8-4.4-0.1-6.1l23.8-23.4c1.7-1.7,4.6-1.7,6.4,0
	l0,0C550.2,626.9,550.3,629.7,548.5,631.3z"/>
<path class="st2" d="M492.3,658l-8.9,1.9c-0.7,0.2-1.4-0.3-1.6-1l0,0c-0.2-0.7,0.3-1.4,1-1.5l8.9-1.9c0.7-0.2,1.4,0.3,1.6,1h0
	C493.4,657.2,493,657.8,492.3,658z"/>
<path class="st2" d="M559.7,643.6l-8.9,1.9c-0.7,0.2-1.4-0.3-1.6-1l0,0c-0.2-0.7,0.3-1.4,1-1.5l8.9-1.9c0.7-0.2,1.4,0.3,1.6,1l0,0
	C560.8,642.8,560.4,643.5,559.7,643.6z"/>
<path class="st2" d="M529.2,677.4l2,8.6c0.2,0.7-0.3,1.4-1,1.5l0,0c-0.7,0.2-1.4-0.3-1.6-1l-2-8.6c-0.2-0.7,0.3-1.4,1-1.5l0,0
	C528.4,676.3,529.1,676.7,529.2,677.4z"/>
<path class="st2" d="M514.2,613.5l2,8.6c0.2,0.7-0.3,1.4-1,1.5l0,0c-0.7,0.2-1.4-0.3-1.6-1l-2-8.6c-0.2-0.7,0.3-1.4,1-1.5l0,0
	C513.3,612.4,514,612.8,514.2,613.5z"/>
<path class="st1" d="M530.5,649.9c1.1,4.6-1.9,9.2-6.7,10.2c-4.8,1-9.5-1.9-10.6-6.5c-1.1-4.6,1.9-9.2,6.7-10.2
	C524.7,642.3,529.4,645.2,530.5,649.9z"/>
<path class="st1" d="M492.4,612.3c1.3,5.5-2.2,10.9-7.9,12.2c-5.7,1.2-11.3-2.3-12.6-7.8s2.2-10.9,7.9-12.2
	C485.4,603.3,491.1,606.8,492.4,612.3z"/>
<path class="st1" d="M549.5,600c1.3,5.5-2.2,10.9-7.9,12.2c-5.7,1.2-11.3-2.3-12.6-7.8s2.2-10.9,7.9-12.2
	C542.5,591.1,548.2,594.5,549.5,600z"/>
<polygon class="st1" points="519.2,601.8 501.9,605.5 500.6,600 517.9,596.3 "/>
<path class="st0" d="M525.7,737.4c-11.3-11.8-30-12.1-41.8-0.5s-12.1,30.6-0.7,42.4c11.3,11.8,30,12.1,41.8,0.5
	S537.1,749.2,525.7,737.4z"/>
<path class="st1" d="M502.2,756L502.2,756c1.2-1.2,3.1-1.1,4.2,0.1l9.3,9.8c1.1,1.2,1.1,3.1-0.1,4.3v0c-1.2,1.2-3.1,1.1-4.2-0.1
	l-9.3-9.8C501,759.1,501,757.1,502.2,756z"/>
<path class="st1" d="M496.3,778.4l5-21.5c0.4-1.6,1.9-2.5,3.4-2.2l0,0c1.5,0.4,2.5,1.9,2.1,3.5l-5,21.5c-0.4,1.6-1.9,2.5-3.4,2.2
	l0,0C496.9,781.5,495.9,780,496.3,778.4z"/>
<path class="st2" d="M517.8,744l4.2-4.1c0.3-0.3,0.9-0.3,1.2,0l0,0c0.3,0.3,0.3,0.9,0,1.2l-4.2,4.1c-0.3,0.3-0.9,0.3-1.2,0l0,0
	C517.4,744.9,517.4,744.3,517.8,744z"/>
<path class="st2" d="M486,775.2l4.2-4.1c0.3-0.3,0.9-0.3,1.2,0l0,0c0.3,0.3,0.3,0.9,0,1.2l-4.2,4.1c-0.3,0.3-0.9,0.3-1.2,0l0,0
	C485.7,776.1,485.7,775.6,486,775.2z"/>
<path class="st2" d="M491.1,745.5l-4-4.2c-0.3-0.3-0.3-0.9,0-1.2l0,0c0.3-0.3,0.9-0.3,1.2,0l4,4.2c0.3,0.3,0.3,0.9,0,1.2l0,0
	C491.9,745.9,491.4,745.9,491.1,745.5z"/>
<path class="st2" d="M521,776.9l-4-4.2c-0.3-0.3-0.3-0.9,0-1.2l0,0c0.3-0.3,0.9-0.3,1.2,0l4,4.2c0.3,0.3,0.3,0.9,0,1.2l0,0
	C521.9,777.2,521.3,777.2,521,776.9z"/>
<path class="st1" d="M499.7,761.7c-2.2-2.3-2.1-5.9,0.1-8.1s5.8-2.2,8,0.1s2.1,5.9-0.1,8.1S501.9,764,499.7,761.7z"/>
<path class="st1" d="M533.3,770.1c-2.6-2.7-2.5-7,0.2-9.6s6.9-2.6,9.5,0.1c2.6,2.7,2.5,7-0.2,9.6
	C540.1,772.9,535.9,772.8,533.3,770.1z"/>
<path class="st1" d="M506.4,796.6c-2.6-2.7-2.5-7,0.2-9.6c2.7-2.6,6.9-2.6,9.5,0.1c2.6,2.7,2.5,7-0.2,9.6
	C513.2,799.4,509,799.3,506.4,796.6z"/>
<polygon class="st1" points="522.3,785.3 530.4,777.2 533,779.9 524.8,787.9 "/>
</svg>
