<svg id="Слой_1" data-name="Слой 1" xmlns="http://www.w3.org/2000/svg" viewBox="0 0 256.14 260.32">
  <defs>
    <style>
      .cls-1{opacity:.15}.cls-2{fill:gray}.cls-3{fill:#595050}.cls-4{fill:#bfbfbf}
    </style>
  </defs>
  <g class="cls-1">
    <path class="cls-2" d="M68.5 20.8a23.21 23.21 0 0 0-13.6 15.6c.6.7 1.1 1.4 1.7 2.2a30 30 0 0 1 5-2.7c.6-6.6 4.6-11.3 7.6-14 .6-.5 0-1.5-.7-1.1z" transform="translate(-14.41 -9.74)"/>
  </g>
  <g class="cls-1">
    <path class="cls-3" d="M65.3 22.4a22.7 22.7 0 0 0-10.4 14c.6.7 1.1 1.4 1.7 2.2.4-.3.8-.5 1.2-.8a22.74 22.74 0 0 1 7.5-15.4z" transform="translate(-14.41 -9.74)"/>
  </g>
  <g class="cls-1">
    <path class="cls-2" d="M49.5 42.6c-.4-.8-.8-1.7-1.3-2.6a23.32 23.32 0 0 0-20 3.7.67.67 0 0 0 .6 1.2c3.9-1.2 10-2.2 15.9.6a29.17 29.17 0 0 1 4.8-2.9z" transform="translate(-14.41 -9.74)"/>
  </g>
  <g class="cls-1">
    <path class="cls-3" d="M32.3 41.5h-.4a24 24 0 0 0-3.7 2.2.67.67 0 0 0 .6 1.2c3.9-1.2 10-2.2 15.9.6a30.24 30.24 0 0 1 3.3-2.1c-5.7-3.3-11.8-2.8-15.7-1.9z" transform="translate(-14.41 -9.74)"/>
  </g>
  <g class="cls-1">
    <path class="cls-2" d="M49.3 42.7c2.2-1.1 3.5-1.3 5.6-2.9a20.28 20.28 0 0 1 1.8-1.3c-5.4-8-15-11.9-20.5-13.6-.6-.2-1 .6-.5.9 6.8 4.5 11.2 11.6 13.6 16.9z" transform="translate(-14.41 -9.74)"/>
  </g>
  <g class="cls-1">
    <path class="cls-3" d="M52.2 41.5a48.14 48.14 0 0 0-10.5-14.6 47.56 47.56 0 0 0-5.5-2c-.6-.2-1 .6-.5.9 6.7 4.5 11 11.6 13.5 16.9 1.2-.5 2.1-.8 3-1.2z" transform="translate(-14.41 -9.74)"/>
  </g>
  <g class="cls-1">
    <path class="cls-4" d="M54.8 39.7c-2.6 2-3.8 1.8-7.5 3.9-13.5 7.7-18.7 24.1-11.5 36.8s24 16.7 37.5 9a30 30 0 0 0 3.7-2.5 15.13 15.13 0 0 1 3.5-2 29.28 29.28 0 0 0 4-1.9C98 75.3 103.2 58.9 96 46.2c-8-14-27.5-17.2-41.2-6.5z" transform="translate(-14.41 -9.74)"/>
  </g>
  <g class="cls-1">
    <path class="cls-2" d="M38.5 78.8c-6.9-12.2-2.3-28 10.2-36-.4.2-.9.5-1.4.7-13.5 7.7-18.7 24.1-11.5 36.8s24 16.7 37.5 9a14.8 14.8 0 0 0 1.3-.8c-13.2 6.7-29.2 2.5-36.1-9.7z" transform="translate(-14.41 -9.74)"/>
  </g>
  <g class="cls-1">
    <path class="cls-2" d="M14.5 146a24.18 24.18 0 0 0 16.9 14.3l2.4-1.8a33.94 33.94 0 0 1-2.9-5.3c-7.2-.5-12.3-4.7-15.2-8a.73.73 0 0 0-1.2.8z" transform="translate(-14.41 -9.74)"/>
  </g>
  <g class="cls-1">
    <path class="cls-3" d="M16.2 149.4a24 24 0 0 0 15.1 10.9l2.4-1.8a9.13 9.13 0 0 1-.8-1.3 24.11 24.11 0 0 1-16.7-7.8z" transform="translate(-14.41 -9.74)"/>
  </g>
  <g class="cls-1">
    <path class="cls-2" d="M38.1 166.1a27 27 0 0 0-2.9 1.5 24.12 24.12 0 0 0 3.7 21.5.74.74 0 0 0 1.3-.7c-1.3-4.2-2.2-10.7 1-17.1a25.49 25.49 0 0 1-3.1-5.2z" transform="translate(-14.41 -9.74)"/>
  </g>
  <g class="cls-1">
    <path class="cls-3" d="M36.5 184.6v.5a26.48 26.48 0 0 0 2.3 3.9.74.74 0 0 0 1.3-.7c-1.3-4.2-2.2-10.7 1-17.1a33.66 33.66 0 0 1-2.2-3.5c-3.7 6.1-3.3 12.7-2.4 16.9z" transform="translate(-14.41 -9.74)"/>
  </g>
  <g class="cls-1">
    <path class="cls-2" d="M38.2 166.3c-1.1-2.4-1.3-3.7-3.1-6a23.07 23.07 0 0 1-1.4-1.9c-8.9 5.9-13.4 16.4-15.3 22.2a.57.57 0 0 0 1 .5c5-7.3 12.9-12.1 18.8-14.8z" transform="translate(-14.41 -9.74)"/>
  </g>
  <g class="cls-1">
    <path class="cls-3" d="M36.9 163.2a54 54 0 0 0-16.2 11.5 46.8 46.8 0 0 0-2.3 5.9.57.57 0 0 0 1 .5c5-7.3 12.9-12.1 18.8-14.8-.6-1.2-.9-2.2-1.3-3.1z" transform="translate(-14.41 -9.74)"/>
  </g>
  <g class="cls-1">
    <path class="cls-4" d="M35 160.4c2.2 2.8 1.9 4 4.1 8 8.2 14.4 26.1 19.7 40.1 11.8s18.7-26 10.6-40.5a37.75 37.75 0 0 0-2.6-3.9 13.59 13.59 0 0 1-2.1-3.7 33.58 33.58 0 0 0-2-4.3C74.9 113.3 56.9 108 42.9 116c-15.6 8.8-19.4 29.8-7.9 44.4z" transform="translate(-14.41 -9.74)"/>
  </g>
  <g class="cls-1">
    <path class="cls-2" d="M77.6 177.3c-13.5 7.7-30.8 3-39.3-10.4.2.5.5.9.8 1.5 8.2 14.4 26.1 19.7 40.1 11.8s18.7-26 10.6-40.5c-.3-.5-.6-1-.9-1.4 7.1 14.1 2.2 31.3-11.3 39z" transform="translate(-14.41 -9.74)"/>
  </g>
  <g class="cls-1">
    <path class="cls-2" d="M164 105.9a17.16 17.16 0 0 0-14.7-3 14.17 14.17 0 0 1-.8 1.8 18.6 18.6 0 0 1 3.5 2.2 16 16 0 0 1 11.6-.1.5.5 0 0 0 .4-.9z" transform="translate(-14.41 -9.74)"/>
  </g>
  <g class="cls-1">
    <path class="cls-3" d="M161.9 104.5a17.05 17.05 0 0 0-12.6-1.6 14.17 14.17 0 0 1-.8 1.8c.3.2.6.3.9.5a16.42 16.42 0 0 1 12.5-.7z" transform="translate(-14.41 -9.74)"/>
  </g>
  <g class="cls-1">
    <path class="cls-2" d="M143.4 101.6a14 14 0 0 0 1.2-1.8 17 17 0 0 0-9.6-11.3.47.47 0 0 0-.5.8 16 16 0 0 1 5.4 10.2c1.2.7 2.4 1.4 3.5 2.1z" transform="translate(-14.41 -9.74)"/>
  </g>
  <g class="cls-1">
    <path class="cls-3" d="M137.9 90.4a.37.37 0 0 1-.1-.3 17.49 17.49 0 0 0-2.7-1.6.47.47 0 0 0-.5.8 16 16 0 0 1 5.4 10.2c.9.4 1.7.9 2.5 1.3-.1-4.5-2.6-8.2-4.6-10.4z" transform="translate(-14.41 -9.74)"/>
  </g>
  <g class="cls-1">
    <path class="cls-2" d="M143.3 101.6c1.5 1 2.1 1.8 3.8 2.5a10.09 10.09 0 0 1 1.5.7c3.1-6.2 2-13.7 1.1-17.6-.1-.4-.7-.4-.7 0-.4 5.7-3.3 11-5.7 14.4z" transform="translate(-14.41 -9.74)"/>
  </g>
  <g class="cls-1">
    <path class="cls-3" d="M145.1 102.9a34.32 34.32 0 0 0 5.4-11.7c-.2-1.6-.5-3-.7-4.1-.1-.4-.7-.4-.7 0-.4 5.8-3.3 11-5.7 14.4a17.73 17.73 0 0 0 1.7 1.4z" transform="translate(-14.41 -9.74)"/>
  </g>
  <g class="cls-1">
    <path class="cls-4" d="M147.2 104c-2.2-.9-2.5-1.7-5.2-3.3-9.7-5.8-22-3.2-27.3 5.7s-1.8 20.9 8 26.7a26.39 26.39 0 0 0 2.9 1.5 10.37 10.37 0 0 1 2.5 1.5 12.71 12.71 0 0 0 2.7 1.8c9.7 5.8 22 3.2 27.3-5.7 5.9-10 .8-23.4-10.9-28.2z" transform="translate(-14.41 -9.74)"/>
  </g>
  <g class="cls-1">
    <path class="cls-2" d="M116.7 107.5c5.2-8.7 16.8-11.3 26.3-6.3a8.79 8.79 0 0 0-1-.6c-9.7-5.8-22-3.2-27.3 5.7s-1.8 20.9 8 26.7c.3.2.7.4 1 .6-9-6-12.2-17.4-7-26.1z" transform="translate(-14.41 -9.74)"/>
  </g>
  <g class="cls-1">
    <path class="cls-2" d="M112.1 48.9a17.31 17.31 0 0 0 15.2 3.8c.3-.6.6-1.3.9-1.9a20.45 20.45 0 0 1-3.5-2.5c-4.6 1.8-9.2.7-12.1-.4a.57.57 0 0 0-.5 1z" transform="translate(-14.41 -9.74)"/>
  </g>
  <g class="cls-1">
    <path class="cls-3" d="M114.3 50.5a17.46 17.46 0 0 0 13 2.3c.3-.6.6-1.3.9-1.9l-.9-.6a16.76 16.76 0 0 1-13 .2z" transform="translate(-14.41 -9.74)"/>
  </g>
  <g class="cls-1">
    <path class="cls-2" d="M132.4 53.8c-.4.6-.9 1.2-1.3 1.8a19.07 19.07 0 0 0 9.9 12.7c.6.3 1.1-.4.6-.8-2.3-2.3-5.2-6.2-5.4-11.3a24.45 24.45 0 0 1-3.8-2.4z" transform="translate(-14.41 -9.74)"/>
  </g>
  <g class="cls-1">
    <path class="cls-3" d="M137.9 66.1a.37.37 0 0 1 .1.3 14.15 14.15 0 0 0 2.9 1.8c.6.3 1.1-.4.6-.8-2.3-2.3-5.2-6.2-5.4-11.3-.9-.5-1.8-1-2.7-1.6-.1 5.1 2.5 9.1 4.5 11.6z" transform="translate(-14.41 -9.74)"/>
  </g>
  <g class="cls-1">
    <path class="cls-2" d="M132.5 53.8c-1.6-1.2-2.1-2-4-2.9-.5-.3-1.1-.5-1.6-.8-3.6 6.4-2.8 14.4-1.9 18.7.1.5.8.5.8 0 .6-6.1 4-11.5 6.7-15z" transform="translate(-14.41 -9.74)"/>
  </g>
  <g class="cls-1">
    <path class="cls-3" d="M130.6 52.3a35.74 35.74 0 0 0-6.3 12 45 45 0 0 0 .6 4.5c.1.5.8.5.8 0 .6-6.1 4-11.5 6.7-15a11.92 11.92 0 0 0-1.8-1.5z" transform="translate(-14.41 -9.74)"/>
  </g>
  <g class="cls-1">
    <path class="cls-4" d="M128.4 51c2.3 1.1 2.6 2 5.4 3.9 10.3 6.9 23.5 5 29.7-4.1s2.8-22.1-7.5-29a18.69 18.69 0 0 0-3.1-1.7 10 10 0 0 1-2.6-1.8 30.13 30.13 0 0 0-2.8-2.2c-10.3-6.9-23.5-5-29.7 4.1-6.7 10.2-1.7 24.8 10.6 30.8z" transform="translate(-14.41 -9.74)"/>
  </g>
  <g class="cls-1">
    <path class="cls-2" d="M161.5 49.4c-5.9 8.8-18.5 10.9-28.6 4.8a8.65 8.65 0 0 0 1 .7c10.3 6.9 23.5 5 29.7-4.1s2.8-22.1-7.5-29c-.3-.2-.7-.5-1-.7 9.3 7 12.3 19.5 6.4 28.3z" transform="translate(-14.41 -9.74)"/>
  </g>
  <g class="cls-1">
    <path class="cls-2" d="M206.9 169.6a19.9 19.9 0 0 0 12.8-13.3c-.5-.7-1-1.4-1.4-2.1a38.18 38.18 0 0 1-4.6 2.1 18.85 18.85 0 0 1-7.5 12.2c-.5.4 0 1.3.7 1.1z" transform="translate(-14.41 -9.74)"/>
  </g>
  <g class="cls-1">
    <path class="cls-3" d="M209.8 168.3a20.22 20.22 0 0 0 9.9-12c-.5-.7-1-1.4-1.4-2.1-.4.2-.7.4-1.1.6a20.3 20.3 0 0 1-7.4 13.5z" transform="translate(-14.41 -9.74)"/>
  </g>
  <g class="cls-1">
    <path class="cls-2" d="M224.9 151c.3.8.7 1.6 1.1 2.5a20.25 20.25 0 0 0 18.1-1.9.67.67 0 0 0-.5-1.2c-3.5.8-9 1.3-14.2-1.7a31.91 31.91 0 0 1-4.5 2.3z" transform="translate(-14.41 -9.74)"/>
  </g>
  <g class="cls-1">
    <path class="cls-3" d="M240.3 153.2c.2 0 .3 0 .4.1a27 27 0 0 0 3.4-1.7.67.67 0 0 0-.5-1.2c-3.5.8-9 1.3-14.2-1.7a30.71 30.71 0 0 1-3.1 1.7 19 19 0 0 0 14 2.8z" transform="translate(-14.41 -9.74)"/>
  </g>
  <g class="cls-1">
    <path class="cls-2" d="M225 150.9c-2 .8-3.2.9-5.1 2.2-.5.4-1.1.7-1.7 1.1 4.4 7.7 12.9 12 17.7 13.9.5.2.9-.5.5-.8-5.9-4.6-9.4-11.4-11.4-16.4z" transform="translate(-14.41 -9.74)"/>
  </g>
  <g class="cls-1">
    <path class="cls-3" d="M222.4 151.8a44 44 0 0 0 8.7 14 32.12 32.12 0 0 0 4.8 2.2c.5.2.9-.5.5-.8-5.8-4.5-9.4-11.4-11.3-16.4-1.1.5-1.9.7-2.7 1z" transform="translate(-14.41 -9.74)"/>
  </g>
  <g class="cls-1">
    <path class="cls-4" d="M220 153.3c2.4-1.7 3.5-1.3 6.9-3 12.5-6 17.8-20.7 12-32.8s-20.7-16.9-33.1-10.9a23.29 23.29 0 0 0-3.4 2 13.69 13.69 0 0 1-3.2 1.6c-1.2.4-2.5.9-3.7 1.4-12.5 6-17.8 20.7-12 32.8 6.4 13.4 23.8 17.6 36.5 8.9z" transform="translate(-14.41 -9.74)"/>
  </g>
  <g class="cls-1">
    <path class="cls-2" d="M236.3 118.7c5.6 11.7.8 25.7-10.8 32.1.4-.2.8-.4 1.3-.6 12.5-6 17.8-20.7 12-32.8s-20.7-16.9-33.1-10.9l-1.2.6c12.2-5 26.2 0 31.8 11.6z" transform="translate(-14.41 -9.74)"/>
  </g>
  <g class="cls-1">
    <path class="cls-2" d="M270.5 54.6a24 24 0 0 0-15.9-15.3c-.8.6-1.7 1.1-2.5 1.7a34.25 34.25 0 0 1 2.5 5.5c7.1 1 11.9 5.5 14.6 8.9a.78.78 0 0 0 1.3-.8z" transform="translate(-14.41 -9.74)"/>
  </g>
  <g class="cls-1">
    <path class="cls-3" d="M268.9 51.2a23.85 23.85 0 0 0-14.4-11.9c-.8.6-1.7 1.1-2.5 1.7a8.26 8.26 0 0 1 .7 1.3 23.84 23.84 0 0 1 16.2 8.9z" transform="translate(-14.41 -9.74)"/>
  </g>
  <g class="cls-1">
    <path class="cls-2" d="M248.2 33.1c1-.4 2-.8 3-1.3a24 24 0 0 0-2.3-21.7.77.77 0 0 0-1.4.6c1 4.2 1.5 10.8-2.1 17a25.26 25.26 0 0 1 2.8 5.4z" transform="translate(-14.41 -9.74)"/>
  </g>
  <g class="cls-1">
    <path class="cls-3" d="M251 14.7a.9.9 0 0 1 .1-.5 22.8 22.8 0 0 0-2.1-4.1.77.77 0 0 0-1.4.6c1 4.2 1.5 10.8-2.1 17a26.43 26.43 0 0 1 2 3.7c4.1-5.9 4.1-12.4 3.5-16.7z" transform="translate(-14.41 -9.74)"/>
  </g>
  <g class="cls-1">
    <path class="cls-2" d="M248.1 32.9c1 2.5 1.1 3.8 2.7 6.2.4.7.9 1.3 1.3 2 9.2-5.3 14.4-15.5 16.7-21.2a.6.6 0 0 0-1-.6c-5.5 7-13.7 11.3-19.7 13.6z" transform="translate(-14.41 -9.74)"/>
  </g>
  <g class="cls-1">
    <path class="cls-3" d="M249.2 36a55.72 55.72 0 0 0 16.9-10.4c1.1-2.1 2-4.1 2.7-5.8a.6.6 0 0 0-1-.6c-5.5 7-13.7 11.2-19.7 13.6.5 1.3.8 2.3 1.1 3.2z" transform="translate(-14.41 -9.74)"/>
  </g>
  <g class="cls-1">
    <path class="cls-4" d="M250.9 39c-2-2.9-1.6-4.1-3.6-8.3-7.2-14.9-24.8-21.4-39.3-14.4S187.6 41.1 194.8 56a33.76 33.76 0 0 0 2.4 4.1 17.62 17.62 0 0 1 1.9 3.9 33.36 33.36 0 0 0 1.7 4.4c7.2 14.9 24.8 21.4 39.3 14.4 16.2-7.8 21.3-28.6 10.8-43.8z" transform="translate(-14.41 -9.74)"/>
  </g>
  <g class="cls-1">
    <path class="cls-2" d="M209.5 19.4c14-6.8 30.9-1 38.5 12.9a10.09 10.09 0 0 0-.7-1.5c-7.2-14.9-24.8-21.4-39.3-14.4s-20.4 24.8-13.2 39.7a10.93 10.93 0 0 0 .8 1.5c-6.1-14.7-.1-31.5 13.9-38.2z" transform="translate(-14.41 -9.74)"/>
  </g>
  <g class="cls-1">
    <path class="cls-2" d="M142.5 166.5c-7.3 8-7.6 16.4-6.9 21.2a20.13 20.13 0 0 1 2.5 1.4 34.83 34.83 0 0 1 3.8-4.8c-2.1-6.6-.1-13 1.8-17a.73.73 0 0 0-1.2-.8z" transform="translate(-14.41 -9.74)"/>
  </g>
  <g class="cls-1">
    <path class="cls-3" d="M140.1 169.5a25.37 25.37 0 0 0-4.5 18.2 20.13 20.13 0 0 1 2.5 1.4c.3-.4.6-.9.9-1.3a23.81 23.81 0 0 1 1.1-18.3z" transform="translate(-14.41 -9.74)"/>
  </g>
  <g class="cls-1">
    <path class="cls-2" d="M132.7 196.2c-.7-.6-1.5-1.3-2.4-2a25.86 25.86 0 0 0-18.1 12.5.71.71 0 0 0 1.1.9c3.3-2.9 8.9-6.6 15.8-6.5a44.13 44.13 0 0 1 3.6-4.9z" transform="translate(-14.41 -9.74)"/>
  </g>
  <g class="cls-1">
    <path class="cls-3" d="M115.4 202.8a.76.76 0 0 1-.4.2 21.56 21.56 0 0 0-2.7 3.8.71.71 0 0 0 1.1.9c3.3-2.9 8.9-6.6 15.8-6.5a21.64 21.64 0 0 1 2.4-3.5c-6.9-.7-12.7 2.4-16.2 5.1z" transform="translate(-14.41 -9.74)"/>
  </g>
  <g class="cls-1">
    <path class="cls-2" d="M132.6 196.4c1.8-2 2.9-2.8 4.3-5.3a23.92 23.92 0 0 1 1.3-2.1c-8.5-5.4-19.5-4.9-25.5-4.1-.6.1-.7 1-.1 1.1 8.4 1.3 15.5 6.3 20 10.4z" transform="translate(-14.41 -9.74)"/>
  </g>
  <g class="cls-1">
    <path class="cls-3" d="M134.9 193.9a47.47 47.47 0 0 0-16-9.5c-2.3.1-4.5.3-6.2.5-.6.1-.7 1-.1 1.1 8.4 1.3 15.5 6.4 20 10.4a30.86 30.86 0 0 1 2.3-2.5z" transform="translate(-14.41 -9.74)"/>
  </g>
  <g class="cls-1">
    <path class="cls-4" d="M136.8 191c-1.7 3.1-3 3.4-5.8 7.1-10.1 13.5-8.6 31.8 3.5 40.9s30.1 5.5 40.3-8a30.19 30.19 0 0 0 2.6-4 15.17 15.17 0 0 1 2.6-3.5 37.28 37.28 0 0 0 3.2-3.6c10.1-13.5 8.6-31.8-3.5-40.9-13.5-10.2-33.9-4.5-42.9 12z" transform="translate(-14.41 -9.74)"/>
  </g>
  <g class="cls-1">
    <path class="cls-2" d="M136.6 236.3c-11.7-8.8-13.5-26.2-4.5-39.5-.3.4-.7.8-1.1 1.3-10.1 13.5-8.6 31.8 3.5 40.9s30.1 5.5 40.3-8c.3-.5.7-.9 1-1.4-10.3 12.4-27.6 15.4-39.2 6.7z" transform="translate(-14.41 -9.74)"/>
  </g>
  <g class="cls-1">
    <path class="cls-2" d="M100.1 235.9a17.49 17.49 0 0 0-14.9-4.8c-.3.6-.7 1.2-1 1.8a21.58 21.58 0 0 1 3.3 2.7c4.7-1.5 9.2-.1 12 1.2a.56.56 0 0 0 .6-.9z" transform="translate(-14.41 -9.74)"/>
  </g>
  <g class="cls-1">
    <path class="cls-3" d="M98 234.2a17.06 17.06 0 0 0-12.8-3.1c-.3.6-.7 1.2-1 1.8l.9.6a16.37 16.37 0 0 1 12.9.7z" transform="translate(-14.41 -9.74)"/>
  </g>
  <g class="cls-1">
    <path class="cls-2" d="M79.2 229.1c.5-.5 1-1.1 1.5-1.7a17.33 17.33 0 0 0-8.5-12.9.54.54 0 0 0-.7.8c2 2.4 4.5 6.3 4.3 11.3a19.78 19.78 0 0 1 3.4 2.5z" transform="translate(-14.41 -9.74)"/>
  </g>
  <g class="cls-1">
    <path class="cls-3" d="M74.9 216.7a.37.37 0 0 1-.1-.3 17.42 17.42 0 0 0-2.6-1.9.54.54 0 0 0-.7.8c2 2.4 4.5 6.3 4.3 11.3a14.65 14.65 0 0 1 2.4 1.7 16.58 16.58 0 0 0-3.3-11.6z" transform="translate(-14.41 -9.74)"/>
  </g>
  <g class="cls-1">
    <path class="cls-2" d="M79.1 229c1.4 1.2 1.9 2.1 3.7 3l1.5.9c4-6.1 3.9-14 3.4-18.3 0-.4-.7-.5-.8-.1-1.1 6.1-4.8 11.2-7.8 14.5z" transform="translate(-14.41 -9.74)"/>
  </g>
  <g class="cls-1">
    <path class="cls-3" d="M80.8 230.6a37 37 0 0 0 7.1-11.6c0-1.7-.1-3.2-.2-4.4 0-.4-.7-.5-.8-.1-1.1 6-4.8 11.1-7.8 14.4z" transform="translate(-14.41 -9.74)"/>
  </g>
  <g class="cls-1">
    <path class="cls-4" d="M82.8 232c-2.2-1.2-2.3-2.1-4.9-4.1-9.4-7.2-22.4-5.9-29.1 2.8s-4.6 21.6 4.8 28.8a16.65 16.65 0 0 0 2.8 1.8 8.76 8.76 0 0 1 2.4 1.9 26.22 26.22 0 0 0 2.5 2.2c9.4 7.2 22.4 5.9 29.1-2.8 7.5-9.7 3.9-24.3-7.6-30.6z" transform="translate(-14.41 -9.74)"/>
  </g>
  <g class="cls-1">
    <path class="cls-2" d="M50.7 232.1c6.5-8.4 18.9-9.9 28.1-3.5a6.47 6.47 0 0 1-.9-.8c-9.4-7.2-22.4-5.9-29.1 2.8s-4.6 21.6 4.8 28.8a8.65 8.65 0 0 0 1 .7c-8.6-7.2-10.4-19.5-3.9-28z" transform="translate(-14.41 -9.74)"/>
  </g>
  <g class="cls-1">
    <path class="cls-2" d="M200.6 226.4a21.08 21.08 0 0 0 14 12.4c.6-.5 1.3-1 2-1.5a32.09 32.09 0 0 1-2.4-4.5 19.6 19.6 0 0 1-12.6-7 .58.58 0 0 0-1 .6z" transform="translate(-14.41 -9.74)"/>
  </g>
  <g class="cls-1">
    <path class="cls-3" d="M202.1 229.3a20.49 20.49 0 0 0 12.6 9.5c.6-.5 1.3-1 2-1.5-.2-.4-.5-.7-.7-1.1a20.3 20.3 0 0 1-13.9-6.9z" transform="translate(-14.41 -9.74)"/>
  </g>
  <g class="cls-1">
    <path class="cls-2" d="M220.2 243.8a13.44 13.44 0 0 0-2.4 1.2 21 21 0 0 0 3.2 18.2.61.61 0 0 0 1.1-.5 19.69 19.69 0 0 1 .7-14.4 34.69 34.69 0 0 1-2.6-4.5z" transform="translate(-14.41 -9.74)"/>
  </g>
  <g class="cls-1">
    <path class="cls-3" d="M219.1 259.4v.4a24.94 24.94 0 0 0 2 3.4.61.61 0 0 0 1.1-.5 19.69 19.69 0 0 1 .7-14.4c-.7-1-1.3-2-1.9-3-3.1 5-2.7 10.5-1.9 14.1z" transform="translate(-14.41 -9.74)"/>
  </g>
  <g class="cls-1">
    <path class="cls-2" d="M220.3 243.9c-.9-2-1.1-3.2-2.6-5.1-.4-.5-.8-1.1-1.2-1.7-7.3 4.8-10.9 13.5-12.4 18.4a.45.45 0 0 0 .8.4c4.1-5.9 10.6-9.8 15.4-12z" transform="translate(-14.41 -9.74)"/>
  </g>
  <g class="cls-1">
    <path class="cls-3" d="M219.2 241.3a41.59 41.59 0 0 0-13.2 9.3c-.8 1.8-1.4 3.5-1.9 4.9a.45.45 0 0 0 .8.4c4.1-6 10.6-9.9 15.4-12.1-.5-.9-.7-1.7-1.1-2.5z" transform="translate(-14.41 -9.74)"/>
  </g>
  <g class="cls-1">
    <path class="cls-4" d="M217.6 238.9c1.8 2.4 1.6 3.4 3.5 6.8 6.8 12.3 21.7 17.1 33.2 10.8s15.2-21.5 8.4-33.8a39.56 39.56 0 0 0-2.2-3.4 16.54 16.54 0 0 1-1.8-3.2 23.68 23.68 0 0 0-1.7-3.6c-6.8-12.3-21.7-17.1-33.2-10.8-12.7 7.1-15.7 24.8-6.2 37.2z" transform="translate(-14.41 -9.74)"/>
  </g>
  <g class="cls-1">
    <path class="cls-2" d="M252.9 254c-11.1 6.2-25.3 1.9-32.5-9.6.2.4.4.8.7 1.3 6.8 12.3 21.7 17.1 33.2 10.8s15.2-21.5 8.4-33.8c-.2-.4-.5-.8-.7-1.2 5.9 12 2 26.4-9.1 32.5z" transform="translate(-14.41 -9.74)"/>
  </g>
</svg>
