<svg id="Capa_1" data-name="Capa 1" xmlns="http://www.w3.org/2000/svg" viewBox="0 0 512 512"><defs><style>.cls-1{fill:#3bbc56}.cls-2{fill:#30aa44}</style></defs><path class="cls-1" d="M275.6 152.51zM409.29 85.56c-65.71-6.76-107.56 24.9-128.62 47.56a176.89 176.89 0 0 1 2.36 18.7 191.91 191.91 0 0 1 37.42.83c24.78-37.2 63-51.94 89.35-57.78 5.2-1.15 4.8-8.77-.51-9.31z"/><path class="cls-2" d="M385.88 84.73c-52.39 1.8-86.77 28.55-105.2 48.39a176.88 176.88 0 0 1 2.35 18.7c3.17-.24 6.33-.4 9.5-.48 15.07-23.97 43.47-54.92 93.35-66.61z"/><path class="cls-1" d="M228.75 151.8c.48-6.36.85-13.17 1-20.32C208.26 109 166.86 79 102.72 85.55c-5.32.55-5.73 8.17-.51 9.32 26.37 5.84 64.56 20.58 89.34 57.77a193.1 193.1 0 0 1 37.2-.84zM236.3 152.5z"/><path class="cls-2" d="M133.6 86.7a4.58 4.58 0 0 1-2.43-1.7 168.2 168.2 0 0 0-28.46.58c-5.31.54-5.72 8.16-.5 9.31 26.37 5.84 64.56 20.58 89.34 57.78a192.18 192.18 0 0 1 25.94-1.34c-21.6-38.83-58.21-56.62-83.89-64.63z"/><path class="cls-1" d="M227.71 151.8c16.33 1.2 24.18 4.36 41.56 1.69q7.31-1.11 14.79-1.67c-4.68-66.07-47.55-122.44-73.23-150.66A3.48 3.48 0 0 0 205.12 5c24.11 49.44 25.65 106.87 22.59 146.8z"/><path class="cls-2" d="M248.17 154.1c2.25-34.08 1.22-79.47-12.48-122.38a357 357 0 0 0-24.86-30.56A3.48 3.48 0 0 0 205.12 5c24.11 49.42 25.65 106.85 22.59 146.78 8.2.63 14.29 1.72 20.46 2.32z"/><path d="M269.27 152.46c-21.47 3.3-27.42-2.22-55.77-2.22-102.82 0-186.17 81-186.17 180.88S110.68 512 213.5 512a192.82 192.82 0 0 0 29.23-2.22 87.47 87.47 0 0 1 26.54 0A192.92 192.92 0 0 0 298.5 512c102.82 0 186.17-81 186.17-180.88 0-111.12-102.16-196.03-215.4-178.66z" fill="#ea473b"/><path d="M48 331.12c0-96.57 77.89-175.46 176-180.61-3.13-.17-6.57-.27-10.43-.27-102.82 0-186.16 81-186.16 180.88S110.68 512 213.5 512c3.46 0 6.9-.1 10.32-.28C125.81 506.52 48 427.66 48 331.12z" fill="#dd332f"/><path d="M2.7 282.58C6.33 286.19 24.4 297 28 307.87S38.89 388 60.6 406.08c22.41 18.6 106.85 11.67 123 3.62 36.19-18 40.63-76.32 47-101.83 3.61-14.45 25.32-14.45 25.32-14.45s21.73 0 25.34 14.43c6.4 25.53 10.87 84 47 102 16.2 8.07 100.64 15 123.08-3.6 21.66-18.07 28.91-87.55 32.53-98.39s21.7-21.66 25.32-25.27 3.64-18.06 0-21.68c-7.23-7.22-92.6-13.65-184.53-3.61-18.35 2-25.32 7.23-68.76 7.23s-50.41-5.22-68.74-7.21C95.34 247.25 9.94 253.68 2.7 260.9c-3.6 3.62-3.6 18.07 0 21.68"/></svg>